%TF.GenerationSoftware,KiCad,Pcbnew,(5.1.2)-2*%
%TF.CreationDate,2020-09-07T08:08:20+07:00*%
%TF.ProjectId,ai-hw-elec,61692d68-772d-4656-9c65-632e6b696361,rev?*%
%TF.SameCoordinates,Original*%
%TF.FileFunction,Legend,Bot*%
%TF.FilePolarity,Positive*%
%FSLAX46Y46*%
G04 Gerber Fmt 4.6, Leading zero omitted, Abs format (unit mm)*
G04 Created by KiCad (PCBNEW (5.1.2)-2) date 2020-09-07 08:08:20*
%MOMM*%
%LPD*%
G04 APERTURE LIST*
%ADD10C,0.300000*%
%ADD11C,0.120000*%
%ADD12C,0.150000*%
G04 APERTURE END LIST*
D10*
X111259714Y-73346571D02*
X110331142Y-73346571D01*
X110831142Y-73918000D01*
X110616857Y-73918000D01*
X110474000Y-73989428D01*
X110402571Y-74060857D01*
X110331142Y-74203714D01*
X110331142Y-74560857D01*
X110402571Y-74703714D01*
X110474000Y-74775142D01*
X110616857Y-74846571D01*
X111045428Y-74846571D01*
X111188285Y-74775142D01*
X111259714Y-74703714D01*
X109831142Y-73846571D02*
X109474000Y-74846571D01*
X109116857Y-73846571D01*
X108688285Y-73346571D02*
X107759714Y-73346571D01*
X108259714Y-73918000D01*
X108045428Y-73918000D01*
X107902571Y-73989428D01*
X107831142Y-74060857D01*
X107759714Y-74203714D01*
X107759714Y-74560857D01*
X107831142Y-74703714D01*
X107902571Y-74775142D01*
X108045428Y-74846571D01*
X108474000Y-74846571D01*
X108616857Y-74775142D01*
X108688285Y-74703714D01*
X112120857Y-93317142D02*
X111978000Y-93388571D01*
X111692285Y-93388571D01*
X111549428Y-93317142D01*
X111478000Y-93174285D01*
X111478000Y-93102857D01*
X111549428Y-92960000D01*
X111692285Y-92888571D01*
X111906571Y-92888571D01*
X112049428Y-92817142D01*
X112120857Y-92674285D01*
X112120857Y-92602857D01*
X112049428Y-92460000D01*
X111906571Y-92388571D01*
X111692285Y-92388571D01*
X111549428Y-92460000D01*
X110192285Y-93388571D02*
X110192285Y-91888571D01*
X110192285Y-93317142D02*
X110335142Y-93388571D01*
X110620857Y-93388571D01*
X110763714Y-93317142D01*
X110835142Y-93245714D01*
X110906571Y-93102857D01*
X110906571Y-92674285D01*
X110835142Y-92531428D01*
X110763714Y-92460000D01*
X110620857Y-92388571D01*
X110335142Y-92388571D01*
X110192285Y-92460000D01*
X108835142Y-93388571D02*
X108835142Y-92602857D01*
X108906571Y-92460000D01*
X109049428Y-92388571D01*
X109335142Y-92388571D01*
X109478000Y-92460000D01*
X108835142Y-93317142D02*
X108978000Y-93388571D01*
X109335142Y-93388571D01*
X109478000Y-93317142D01*
X109549428Y-93174285D01*
X109549428Y-93031428D01*
X109478000Y-92888571D01*
X109335142Y-92817142D01*
X108978000Y-92817142D01*
X108835142Y-92745714D01*
X107335142Y-93388571D02*
X108192285Y-93388571D01*
X107763714Y-93388571D02*
X107763714Y-91888571D01*
X107906571Y-92102857D01*
X108049428Y-92245714D01*
X108192285Y-92317142D01*
X111799428Y-95857142D02*
X111656571Y-95928571D01*
X111370857Y-95928571D01*
X111228000Y-95857142D01*
X111156571Y-95714285D01*
X111156571Y-95642857D01*
X111228000Y-95500000D01*
X111370857Y-95428571D01*
X111585142Y-95428571D01*
X111728000Y-95357142D01*
X111799428Y-95214285D01*
X111799428Y-95142857D01*
X111728000Y-95000000D01*
X111585142Y-94928571D01*
X111370857Y-94928571D01*
X111228000Y-95000000D01*
X109870857Y-95857142D02*
X110013714Y-95928571D01*
X110299428Y-95928571D01*
X110442285Y-95857142D01*
X110513714Y-95785714D01*
X110585142Y-95642857D01*
X110585142Y-95214285D01*
X110513714Y-95071428D01*
X110442285Y-95000000D01*
X110299428Y-94928571D01*
X110013714Y-94928571D01*
X109870857Y-95000000D01*
X109013714Y-95928571D02*
X109156571Y-95857142D01*
X109228000Y-95714285D01*
X109228000Y-94428571D01*
X107656571Y-95928571D02*
X108513714Y-95928571D01*
X108085142Y-95928571D02*
X108085142Y-94428571D01*
X108228000Y-94642857D01*
X108370857Y-94785714D01*
X108513714Y-94857142D01*
X111513714Y-89094571D02*
X110585142Y-89094571D01*
X111085142Y-89666000D01*
X110870857Y-89666000D01*
X110728000Y-89737428D01*
X110656571Y-89808857D01*
X110585142Y-89951714D01*
X110585142Y-90308857D01*
X110656571Y-90451714D01*
X110728000Y-90523142D01*
X110870857Y-90594571D01*
X111299428Y-90594571D01*
X111442285Y-90523142D01*
X111513714Y-90451714D01*
X110085142Y-89594571D02*
X109728000Y-90594571D01*
X109370857Y-89594571D01*
X108942285Y-89094571D02*
X108013714Y-89094571D01*
X108513714Y-89666000D01*
X108299428Y-89666000D01*
X108156571Y-89737428D01*
X108085142Y-89808857D01*
X108013714Y-89951714D01*
X108013714Y-90308857D01*
X108085142Y-90451714D01*
X108156571Y-90523142D01*
X108299428Y-90594571D01*
X108728000Y-90594571D01*
X108870857Y-90523142D01*
X108942285Y-90451714D01*
X110763714Y-97468571D02*
X110763714Y-98682857D01*
X110835142Y-98825714D01*
X110906571Y-98897142D01*
X111049428Y-98968571D01*
X111263714Y-98968571D01*
X111406571Y-98897142D01*
X110763714Y-98397142D02*
X110906571Y-98468571D01*
X111192285Y-98468571D01*
X111335142Y-98397142D01*
X111406571Y-98325714D01*
X111478000Y-98182857D01*
X111478000Y-97754285D01*
X111406571Y-97611428D01*
X111335142Y-97540000D01*
X111192285Y-97468571D01*
X110906571Y-97468571D01*
X110763714Y-97540000D01*
X110049428Y-97468571D02*
X110049428Y-98468571D01*
X110049428Y-97611428D02*
X109978000Y-97540000D01*
X109835142Y-97468571D01*
X109620857Y-97468571D01*
X109478000Y-97540000D01*
X109406571Y-97682857D01*
X109406571Y-98468571D01*
X108049428Y-98468571D02*
X108049428Y-96968571D01*
X108049428Y-98397142D02*
X108192285Y-98468571D01*
X108478000Y-98468571D01*
X108620857Y-98397142D01*
X108692285Y-98325714D01*
X108763714Y-98182857D01*
X108763714Y-97754285D01*
X108692285Y-97611428D01*
X108620857Y-97540000D01*
X108478000Y-97468571D01*
X108192285Y-97468571D01*
X108049428Y-97540000D01*
X110902571Y-77640571D02*
X110902571Y-76640571D01*
X110902571Y-76926285D02*
X110831142Y-76783428D01*
X110759714Y-76712000D01*
X110616857Y-76640571D01*
X110474000Y-76640571D01*
X110116857Y-77640571D02*
X109331142Y-76640571D01*
X110116857Y-76640571D02*
X109331142Y-77640571D01*
X108831142Y-76283428D02*
X108759714Y-76212000D01*
X108616857Y-76140571D01*
X108259714Y-76140571D01*
X108116857Y-76212000D01*
X108045428Y-76283428D01*
X107974000Y-76426285D01*
X107974000Y-76569142D01*
X108045428Y-76783428D01*
X108902571Y-77640571D01*
X107974000Y-77640571D01*
X111081142Y-79180571D02*
X110509714Y-79180571D01*
X110866857Y-78680571D02*
X110866857Y-79966285D01*
X110795428Y-80109142D01*
X110652571Y-80180571D01*
X110509714Y-80180571D01*
X110152571Y-80180571D02*
X109366857Y-79180571D01*
X110152571Y-79180571D02*
X109366857Y-80180571D01*
X108866857Y-78823428D02*
X108795428Y-78752000D01*
X108652571Y-78680571D01*
X108295428Y-78680571D01*
X108152571Y-78752000D01*
X108081142Y-78823428D01*
X108009714Y-78966285D01*
X108009714Y-79109142D01*
X108081142Y-79323428D01*
X108938285Y-80180571D01*
X108009714Y-80180571D01*
X110509714Y-81720571D02*
X110509714Y-82934857D01*
X110581142Y-83077714D01*
X110652571Y-83149142D01*
X110795428Y-83220571D01*
X111009714Y-83220571D01*
X111152571Y-83149142D01*
X110509714Y-82649142D02*
X110652571Y-82720571D01*
X110938285Y-82720571D01*
X111081142Y-82649142D01*
X111152571Y-82577714D01*
X111224000Y-82434857D01*
X111224000Y-82006285D01*
X111152571Y-81863428D01*
X111081142Y-81792000D01*
X110938285Y-81720571D01*
X110652571Y-81720571D01*
X110509714Y-81792000D01*
X109795428Y-81720571D02*
X109795428Y-82720571D01*
X109795428Y-81863428D02*
X109724000Y-81792000D01*
X109581142Y-81720571D01*
X109366857Y-81720571D01*
X109224000Y-81792000D01*
X109152571Y-81934857D01*
X109152571Y-82720571D01*
X107795428Y-82720571D02*
X107795428Y-81220571D01*
X107795428Y-82649142D02*
X107938285Y-82720571D01*
X108224000Y-82720571D01*
X108366857Y-82649142D01*
X108438285Y-82577714D01*
X108509714Y-82434857D01*
X108509714Y-82006285D01*
X108438285Y-81863428D01*
X108366857Y-81792000D01*
X108224000Y-81720571D01*
X107938285Y-81720571D01*
X107795428Y-81792000D01*
X110509714Y-66480571D02*
X110509714Y-67694857D01*
X110581142Y-67837714D01*
X110652571Y-67909142D01*
X110795428Y-67980571D01*
X111009714Y-67980571D01*
X111152571Y-67909142D01*
X110509714Y-67409142D02*
X110652571Y-67480571D01*
X110938285Y-67480571D01*
X111081142Y-67409142D01*
X111152571Y-67337714D01*
X111224000Y-67194857D01*
X111224000Y-66766285D01*
X111152571Y-66623428D01*
X111081142Y-66552000D01*
X110938285Y-66480571D01*
X110652571Y-66480571D01*
X110509714Y-66552000D01*
X109795428Y-66480571D02*
X109795428Y-67480571D01*
X109795428Y-66623428D02*
X109724000Y-66552000D01*
X109581142Y-66480571D01*
X109366857Y-66480571D01*
X109224000Y-66552000D01*
X109152571Y-66694857D01*
X109152571Y-67480571D01*
X107795428Y-67480571D02*
X107795428Y-65980571D01*
X107795428Y-67409142D02*
X107938285Y-67480571D01*
X108224000Y-67480571D01*
X108366857Y-67409142D01*
X108438285Y-67337714D01*
X108509714Y-67194857D01*
X108509714Y-66766285D01*
X108438285Y-66623428D01*
X108366857Y-66552000D01*
X108224000Y-66480571D01*
X107938285Y-66480571D01*
X107795428Y-66552000D01*
X111259714Y-58106571D02*
X110331142Y-58106571D01*
X110831142Y-58678000D01*
X110616857Y-58678000D01*
X110474000Y-58749428D01*
X110402571Y-58820857D01*
X110331142Y-58963714D01*
X110331142Y-59320857D01*
X110402571Y-59463714D01*
X110474000Y-59535142D01*
X110616857Y-59606571D01*
X111045428Y-59606571D01*
X111188285Y-59535142D01*
X111259714Y-59463714D01*
X109831142Y-58606571D02*
X109474000Y-59606571D01*
X109116857Y-58606571D01*
X108688285Y-58106571D02*
X107759714Y-58106571D01*
X108259714Y-58678000D01*
X108045428Y-58678000D01*
X107902571Y-58749428D01*
X107831142Y-58820857D01*
X107759714Y-58963714D01*
X107759714Y-59320857D01*
X107831142Y-59463714D01*
X107902571Y-59535142D01*
X108045428Y-59606571D01*
X108474000Y-59606571D01*
X108616857Y-59535142D01*
X108688285Y-59463714D01*
X111081142Y-63940571D02*
X110509714Y-63940571D01*
X110866857Y-63440571D02*
X110866857Y-64726285D01*
X110795428Y-64869142D01*
X110652571Y-64940571D01*
X110509714Y-64940571D01*
X110152571Y-64940571D02*
X109366857Y-63940571D01*
X110152571Y-63940571D02*
X109366857Y-64940571D01*
X108009714Y-64940571D02*
X108866857Y-64940571D01*
X108438285Y-64940571D02*
X108438285Y-63440571D01*
X108581142Y-63654857D01*
X108724000Y-63797714D01*
X108866857Y-63869142D01*
X110902571Y-62400571D02*
X110902571Y-61400571D01*
X110902571Y-61686285D02*
X110831142Y-61543428D01*
X110759714Y-61472000D01*
X110616857Y-61400571D01*
X110474000Y-61400571D01*
X110116857Y-62400571D02*
X109331142Y-61400571D01*
X110116857Y-61400571D02*
X109331142Y-62400571D01*
X107974000Y-62400571D02*
X108831142Y-62400571D01*
X108402571Y-62400571D02*
X108402571Y-60900571D01*
X108545428Y-61114857D01*
X108688285Y-61257714D01*
X108831142Y-61329142D01*
D11*
%TO.C,U4*%
X109982000Y-55482000D02*
X150082000Y-55482000D01*
X150082000Y-122682000D02*
X150082000Y-55482000D01*
X109982000Y-122682000D02*
X150082000Y-122682000D01*
X109982000Y-122682000D02*
X109982000Y-55482000D01*
X111252000Y-108712000D02*
X123952000Y-108712000D01*
X123952000Y-108712000D02*
X126492000Y-106172000D01*
X126492000Y-106172000D02*
X130302000Y-106172000D01*
X130302000Y-106172000D02*
X130302000Y-85852000D01*
X130302000Y-85852000D02*
X111252000Y-85852000D01*
X111252000Y-85852000D02*
X111252000Y-108712000D01*
D12*
X115823904Y-56094380D02*
X115823904Y-56903904D01*
X115776285Y-56999142D01*
X115728666Y-57046761D01*
X115633428Y-57094380D01*
X115442952Y-57094380D01*
X115347714Y-57046761D01*
X115300095Y-56999142D01*
X115252476Y-56903904D01*
X115252476Y-56094380D01*
X114347714Y-56427714D02*
X114347714Y-57094380D01*
X114585809Y-56046761D02*
X114823904Y-56761047D01*
X114204857Y-56761047D01*
%TD*%
M02*
