%TF.GenerationSoftware,KiCad,Pcbnew,(5.1.2)-2*%
%TF.CreationDate,2020-09-07T08:08:20+07:00*%
%TF.ProjectId,ai-hw-elec,61692d68-772d-4656-9c65-632e6b696361,rev?*%
%TF.SameCoordinates,Original*%
%TF.FileFunction,Copper,L2,Bot*%
%TF.FilePolarity,Positive*%
%FSLAX46Y46*%
G04 Gerber Fmt 4.6, Leading zero omitted, Abs format (unit mm)*
G04 Created by KiCad (PCBNEW (5.1.2)-2) date 2020-09-07 08:08:20*
%MOMM*%
%LPD*%
G04 APERTURE LIST*
%TA.AperFunction,ComponentPad*%
%ADD10R,2.000000X2.000000*%
%TD*%
%TA.AperFunction,ComponentPad*%
%ADD11C,2.000000*%
%TD*%
%TA.AperFunction,ComponentPad*%
%ADD12O,2.524000X1.824000*%
%TD*%
%TA.AperFunction,ComponentPad*%
%ADD13R,2.524000X1.824000*%
%TD*%
%TA.AperFunction,ComponentPad*%
%ADD14R,1.700000X1.700000*%
%TD*%
%TA.AperFunction,ComponentPad*%
%ADD15O,1.700000X1.700000*%
%TD*%
%TA.AperFunction,ComponentPad*%
%ADD16C,1.400000*%
%TD*%
%TA.AperFunction,ComponentPad*%
%ADD17O,1.400000X1.400000*%
%TD*%
%TA.AperFunction,ViaPad*%
%ADD18C,0.800000*%
%TD*%
%TA.AperFunction,Conductor*%
%ADD19C,0.250000*%
%TD*%
%TA.AperFunction,Conductor*%
%ADD20C,0.254000*%
%TD*%
G04 APERTURE END LIST*
D10*
%TO.P,U4,1*%
%TO.N,3V3*%
X119872000Y-56982000D03*
D11*
%TO.P,U4,2*%
%TO.N,GND*%
X122412000Y-56982000D03*
%TO.P,U4,3*%
%TO.N,/CS*%
X124952000Y-56982000D03*
%TO.P,U4,4*%
%TO.N,/RESET*%
X127492000Y-56982000D03*
%TO.P,U4,5*%
%TO.N,/RS*%
X130032000Y-56982000D03*
%TO.P,U4,6*%
%TO.N,/LCD-MOSI*%
X132572000Y-56982000D03*
%TO.P,U4,7*%
%TO.N,/LCD-CLK*%
X135112000Y-56982000D03*
%TO.P,U4,8*%
%TO.N,/LED*%
X137652000Y-56982000D03*
%TO.P,U4,9*%
%TO.N,/LCD-MISO*%
X140192000Y-56982000D03*
D10*
%TO.P,U4,10*%
%TO.N,N/C*%
X124952000Y-120502000D03*
D11*
%TO.P,U4,11*%
X127492000Y-120502000D03*
%TO.P,U4,12*%
X130032000Y-120502000D03*
%TO.P,U4,13*%
X132572000Y-120502000D03*
%TO.P,U4,14*%
X135112000Y-120502000D03*
%TD*%
D12*
%TO.P,J2,2*%
%TO.N,GND*%
X145640000Y-114680000D03*
D13*
%TO.P,J2,1*%
%TO.N,12v*%
X145640000Y-117220000D03*
%TD*%
D14*
%TO.P,J1,1*%
%TO.N,/Stm32f103c8tx/SWCLK*%
X140462000Y-84074000D03*
D15*
%TO.P,J1,2*%
%TO.N,/Stm32f103c8tx/SWDIO*%
X143002000Y-84074000D03*
%TO.P,J1,3*%
%TO.N,/Stm32f103c8tx/res*%
X145542000Y-84074000D03*
%TO.P,J1,4*%
%TO.N,GND*%
X148082000Y-84074000D03*
%TD*%
D13*
%TO.P,J3,1*%
%TO.N,3V3*%
X105840000Y-74260000D03*
D12*
%TO.P,J3,2*%
%TO.N,/Stm32f103c8tx/uart1_rx*%
X105840000Y-76800000D03*
%TO.P,J3,3*%
%TO.N,/Stm32f103c8tx/uart1_tx*%
X105840000Y-79340000D03*
%TO.P,J3,4*%
%TO.N,GND*%
X105840000Y-81880000D03*
%TD*%
%TO.P,J4,4*%
%TO.N,GND*%
X105830000Y-66750000D03*
%TO.P,J4,3*%
%TO.N,/Stm32f103c8tx/uart2_tx*%
X105830000Y-64210000D03*
%TO.P,J4,2*%
%TO.N,/Stm32f103c8tx/uart2_rx*%
X105830000Y-61670000D03*
D13*
%TO.P,J4,1*%
%TO.N,3V3*%
X105830000Y-59130000D03*
%TD*%
%TO.P,J5,1*%
%TO.N,3V3*%
X105840000Y-90200000D03*
D12*
%TO.P,J5,2*%
%TO.N,/Stm32f103c8tx/i2c1_sda*%
X105840000Y-92740000D03*
%TO.P,J5,3*%
%TO.N,/Stm32f103c8tx/i2c1_scl*%
X105840000Y-95280000D03*
%TO.P,J5,4*%
%TO.N,GND*%
X105840000Y-97820000D03*
%TD*%
D16*
%TO.P,TH1,1*%
%TO.N,/Stm32f103c8tx/adc_1*%
X138430000Y-79370000D03*
D17*
%TO.P,TH1,2*%
%TO.N,GND*%
X138430000Y-77470000D03*
%TD*%
D18*
%TO.N,GND*%
X137160000Y-72390000D03*
X131572000Y-65278000D03*
X135382000Y-65532000D03*
X142494000Y-63008000D03*
X133604000Y-69088000D03*
X139192000Y-74676000D03*
X124730000Y-63980000D03*
X109120000Y-63160000D03*
X108180000Y-93350000D03*
%TO.N,5v*%
X124714000Y-116586000D03*
X118364000Y-102870000D03*
%TO.N,Net-(C3-Pad2)*%
X134112000Y-107696000D03*
X124714000Y-103886000D03*
%TO.N,12v*%
X118364000Y-111760000D03*
X132080000Y-110236000D03*
%TO.N,3V3*%
X140208000Y-65024000D03*
X144018000Y-56642000D03*
X125476000Y-69422000D03*
X125476000Y-62484000D03*
X140208000Y-69596000D03*
%TO.N,/Stm32f103c8tx/res*%
X141478000Y-59944000D03*
X138938000Y-66040000D03*
X138938000Y-68326000D03*
%TO.N,/Stm32f103c8tx/SWCLK*%
X131064000Y-69088000D03*
%TO.N,/Stm32f103c8tx/SWDIO*%
X131006986Y-67818000D03*
%TO.N,/LCD-MISO*%
X133350000Y-64008000D03*
%TO.N,/Stm32f103c8tx/uart1_rx*%
X127070000Y-66530000D03*
X110920000Y-76400000D03*
%TO.N,/Stm32f103c8tx/uart1_tx*%
X127280000Y-65080000D03*
%TO.N,/Stm32f103c8tx/uart2_tx*%
X137673347Y-61453347D03*
%TO.N,/Stm32f103c8tx/uart2_rx*%
X137580000Y-60050000D03*
%TO.N,/Stm32f103c8tx/i2c1_sda*%
X123497340Y-73377340D03*
%TO.N,/Stm32f103c8tx/i2c1_scl*%
X124710000Y-73370000D03*
%TO.N,/Stm32f103c8tx/adc_1*%
X132080000Y-66802000D03*
%TD*%
D19*
%TO.N,5v*%
X124714000Y-116586000D02*
X124714000Y-109220000D01*
X124714000Y-109220000D02*
X118364000Y-102870000D01*
%TO.N,Net-(C3-Pad2)*%
X134112000Y-107696000D02*
X128524000Y-107696000D01*
X128524000Y-107696000D02*
X124714000Y-103886000D01*
%TO.N,12v*%
X118364000Y-111760000D02*
X118364000Y-114808000D01*
X118364000Y-114808000D02*
X121666000Y-118110000D01*
X121666000Y-118110000D02*
X129540000Y-118110000D01*
X129540000Y-118110000D02*
X132080000Y-115570000D01*
X132080000Y-115570000D02*
X132080000Y-110236000D01*
%TO.N,3V3*%
X140208000Y-65024000D02*
X140208000Y-62287002D01*
X144018000Y-58477002D02*
X144018000Y-56642000D01*
X140208000Y-62287002D02*
X144018000Y-58477002D01*
X140208000Y-65024000D02*
X140208000Y-69596000D01*
X133858000Y-66040000D02*
X137414000Y-69596000D01*
X125476000Y-69422000D02*
X128858000Y-66040000D01*
X137414000Y-69596000D02*
X140208000Y-69596000D01*
X128858000Y-66040000D02*
X133858000Y-66040000D01*
%TO.N,/Stm32f103c8tx/res*%
X141478000Y-59944000D02*
X138938000Y-62484000D01*
X138938000Y-62484000D02*
X138938000Y-66040000D01*
X138938000Y-68326000D02*
X138938000Y-66040000D01*
%TO.N,/Stm32f103c8tx/SWCLK*%
X132334000Y-69088000D02*
X131064000Y-69088000D01*
X140462000Y-84074000D02*
X140462000Y-77216000D01*
X140462000Y-77216000D02*
X132334000Y-69088000D01*
%TO.N,/Stm32f103c8tx/SWDIO*%
X133858000Y-67818000D02*
X131006986Y-67818000D01*
X143002000Y-84074000D02*
X143002000Y-76962000D01*
X143002000Y-76962000D02*
X133858000Y-67818000D01*
%TO.N,/LCD-MISO*%
X136144000Y-64008000D02*
X133350000Y-64008000D01*
X140192000Y-56982000D02*
X140192000Y-59960000D01*
X140192000Y-59960000D02*
X136144000Y-64008000D01*
%TO.N,/Stm32f103c8tx/uart1_rx*%
X110920000Y-75938000D02*
X110920000Y-76400000D01*
X121072000Y-65786000D02*
X110920000Y-75938000D01*
X127070000Y-66530000D02*
X126326000Y-65786000D01*
X126326000Y-65786000D02*
X121072000Y-65786000D01*
%TO.N,/Stm32f103c8tx/uart1_tx*%
X106690000Y-79340000D02*
X105840000Y-79340000D01*
X117440000Y-68560000D02*
X117440000Y-68590000D01*
X117440000Y-68590000D02*
X106690000Y-79340000D01*
X127280000Y-65080000D02*
X120920000Y-65080000D01*
X120920000Y-65080000D02*
X117440000Y-68560000D01*
%TO.N,/Stm32f103c8tx/uart2_tx*%
X110330000Y-64210000D02*
X105830000Y-64210000D01*
X137673347Y-61453347D02*
X113086653Y-61453347D01*
X113086653Y-61453347D02*
X110330000Y-64210000D01*
%TO.N,/Stm32f103c8tx/uart2_rx*%
X112160000Y-60050000D02*
X137580000Y-60050000D01*
X105830000Y-61670000D02*
X110540000Y-61670000D01*
X110540000Y-61670000D02*
X112160000Y-60050000D01*
%TO.N,/Stm32f103c8tx/i2c1_sda*%
X107360000Y-92740000D02*
X108560000Y-91540000D01*
X105840000Y-92740000D02*
X107360000Y-92740000D01*
X108560000Y-91540000D02*
X108560000Y-82593589D01*
X108560000Y-82593589D02*
X117493589Y-73660000D01*
X123214680Y-73660000D02*
X123497340Y-73377340D01*
X117493589Y-73660000D02*
X123214680Y-73660000D01*
%TO.N,/Stm32f103c8tx/i2c1_scl*%
X123834998Y-74245002D02*
X124710000Y-73370000D01*
X107352000Y-95280000D02*
X109220000Y-93412000D01*
X105840000Y-95280000D02*
X107352000Y-95280000D01*
X109220000Y-93412000D02*
X109220000Y-82570000D01*
X109220000Y-82570000D02*
X117544998Y-74245002D01*
X117544998Y-74245002D02*
X123834998Y-74245002D01*
%TO.N,/Stm32f103c8tx/adc_1*%
X130949984Y-66802000D02*
X132080000Y-66802000D01*
X130281985Y-67469999D02*
X130949984Y-66802000D01*
X138430000Y-79370000D02*
X130281985Y-71221985D01*
X130281985Y-71221985D02*
X130281985Y-67469999D01*
%TD*%
D20*
%TO.N,GND*%
G36*
X121551956Y-55582186D02*
G01*
X121456192Y-55846587D01*
X122412000Y-56802395D01*
X123367808Y-55846587D01*
X123272044Y-55582186D01*
X123152436Y-55524000D01*
X149962001Y-55524000D01*
X149962000Y-122530000D01*
X102486000Y-122530000D01*
X102486000Y-119502000D01*
X123569157Y-119502000D01*
X123569157Y-121502000D01*
X123576513Y-121576689D01*
X123598299Y-121648508D01*
X123633678Y-121714696D01*
X123681289Y-121772711D01*
X123739304Y-121820322D01*
X123805492Y-121855701D01*
X123877311Y-121877487D01*
X123952000Y-121884843D01*
X125952000Y-121884843D01*
X126026689Y-121877487D01*
X126098508Y-121855701D01*
X126164696Y-121820322D01*
X126222711Y-121772711D01*
X126270322Y-121714696D01*
X126305701Y-121648508D01*
X126327487Y-121576689D01*
X126334843Y-121502000D01*
X126334843Y-121255926D01*
X126419307Y-121382336D01*
X126611664Y-121574693D01*
X126837851Y-121725826D01*
X127089177Y-121829929D01*
X127355983Y-121883000D01*
X127628017Y-121883000D01*
X127894823Y-121829929D01*
X128146149Y-121725826D01*
X128372336Y-121574693D01*
X128564693Y-121382336D01*
X128715826Y-121156149D01*
X128762000Y-121044675D01*
X128808174Y-121156149D01*
X128959307Y-121382336D01*
X129151664Y-121574693D01*
X129377851Y-121725826D01*
X129629177Y-121829929D01*
X129895983Y-121883000D01*
X130168017Y-121883000D01*
X130434823Y-121829929D01*
X130686149Y-121725826D01*
X130912336Y-121574693D01*
X131104693Y-121382336D01*
X131255826Y-121156149D01*
X131302000Y-121044675D01*
X131348174Y-121156149D01*
X131499307Y-121382336D01*
X131691664Y-121574693D01*
X131917851Y-121725826D01*
X132169177Y-121829929D01*
X132435983Y-121883000D01*
X132708017Y-121883000D01*
X132974823Y-121829929D01*
X133226149Y-121725826D01*
X133452336Y-121574693D01*
X133644693Y-121382336D01*
X133795826Y-121156149D01*
X133842000Y-121044675D01*
X133888174Y-121156149D01*
X134039307Y-121382336D01*
X134231664Y-121574693D01*
X134457851Y-121725826D01*
X134709177Y-121829929D01*
X134975983Y-121883000D01*
X135248017Y-121883000D01*
X135514823Y-121829929D01*
X135766149Y-121725826D01*
X135992336Y-121574693D01*
X136184693Y-121382336D01*
X136335826Y-121156149D01*
X136439929Y-120904823D01*
X136493000Y-120638017D01*
X136493000Y-120365983D01*
X136439929Y-120099177D01*
X136335826Y-119847851D01*
X136184693Y-119621664D01*
X135992336Y-119429307D01*
X135766149Y-119278174D01*
X135514823Y-119174071D01*
X135248017Y-119121000D01*
X134975983Y-119121000D01*
X134709177Y-119174071D01*
X134457851Y-119278174D01*
X134231664Y-119429307D01*
X134039307Y-119621664D01*
X133888174Y-119847851D01*
X133842000Y-119959325D01*
X133795826Y-119847851D01*
X133644693Y-119621664D01*
X133452336Y-119429307D01*
X133226149Y-119278174D01*
X132974823Y-119174071D01*
X132708017Y-119121000D01*
X132435983Y-119121000D01*
X132169177Y-119174071D01*
X131917851Y-119278174D01*
X131691664Y-119429307D01*
X131499307Y-119621664D01*
X131348174Y-119847851D01*
X131302000Y-119959325D01*
X131255826Y-119847851D01*
X131104693Y-119621664D01*
X130912336Y-119429307D01*
X130686149Y-119278174D01*
X130434823Y-119174071D01*
X130168017Y-119121000D01*
X129895983Y-119121000D01*
X129629177Y-119174071D01*
X129377851Y-119278174D01*
X129151664Y-119429307D01*
X128959307Y-119621664D01*
X128808174Y-119847851D01*
X128762000Y-119959325D01*
X128715826Y-119847851D01*
X128564693Y-119621664D01*
X128372336Y-119429307D01*
X128146149Y-119278174D01*
X127894823Y-119174071D01*
X127628017Y-119121000D01*
X127355983Y-119121000D01*
X127089177Y-119174071D01*
X126837851Y-119278174D01*
X126611664Y-119429307D01*
X126419307Y-119621664D01*
X126334843Y-119748074D01*
X126334843Y-119502000D01*
X126327487Y-119427311D01*
X126305701Y-119355492D01*
X126270322Y-119289304D01*
X126222711Y-119231289D01*
X126164696Y-119183678D01*
X126098508Y-119148299D01*
X126026689Y-119126513D01*
X125952000Y-119119157D01*
X123952000Y-119119157D01*
X123877311Y-119126513D01*
X123805492Y-119148299D01*
X123739304Y-119183678D01*
X123681289Y-119231289D01*
X123633678Y-119289304D01*
X123598299Y-119355492D01*
X123576513Y-119427311D01*
X123569157Y-119502000D01*
X102486000Y-119502000D01*
X102486000Y-111683078D01*
X117583000Y-111683078D01*
X117583000Y-111836922D01*
X117613013Y-111987809D01*
X117671887Y-112129942D01*
X117757358Y-112257859D01*
X117858000Y-112358501D01*
X117858001Y-114783144D01*
X117855553Y-114808000D01*
X117865322Y-114907192D01*
X117894255Y-115002574D01*
X117894256Y-115002575D01*
X117941242Y-115090479D01*
X118004474Y-115167527D01*
X118023781Y-115183372D01*
X121290628Y-118450220D01*
X121306473Y-118469527D01*
X121383521Y-118532759D01*
X121471425Y-118579745D01*
X121566806Y-118608678D01*
X121576694Y-118609652D01*
X121641146Y-118616000D01*
X121641153Y-118616000D01*
X121665999Y-118618447D01*
X121690845Y-118616000D01*
X129515154Y-118616000D01*
X129540000Y-118618447D01*
X129564846Y-118616000D01*
X129564854Y-118616000D01*
X129639193Y-118608678D01*
X129734575Y-118579745D01*
X129822479Y-118532759D01*
X129899527Y-118469527D01*
X129915376Y-118450215D01*
X132420220Y-115945372D01*
X132439527Y-115929527D01*
X132502759Y-115852479D01*
X132549745Y-115764575D01*
X132578678Y-115669193D01*
X132586000Y-115594854D01*
X132586000Y-115594847D01*
X132588447Y-115570001D01*
X132586000Y-115545155D01*
X132586000Y-115046624D01*
X143787071Y-115046624D01*
X143812158Y-115154679D01*
X143933160Y-115433871D01*
X144106304Y-115684092D01*
X144324937Y-115895726D01*
X144371557Y-115925792D01*
X144303311Y-115932513D01*
X144231492Y-115954299D01*
X144165304Y-115989678D01*
X144107289Y-116037289D01*
X144059678Y-116095304D01*
X144024299Y-116161492D01*
X144002513Y-116233311D01*
X143995157Y-116308000D01*
X143995157Y-118132000D01*
X144002513Y-118206689D01*
X144024299Y-118278508D01*
X144059678Y-118344696D01*
X144107289Y-118402711D01*
X144165304Y-118450322D01*
X144231492Y-118485701D01*
X144303311Y-118507487D01*
X144378000Y-118514843D01*
X146902000Y-118514843D01*
X146976689Y-118507487D01*
X147048508Y-118485701D01*
X147114696Y-118450322D01*
X147172711Y-118402711D01*
X147220322Y-118344696D01*
X147255701Y-118278508D01*
X147277487Y-118206689D01*
X147284843Y-118132000D01*
X147284843Y-116308000D01*
X147277487Y-116233311D01*
X147255701Y-116161492D01*
X147220322Y-116095304D01*
X147172711Y-116037289D01*
X147114696Y-115989678D01*
X147048508Y-115954299D01*
X146976689Y-115932513D01*
X146908443Y-115925792D01*
X146955063Y-115895726D01*
X147173696Y-115684092D01*
X147346840Y-115433871D01*
X147467842Y-115154679D01*
X147492929Y-115046624D01*
X147372429Y-114807000D01*
X145767000Y-114807000D01*
X145767000Y-114827000D01*
X145513000Y-114827000D01*
X145513000Y-114807000D01*
X143907571Y-114807000D01*
X143787071Y-115046624D01*
X132586000Y-115046624D01*
X132586000Y-114313376D01*
X143787071Y-114313376D01*
X143907571Y-114553000D01*
X145513000Y-114553000D01*
X145513000Y-113133000D01*
X145767000Y-113133000D01*
X145767000Y-114553000D01*
X147372429Y-114553000D01*
X147492929Y-114313376D01*
X147467842Y-114205321D01*
X147346840Y-113926129D01*
X147173696Y-113675908D01*
X146955063Y-113464274D01*
X146699343Y-113299359D01*
X146416364Y-113187502D01*
X146117000Y-113133000D01*
X145767000Y-113133000D01*
X145513000Y-113133000D01*
X145163000Y-113133000D01*
X144863636Y-113187502D01*
X144580657Y-113299359D01*
X144324937Y-113464274D01*
X144106304Y-113675908D01*
X143933160Y-113926129D01*
X143812158Y-114205321D01*
X143787071Y-114313376D01*
X132586000Y-114313376D01*
X132586000Y-110834501D01*
X132686642Y-110733859D01*
X132772113Y-110605942D01*
X132830987Y-110463809D01*
X132861000Y-110312922D01*
X132861000Y-110159078D01*
X132830987Y-110008191D01*
X132772113Y-109866058D01*
X132686642Y-109738141D01*
X132577859Y-109629358D01*
X132449942Y-109543887D01*
X132307809Y-109485013D01*
X132156922Y-109455000D01*
X132003078Y-109455000D01*
X131852191Y-109485013D01*
X131710058Y-109543887D01*
X131582141Y-109629358D01*
X131473358Y-109738141D01*
X131387887Y-109866058D01*
X131329013Y-110008191D01*
X131299000Y-110159078D01*
X131299000Y-110312922D01*
X131329013Y-110463809D01*
X131387887Y-110605942D01*
X131473358Y-110733859D01*
X131574001Y-110834502D01*
X131574000Y-115360408D01*
X129330409Y-117604000D01*
X121875592Y-117604000D01*
X118870000Y-114598409D01*
X118870000Y-112358501D01*
X118970642Y-112257859D01*
X119056113Y-112129942D01*
X119114987Y-111987809D01*
X119145000Y-111836922D01*
X119145000Y-111683078D01*
X119114987Y-111532191D01*
X119056113Y-111390058D01*
X118970642Y-111262141D01*
X118861859Y-111153358D01*
X118733942Y-111067887D01*
X118591809Y-111009013D01*
X118440922Y-110979000D01*
X118287078Y-110979000D01*
X118136191Y-111009013D01*
X117994058Y-111067887D01*
X117866141Y-111153358D01*
X117757358Y-111262141D01*
X117671887Y-111390058D01*
X117613013Y-111532191D01*
X117583000Y-111683078D01*
X102486000Y-111683078D01*
X102486000Y-102793078D01*
X117583000Y-102793078D01*
X117583000Y-102946922D01*
X117613013Y-103097809D01*
X117671887Y-103239942D01*
X117757358Y-103367859D01*
X117866141Y-103476642D01*
X117994058Y-103562113D01*
X118136191Y-103620987D01*
X118287078Y-103651000D01*
X118429409Y-103651000D01*
X124208001Y-109429593D01*
X124208000Y-115987499D01*
X124107358Y-116088141D01*
X124021887Y-116216058D01*
X123963013Y-116358191D01*
X123933000Y-116509078D01*
X123933000Y-116662922D01*
X123963013Y-116813809D01*
X124021887Y-116955942D01*
X124107358Y-117083859D01*
X124216141Y-117192642D01*
X124344058Y-117278113D01*
X124486191Y-117336987D01*
X124637078Y-117367000D01*
X124790922Y-117367000D01*
X124941809Y-117336987D01*
X125083942Y-117278113D01*
X125211859Y-117192642D01*
X125320642Y-117083859D01*
X125406113Y-116955942D01*
X125464987Y-116813809D01*
X125495000Y-116662922D01*
X125495000Y-116509078D01*
X125464987Y-116358191D01*
X125406113Y-116216058D01*
X125320642Y-116088141D01*
X125220000Y-115987499D01*
X125220000Y-109244845D01*
X125222447Y-109219999D01*
X125220000Y-109195153D01*
X125220000Y-109195146D01*
X125212678Y-109120807D01*
X125183745Y-109025425D01*
X125136759Y-108937521D01*
X125073527Y-108860473D01*
X125054220Y-108844628D01*
X120018670Y-103809078D01*
X123933000Y-103809078D01*
X123933000Y-103962922D01*
X123963013Y-104113809D01*
X124021887Y-104255942D01*
X124107358Y-104383859D01*
X124216141Y-104492642D01*
X124344058Y-104578113D01*
X124486191Y-104636987D01*
X124637078Y-104667000D01*
X124779409Y-104667000D01*
X128148628Y-108036220D01*
X128164473Y-108055527D01*
X128241521Y-108118759D01*
X128329425Y-108165745D01*
X128424807Y-108194678D01*
X128524000Y-108204448D01*
X128548854Y-108202000D01*
X133513499Y-108202000D01*
X133614141Y-108302642D01*
X133742058Y-108388113D01*
X133884191Y-108446987D01*
X134035078Y-108477000D01*
X134188922Y-108477000D01*
X134339809Y-108446987D01*
X134481942Y-108388113D01*
X134609859Y-108302642D01*
X134718642Y-108193859D01*
X134804113Y-108065942D01*
X134862987Y-107923809D01*
X134893000Y-107772922D01*
X134893000Y-107619078D01*
X134862987Y-107468191D01*
X134804113Y-107326058D01*
X134718642Y-107198141D01*
X134609859Y-107089358D01*
X134481942Y-107003887D01*
X134339809Y-106945013D01*
X134188922Y-106915000D01*
X134035078Y-106915000D01*
X133884191Y-106945013D01*
X133742058Y-107003887D01*
X133614141Y-107089358D01*
X133513499Y-107190000D01*
X128733592Y-107190000D01*
X125495000Y-103951409D01*
X125495000Y-103809078D01*
X125464987Y-103658191D01*
X125406113Y-103516058D01*
X125320642Y-103388141D01*
X125211859Y-103279358D01*
X125083942Y-103193887D01*
X124941809Y-103135013D01*
X124790922Y-103105000D01*
X124637078Y-103105000D01*
X124486191Y-103135013D01*
X124344058Y-103193887D01*
X124216141Y-103279358D01*
X124107358Y-103388141D01*
X124021887Y-103516058D01*
X123963013Y-103658191D01*
X123933000Y-103809078D01*
X120018670Y-103809078D01*
X119145000Y-102935409D01*
X119145000Y-102793078D01*
X119114987Y-102642191D01*
X119056113Y-102500058D01*
X118970642Y-102372141D01*
X118861859Y-102263358D01*
X118733942Y-102177887D01*
X118591809Y-102119013D01*
X118440922Y-102089000D01*
X118287078Y-102089000D01*
X118136191Y-102119013D01*
X117994058Y-102177887D01*
X117866141Y-102263358D01*
X117757358Y-102372141D01*
X117671887Y-102500058D01*
X117613013Y-102642191D01*
X117583000Y-102793078D01*
X102486000Y-102793078D01*
X102486000Y-98186624D01*
X103987071Y-98186624D01*
X104012158Y-98294679D01*
X104133160Y-98573871D01*
X104306304Y-98824092D01*
X104524937Y-99035726D01*
X104780657Y-99200641D01*
X105063636Y-99312498D01*
X105363000Y-99367000D01*
X105713000Y-99367000D01*
X105713000Y-97947000D01*
X105967000Y-97947000D01*
X105967000Y-99367000D01*
X106317000Y-99367000D01*
X106616364Y-99312498D01*
X106899343Y-99200641D01*
X107155063Y-99035726D01*
X107373696Y-98824092D01*
X107546840Y-98573871D01*
X107667842Y-98294679D01*
X107692929Y-98186624D01*
X107572429Y-97947000D01*
X105967000Y-97947000D01*
X105713000Y-97947000D01*
X104107571Y-97947000D01*
X103987071Y-98186624D01*
X102486000Y-98186624D01*
X102486000Y-97453376D01*
X103987071Y-97453376D01*
X104107571Y-97693000D01*
X105713000Y-97693000D01*
X105713000Y-97673000D01*
X105967000Y-97673000D01*
X105967000Y-97693000D01*
X107572429Y-97693000D01*
X107692929Y-97453376D01*
X107667842Y-97345321D01*
X107546840Y-97066129D01*
X107373696Y-96815908D01*
X107155063Y-96604274D01*
X106899343Y-96439359D01*
X106821483Y-96408582D01*
X106911828Y-96360292D01*
X107108713Y-96198713D01*
X107270292Y-96001828D01*
X107386144Y-95785085D01*
X107451193Y-95778678D01*
X107546575Y-95749745D01*
X107634479Y-95702759D01*
X107711527Y-95639527D01*
X107727376Y-95620215D01*
X109560220Y-93787372D01*
X109579527Y-93771527D01*
X109642759Y-93694479D01*
X109689745Y-93606575D01*
X109718678Y-93511193D01*
X109726000Y-93436854D01*
X109726000Y-93436853D01*
X109728448Y-93412000D01*
X109726000Y-93387146D01*
X109726000Y-82779591D01*
X117754590Y-74751002D01*
X123810152Y-74751002D01*
X123834998Y-74753449D01*
X123859844Y-74751002D01*
X123859852Y-74751002D01*
X123934191Y-74743680D01*
X124029573Y-74714747D01*
X124117477Y-74667761D01*
X124194525Y-74604529D01*
X124210374Y-74585217D01*
X124644592Y-74151000D01*
X124786922Y-74151000D01*
X124937809Y-74120987D01*
X125079942Y-74062113D01*
X125207859Y-73976642D01*
X125316642Y-73867859D01*
X125402113Y-73739942D01*
X125460987Y-73597809D01*
X125491000Y-73446922D01*
X125491000Y-73293078D01*
X125460987Y-73142191D01*
X125402113Y-73000058D01*
X125316642Y-72872141D01*
X125207859Y-72763358D01*
X125079942Y-72677887D01*
X124937809Y-72619013D01*
X124786922Y-72589000D01*
X124633078Y-72589000D01*
X124482191Y-72619013D01*
X124340058Y-72677887D01*
X124212141Y-72763358D01*
X124103358Y-72872141D01*
X124100668Y-72876167D01*
X123995199Y-72770698D01*
X123867282Y-72685227D01*
X123725149Y-72626353D01*
X123574262Y-72596340D01*
X123420418Y-72596340D01*
X123269531Y-72626353D01*
X123127398Y-72685227D01*
X122999481Y-72770698D01*
X122890698Y-72879481D01*
X122805227Y-73007398D01*
X122746353Y-73149531D01*
X122745464Y-73154000D01*
X117518443Y-73154000D01*
X117493589Y-73151552D01*
X117468735Y-73154000D01*
X117394396Y-73161322D01*
X117299014Y-73190255D01*
X117211110Y-73237241D01*
X117134062Y-73300473D01*
X117118218Y-73319779D01*
X108219781Y-82218217D01*
X108200474Y-82234062D01*
X108137242Y-82311110D01*
X108113954Y-82354679D01*
X108090255Y-82399015D01*
X108061322Y-82494397D01*
X108051553Y-82593589D01*
X108054001Y-82618445D01*
X108054000Y-91330408D01*
X107303712Y-92080697D01*
X107270292Y-92018172D01*
X107108713Y-91821287D01*
X106911828Y-91659708D01*
X106687204Y-91539644D01*
X106539514Y-91494843D01*
X107102000Y-91494843D01*
X107176689Y-91487487D01*
X107248508Y-91465701D01*
X107314696Y-91430322D01*
X107372711Y-91382711D01*
X107420322Y-91324696D01*
X107455701Y-91258508D01*
X107477487Y-91186689D01*
X107484843Y-91112000D01*
X107484843Y-89288000D01*
X107477487Y-89213311D01*
X107455701Y-89141492D01*
X107420322Y-89075304D01*
X107372711Y-89017289D01*
X107314696Y-88969678D01*
X107248508Y-88934299D01*
X107176689Y-88912513D01*
X107102000Y-88905157D01*
X104578000Y-88905157D01*
X104503311Y-88912513D01*
X104431492Y-88934299D01*
X104365304Y-88969678D01*
X104307289Y-89017289D01*
X104259678Y-89075304D01*
X104224299Y-89141492D01*
X104202513Y-89213311D01*
X104195157Y-89288000D01*
X104195157Y-91112000D01*
X104202513Y-91186689D01*
X104224299Y-91258508D01*
X104259678Y-91324696D01*
X104307289Y-91382711D01*
X104365304Y-91430322D01*
X104431492Y-91465701D01*
X104503311Y-91487487D01*
X104578000Y-91494843D01*
X105140486Y-91494843D01*
X104992796Y-91539644D01*
X104768172Y-91659708D01*
X104571287Y-91821287D01*
X104409708Y-92018172D01*
X104289644Y-92242796D01*
X104215709Y-92486528D01*
X104190744Y-92740000D01*
X104215709Y-92993472D01*
X104289644Y-93237204D01*
X104409708Y-93461828D01*
X104571287Y-93658713D01*
X104768172Y-93820292D01*
X104992796Y-93940356D01*
X105222382Y-94010000D01*
X104992796Y-94079644D01*
X104768172Y-94199708D01*
X104571287Y-94361287D01*
X104409708Y-94558172D01*
X104289644Y-94782796D01*
X104215709Y-95026528D01*
X104190744Y-95280000D01*
X104215709Y-95533472D01*
X104289644Y-95777204D01*
X104409708Y-96001828D01*
X104571287Y-96198713D01*
X104768172Y-96360292D01*
X104858517Y-96408582D01*
X104780657Y-96439359D01*
X104524937Y-96604274D01*
X104306304Y-96815908D01*
X104133160Y-97066129D01*
X104012158Y-97345321D01*
X103987071Y-97453376D01*
X102486000Y-97453376D01*
X102486000Y-82246624D01*
X103987071Y-82246624D01*
X104012158Y-82354679D01*
X104133160Y-82633871D01*
X104306304Y-82884092D01*
X104524937Y-83095726D01*
X104780657Y-83260641D01*
X105063636Y-83372498D01*
X105363000Y-83427000D01*
X105713000Y-83427000D01*
X105713000Y-82007000D01*
X105967000Y-82007000D01*
X105967000Y-83427000D01*
X106317000Y-83427000D01*
X106616364Y-83372498D01*
X106899343Y-83260641D01*
X107155063Y-83095726D01*
X107373696Y-82884092D01*
X107546840Y-82633871D01*
X107667842Y-82354679D01*
X107692929Y-82246624D01*
X107572429Y-82007000D01*
X105967000Y-82007000D01*
X105713000Y-82007000D01*
X104107571Y-82007000D01*
X103987071Y-82246624D01*
X102486000Y-82246624D01*
X102486000Y-67116624D01*
X103977071Y-67116624D01*
X104002158Y-67224679D01*
X104123160Y-67503871D01*
X104296304Y-67754092D01*
X104514937Y-67965726D01*
X104770657Y-68130641D01*
X105053636Y-68242498D01*
X105353000Y-68297000D01*
X105703000Y-68297000D01*
X105703000Y-66877000D01*
X105957000Y-66877000D01*
X105957000Y-68297000D01*
X106307000Y-68297000D01*
X106606364Y-68242498D01*
X106889343Y-68130641D01*
X107145063Y-67965726D01*
X107363696Y-67754092D01*
X107536840Y-67503871D01*
X107657842Y-67224679D01*
X107682929Y-67116624D01*
X107562429Y-66877000D01*
X105957000Y-66877000D01*
X105703000Y-66877000D01*
X104097571Y-66877000D01*
X103977071Y-67116624D01*
X102486000Y-67116624D01*
X102486000Y-66383376D01*
X103977071Y-66383376D01*
X104097571Y-66623000D01*
X105703000Y-66623000D01*
X105703000Y-66603000D01*
X105957000Y-66603000D01*
X105957000Y-66623000D01*
X107562429Y-66623000D01*
X107682929Y-66383376D01*
X107657842Y-66275321D01*
X107536840Y-65996129D01*
X107363696Y-65745908D01*
X107145063Y-65534274D01*
X106889343Y-65369359D01*
X106811483Y-65338582D01*
X106901828Y-65290292D01*
X107098713Y-65128713D01*
X107260292Y-64931828D01*
X107375654Y-64716000D01*
X110305154Y-64716000D01*
X110330000Y-64718447D01*
X110354846Y-64716000D01*
X110354854Y-64716000D01*
X110429193Y-64708678D01*
X110524575Y-64679745D01*
X110612479Y-64632759D01*
X110689527Y-64569527D01*
X110705376Y-64550215D01*
X113296245Y-61959347D01*
X124896152Y-61959347D01*
X124869358Y-61986141D01*
X124783887Y-62114058D01*
X124725013Y-62256191D01*
X124695000Y-62407078D01*
X124695000Y-62560922D01*
X124725013Y-62711809D01*
X124783887Y-62853942D01*
X124869358Y-62981859D01*
X124978141Y-63090642D01*
X125106058Y-63176113D01*
X125248191Y-63234987D01*
X125399078Y-63265000D01*
X125552922Y-63265000D01*
X125703809Y-63234987D01*
X125845942Y-63176113D01*
X125973859Y-63090642D01*
X126082642Y-62981859D01*
X126168113Y-62853942D01*
X126226987Y-62711809D01*
X126257000Y-62560922D01*
X126257000Y-62407078D01*
X126226987Y-62256191D01*
X126168113Y-62114058D01*
X126082642Y-61986141D01*
X126055848Y-61959347D01*
X137074846Y-61959347D01*
X137175488Y-62059989D01*
X137295938Y-62140471D01*
X135934409Y-63502000D01*
X133948501Y-63502000D01*
X133847859Y-63401358D01*
X133719942Y-63315887D01*
X133577809Y-63257013D01*
X133426922Y-63227000D01*
X133273078Y-63227000D01*
X133122191Y-63257013D01*
X132980058Y-63315887D01*
X132852141Y-63401358D01*
X132743358Y-63510141D01*
X132657887Y-63638058D01*
X132599013Y-63780191D01*
X132569000Y-63931078D01*
X132569000Y-64084922D01*
X132599013Y-64235809D01*
X132657887Y-64377942D01*
X132743358Y-64505859D01*
X132852141Y-64614642D01*
X132980058Y-64700113D01*
X133122191Y-64758987D01*
X133273078Y-64789000D01*
X133426922Y-64789000D01*
X133577809Y-64758987D01*
X133719942Y-64700113D01*
X133847859Y-64614642D01*
X133948501Y-64514000D01*
X136119154Y-64514000D01*
X136144000Y-64516447D01*
X136168846Y-64514000D01*
X136168854Y-64514000D01*
X136243193Y-64506678D01*
X136338575Y-64477745D01*
X136426479Y-64430759D01*
X136503527Y-64367527D01*
X136519376Y-64348215D01*
X138434574Y-62433018D01*
X138432000Y-62459147D01*
X138432000Y-62459154D01*
X138429553Y-62484000D01*
X138432000Y-62508846D01*
X138432001Y-65441498D01*
X138331358Y-65542141D01*
X138245887Y-65670058D01*
X138187013Y-65812191D01*
X138157000Y-65963078D01*
X138157000Y-66116922D01*
X138187013Y-66267809D01*
X138245887Y-66409942D01*
X138331358Y-66537859D01*
X138432001Y-66638502D01*
X138432000Y-67727499D01*
X138331358Y-67828141D01*
X138245887Y-67956058D01*
X138187013Y-68098191D01*
X138157000Y-68249078D01*
X138157000Y-68402922D01*
X138187013Y-68553809D01*
X138245887Y-68695942D01*
X138331358Y-68823859D01*
X138440141Y-68932642D01*
X138568058Y-69018113D01*
X138710191Y-69076987D01*
X138775612Y-69090000D01*
X137623592Y-69090000D01*
X134233376Y-65699785D01*
X134217527Y-65680473D01*
X134140479Y-65617241D01*
X134052575Y-65570255D01*
X133957193Y-65541322D01*
X133882854Y-65534000D01*
X133882846Y-65534000D01*
X133858000Y-65531553D01*
X133833154Y-65534000D01*
X128882845Y-65534000D01*
X128857999Y-65531553D01*
X128833153Y-65534000D01*
X128833146Y-65534000D01*
X128768694Y-65540348D01*
X128758806Y-65541322D01*
X128736607Y-65548056D01*
X128663425Y-65570255D01*
X128575521Y-65617241D01*
X128498473Y-65680473D01*
X128482628Y-65699780D01*
X127830814Y-66351594D01*
X127820987Y-66302191D01*
X127762113Y-66160058D01*
X127676642Y-66032141D01*
X127567859Y-65923358D01*
X127447553Y-65842973D01*
X127507809Y-65830987D01*
X127649942Y-65772113D01*
X127777859Y-65686642D01*
X127886642Y-65577859D01*
X127972113Y-65449942D01*
X128030987Y-65307809D01*
X128061000Y-65156922D01*
X128061000Y-65003078D01*
X128030987Y-64852191D01*
X127972113Y-64710058D01*
X127886642Y-64582141D01*
X127777859Y-64473358D01*
X127649942Y-64387887D01*
X127507809Y-64329013D01*
X127356922Y-64299000D01*
X127203078Y-64299000D01*
X127052191Y-64329013D01*
X126910058Y-64387887D01*
X126782141Y-64473358D01*
X126681499Y-64574000D01*
X120944845Y-64574000D01*
X120919999Y-64571553D01*
X120895153Y-64574000D01*
X120895146Y-64574000D01*
X120830694Y-64580348D01*
X120820806Y-64581322D01*
X120755141Y-64601241D01*
X120725425Y-64610255D01*
X120637521Y-64657241D01*
X120560473Y-64720473D01*
X120544628Y-64739780D01*
X117099785Y-68184624D01*
X117080473Y-68200473D01*
X117017241Y-68277521D01*
X116994682Y-68319726D01*
X106990300Y-78324109D01*
X106911828Y-78259708D01*
X106687204Y-78139644D01*
X106457618Y-78070000D01*
X106687204Y-78000356D01*
X106911828Y-77880292D01*
X107108713Y-77718713D01*
X107270292Y-77521828D01*
X107390356Y-77297204D01*
X107464291Y-77053472D01*
X107489256Y-76800000D01*
X107464291Y-76546528D01*
X107390356Y-76302796D01*
X107270292Y-76078172D01*
X107108713Y-75881287D01*
X106911828Y-75719708D01*
X106687204Y-75599644D01*
X106539514Y-75554843D01*
X107102000Y-75554843D01*
X107176689Y-75547487D01*
X107248508Y-75525701D01*
X107314696Y-75490322D01*
X107372711Y-75442711D01*
X107420322Y-75384696D01*
X107455701Y-75318508D01*
X107477487Y-75246689D01*
X107484843Y-75172000D01*
X107484843Y-73348000D01*
X107477487Y-73273311D01*
X107455701Y-73201492D01*
X107420322Y-73135304D01*
X107372711Y-73077289D01*
X107314696Y-73029678D01*
X107248508Y-72994299D01*
X107176689Y-72972513D01*
X107102000Y-72965157D01*
X104578000Y-72965157D01*
X104503311Y-72972513D01*
X104431492Y-72994299D01*
X104365304Y-73029678D01*
X104307289Y-73077289D01*
X104259678Y-73135304D01*
X104224299Y-73201492D01*
X104202513Y-73273311D01*
X104195157Y-73348000D01*
X104195157Y-75172000D01*
X104202513Y-75246689D01*
X104224299Y-75318508D01*
X104259678Y-75384696D01*
X104307289Y-75442711D01*
X104365304Y-75490322D01*
X104431492Y-75525701D01*
X104503311Y-75547487D01*
X104578000Y-75554843D01*
X105140486Y-75554843D01*
X104992796Y-75599644D01*
X104768172Y-75719708D01*
X104571287Y-75881287D01*
X104409708Y-76078172D01*
X104289644Y-76302796D01*
X104215709Y-76546528D01*
X104190744Y-76800000D01*
X104215709Y-77053472D01*
X104289644Y-77297204D01*
X104409708Y-77521828D01*
X104571287Y-77718713D01*
X104768172Y-77880292D01*
X104992796Y-78000356D01*
X105222382Y-78070000D01*
X104992796Y-78139644D01*
X104768172Y-78259708D01*
X104571287Y-78421287D01*
X104409708Y-78618172D01*
X104289644Y-78842796D01*
X104215709Y-79086528D01*
X104190744Y-79340000D01*
X104215709Y-79593472D01*
X104289644Y-79837204D01*
X104409708Y-80061828D01*
X104571287Y-80258713D01*
X104768172Y-80420292D01*
X104858517Y-80468582D01*
X104780657Y-80499359D01*
X104524937Y-80664274D01*
X104306304Y-80875908D01*
X104133160Y-81126129D01*
X104012158Y-81405321D01*
X103987071Y-81513376D01*
X104107571Y-81753000D01*
X105713000Y-81753000D01*
X105713000Y-81733000D01*
X105967000Y-81733000D01*
X105967000Y-81753000D01*
X107572429Y-81753000D01*
X107692929Y-81513376D01*
X107667842Y-81405321D01*
X107546840Y-81126129D01*
X107373696Y-80875908D01*
X107155063Y-80664274D01*
X106899343Y-80499359D01*
X106821483Y-80468582D01*
X106911828Y-80420292D01*
X107108713Y-80258713D01*
X107270292Y-80061828D01*
X107390356Y-79837204D01*
X107464291Y-79593472D01*
X107489256Y-79340000D01*
X107481754Y-79263837D01*
X110160513Y-76585078D01*
X110169013Y-76627809D01*
X110227887Y-76769942D01*
X110313358Y-76897859D01*
X110422141Y-77006642D01*
X110550058Y-77092113D01*
X110692191Y-77150987D01*
X110843078Y-77181000D01*
X110996922Y-77181000D01*
X111147809Y-77150987D01*
X111289942Y-77092113D01*
X111417859Y-77006642D01*
X111526642Y-76897859D01*
X111612113Y-76769942D01*
X111670987Y-76627809D01*
X111701000Y-76476922D01*
X111701000Y-76323078D01*
X111670987Y-76172191D01*
X111612113Y-76030058D01*
X111584644Y-75988947D01*
X121281592Y-66292000D01*
X126116409Y-66292000D01*
X126289000Y-66464591D01*
X126289000Y-66606922D01*
X126319013Y-66757809D01*
X126377887Y-66899942D01*
X126463358Y-67027859D01*
X126572141Y-67136642D01*
X126700058Y-67222113D01*
X126842191Y-67280987D01*
X126891595Y-67290814D01*
X125541409Y-68641000D01*
X125399078Y-68641000D01*
X125248191Y-68671013D01*
X125106058Y-68729887D01*
X124978141Y-68815358D01*
X124869358Y-68924141D01*
X124783887Y-69052058D01*
X124725013Y-69194191D01*
X124695000Y-69345078D01*
X124695000Y-69498922D01*
X124725013Y-69649809D01*
X124783887Y-69791942D01*
X124869358Y-69919859D01*
X124978141Y-70028642D01*
X125106058Y-70114113D01*
X125248191Y-70172987D01*
X125399078Y-70203000D01*
X125552922Y-70203000D01*
X125703809Y-70172987D01*
X125845942Y-70114113D01*
X125973859Y-70028642D01*
X126082642Y-69919859D01*
X126168113Y-69791942D01*
X126226987Y-69649809D01*
X126257000Y-69498922D01*
X126257000Y-69356591D01*
X129067592Y-66546000D01*
X130490392Y-66546000D01*
X129941765Y-67094628D01*
X129922459Y-67110472D01*
X129859227Y-67187520D01*
X129846485Y-67211358D01*
X129812240Y-67275425D01*
X129783307Y-67370807D01*
X129773538Y-67469999D01*
X129775986Y-67494855D01*
X129775985Y-71197139D01*
X129773538Y-71221985D01*
X129775985Y-71246831D01*
X129775985Y-71246838D01*
X129783307Y-71321177D01*
X129812240Y-71416559D01*
X129859226Y-71504464D01*
X129922458Y-71581512D01*
X129941770Y-71597361D01*
X137393047Y-79048639D01*
X137390543Y-79054684D01*
X137349000Y-79263531D01*
X137349000Y-79476469D01*
X137390543Y-79685316D01*
X137472031Y-79882045D01*
X137590333Y-80059097D01*
X137740903Y-80209667D01*
X137917955Y-80327969D01*
X138114684Y-80409457D01*
X138323531Y-80451000D01*
X138536469Y-80451000D01*
X138745316Y-80409457D01*
X138942045Y-80327969D01*
X139119097Y-80209667D01*
X139269667Y-80059097D01*
X139387969Y-79882045D01*
X139469457Y-79685316D01*
X139511000Y-79476469D01*
X139511000Y-79263531D01*
X139469457Y-79054684D01*
X139387969Y-78857955D01*
X139269667Y-78680903D01*
X139166257Y-78577493D01*
X139319670Y-78465351D01*
X139496759Y-78272660D01*
X139632853Y-78049123D01*
X139722722Y-77803330D01*
X139600201Y-77597000D01*
X138557000Y-77597000D01*
X138557000Y-77617000D01*
X138303000Y-77617000D01*
X138303000Y-77597000D01*
X138283000Y-77597000D01*
X138283000Y-77343000D01*
X138303000Y-77343000D01*
X138303000Y-76300626D01*
X138096671Y-76177284D01*
X137988956Y-76209953D01*
X137751608Y-76320208D01*
X137540330Y-76474649D01*
X137363241Y-76667340D01*
X137227147Y-76890877D01*
X137137278Y-77136670D01*
X137259798Y-77342998D01*
X137118590Y-77342998D01*
X130787985Y-71012394D01*
X130787985Y-69819019D01*
X130836191Y-69838987D01*
X130987078Y-69869000D01*
X131140922Y-69869000D01*
X131291809Y-69838987D01*
X131433942Y-69780113D01*
X131561859Y-69694642D01*
X131662501Y-69594000D01*
X132124409Y-69594000D01*
X138728508Y-76198100D01*
X138557000Y-76300626D01*
X138557000Y-77343000D01*
X139600201Y-77343000D01*
X139701991Y-77171583D01*
X139956001Y-77425593D01*
X139956000Y-82841157D01*
X139612000Y-82841157D01*
X139537311Y-82848513D01*
X139465492Y-82870299D01*
X139399304Y-82905678D01*
X139341289Y-82953289D01*
X139293678Y-83011304D01*
X139258299Y-83077492D01*
X139236513Y-83149311D01*
X139229157Y-83224000D01*
X139229157Y-84924000D01*
X139236513Y-84998689D01*
X139258299Y-85070508D01*
X139293678Y-85136696D01*
X139341289Y-85194711D01*
X139399304Y-85242322D01*
X139465492Y-85277701D01*
X139537311Y-85299487D01*
X139612000Y-85306843D01*
X141312000Y-85306843D01*
X141386689Y-85299487D01*
X141458508Y-85277701D01*
X141524696Y-85242322D01*
X141582711Y-85194711D01*
X141630322Y-85136696D01*
X141665701Y-85070508D01*
X141687487Y-84998689D01*
X141694843Y-84924000D01*
X141694843Y-83224000D01*
X141687487Y-83149311D01*
X141665701Y-83077492D01*
X141630322Y-83011304D01*
X141582711Y-82953289D01*
X141524696Y-82905678D01*
X141458508Y-82870299D01*
X141386689Y-82848513D01*
X141312000Y-82841157D01*
X140968000Y-82841157D01*
X140968000Y-77240854D01*
X140970448Y-77216000D01*
X140960678Y-77116807D01*
X140931745Y-77021425D01*
X140899981Y-76962000D01*
X140884759Y-76933521D01*
X140821527Y-76856473D01*
X140802220Y-76840628D01*
X132709376Y-68747785D01*
X132693527Y-68728473D01*
X132616479Y-68665241D01*
X132528575Y-68618255D01*
X132433193Y-68589322D01*
X132358854Y-68582000D01*
X132358846Y-68582000D01*
X132334000Y-68579553D01*
X132309154Y-68582000D01*
X131662501Y-68582000D01*
X131561859Y-68481358D01*
X131490911Y-68433952D01*
X131504845Y-68424642D01*
X131605487Y-68324000D01*
X133648409Y-68324000D01*
X142496001Y-77171593D01*
X142496000Y-82948647D01*
X142314784Y-83045509D01*
X142127340Y-83199340D01*
X141973509Y-83386784D01*
X141859202Y-83600637D01*
X141788812Y-83832682D01*
X141765044Y-84074000D01*
X141788812Y-84315318D01*
X141859202Y-84547363D01*
X141973509Y-84761216D01*
X142127340Y-84948660D01*
X142314784Y-85102491D01*
X142528637Y-85216798D01*
X142760682Y-85287188D01*
X142941528Y-85305000D01*
X143062472Y-85305000D01*
X143243318Y-85287188D01*
X143475363Y-85216798D01*
X143689216Y-85102491D01*
X143876660Y-84948660D01*
X144030491Y-84761216D01*
X144144798Y-84547363D01*
X144215188Y-84315318D01*
X144238956Y-84074000D01*
X144305044Y-84074000D01*
X144328812Y-84315318D01*
X144399202Y-84547363D01*
X144513509Y-84761216D01*
X144667340Y-84948660D01*
X144854784Y-85102491D01*
X145068637Y-85216798D01*
X145300682Y-85287188D01*
X145481528Y-85305000D01*
X145602472Y-85305000D01*
X145783318Y-85287188D01*
X146015363Y-85216798D01*
X146229216Y-85102491D01*
X146416660Y-84948660D01*
X146570491Y-84761216D01*
X146683017Y-84550695D01*
X146737843Y-84705252D01*
X146886822Y-84955355D01*
X147081731Y-85171588D01*
X147315080Y-85345641D01*
X147577901Y-85470825D01*
X147725110Y-85515476D01*
X147955000Y-85394155D01*
X147955000Y-84201000D01*
X148209000Y-84201000D01*
X148209000Y-85394155D01*
X148438890Y-85515476D01*
X148586099Y-85470825D01*
X148848920Y-85345641D01*
X149082269Y-85171588D01*
X149277178Y-84955355D01*
X149426157Y-84705252D01*
X149523481Y-84430891D01*
X149402814Y-84201000D01*
X148209000Y-84201000D01*
X147955000Y-84201000D01*
X147935000Y-84201000D01*
X147935000Y-83947000D01*
X147955000Y-83947000D01*
X147955000Y-82753845D01*
X148209000Y-82753845D01*
X148209000Y-83947000D01*
X149402814Y-83947000D01*
X149523481Y-83717109D01*
X149426157Y-83442748D01*
X149277178Y-83192645D01*
X149082269Y-82976412D01*
X148848920Y-82802359D01*
X148586099Y-82677175D01*
X148438890Y-82632524D01*
X148209000Y-82753845D01*
X147955000Y-82753845D01*
X147725110Y-82632524D01*
X147577901Y-82677175D01*
X147315080Y-82802359D01*
X147081731Y-82976412D01*
X146886822Y-83192645D01*
X146737843Y-83442748D01*
X146683017Y-83597305D01*
X146570491Y-83386784D01*
X146416660Y-83199340D01*
X146229216Y-83045509D01*
X146015363Y-82931202D01*
X145783318Y-82860812D01*
X145602472Y-82843000D01*
X145481528Y-82843000D01*
X145300682Y-82860812D01*
X145068637Y-82931202D01*
X144854784Y-83045509D01*
X144667340Y-83199340D01*
X144513509Y-83386784D01*
X144399202Y-83600637D01*
X144328812Y-83832682D01*
X144305044Y-84074000D01*
X144238956Y-84074000D01*
X144215188Y-83832682D01*
X144144798Y-83600637D01*
X144030491Y-83386784D01*
X143876660Y-83199340D01*
X143689216Y-83045509D01*
X143508000Y-82948647D01*
X143508000Y-76986854D01*
X143510448Y-76962000D01*
X143500678Y-76862807D01*
X143471745Y-76767425D01*
X143444964Y-76717322D01*
X143424759Y-76679521D01*
X143361527Y-76602473D01*
X143342220Y-76586628D01*
X134233376Y-67477785D01*
X134217527Y-67458473D01*
X134140479Y-67395241D01*
X134052575Y-67348255D01*
X133957193Y-67319322D01*
X133882854Y-67312000D01*
X133882846Y-67312000D01*
X133858000Y-67309553D01*
X133833154Y-67312000D01*
X132674501Y-67312000D01*
X132686642Y-67299859D01*
X132772113Y-67171942D01*
X132830987Y-67029809D01*
X132861000Y-66878922D01*
X132861000Y-66725078D01*
X132830987Y-66574191D01*
X132819310Y-66546000D01*
X133648409Y-66546000D01*
X137038628Y-69936220D01*
X137054473Y-69955527D01*
X137131521Y-70018759D01*
X137219425Y-70065745D01*
X137292607Y-70087944D01*
X137314806Y-70094678D01*
X137324694Y-70095652D01*
X137389146Y-70102000D01*
X137389153Y-70102000D01*
X137413999Y-70104447D01*
X137438845Y-70102000D01*
X139609499Y-70102000D01*
X139710141Y-70202642D01*
X139838058Y-70288113D01*
X139980191Y-70346987D01*
X140131078Y-70377000D01*
X140284922Y-70377000D01*
X140435809Y-70346987D01*
X140577942Y-70288113D01*
X140705859Y-70202642D01*
X140814642Y-70093859D01*
X140900113Y-69965942D01*
X140958987Y-69823809D01*
X140989000Y-69672922D01*
X140989000Y-69519078D01*
X140958987Y-69368191D01*
X140900113Y-69226058D01*
X140814642Y-69098141D01*
X140714000Y-68997499D01*
X140714000Y-65622501D01*
X140814642Y-65521859D01*
X140900113Y-65393942D01*
X140958987Y-65251809D01*
X140989000Y-65100922D01*
X140989000Y-64947078D01*
X140958987Y-64796191D01*
X140900113Y-64654058D01*
X140814642Y-64526141D01*
X140714000Y-64425499D01*
X140714000Y-62496593D01*
X144358220Y-58852374D01*
X144377527Y-58836529D01*
X144440759Y-58759481D01*
X144487745Y-58671577D01*
X144516678Y-58576195D01*
X144524000Y-58501856D01*
X144524000Y-58501855D01*
X144526448Y-58477002D01*
X144524000Y-58452148D01*
X144524000Y-57240501D01*
X144624642Y-57139859D01*
X144710113Y-57011942D01*
X144768987Y-56869809D01*
X144799000Y-56718922D01*
X144799000Y-56565078D01*
X144768987Y-56414191D01*
X144710113Y-56272058D01*
X144624642Y-56144141D01*
X144515859Y-56035358D01*
X144387942Y-55949887D01*
X144245809Y-55891013D01*
X144094922Y-55861000D01*
X143941078Y-55861000D01*
X143790191Y-55891013D01*
X143648058Y-55949887D01*
X143520141Y-56035358D01*
X143411358Y-56144141D01*
X143325887Y-56272058D01*
X143267013Y-56414191D01*
X143237000Y-56565078D01*
X143237000Y-56718922D01*
X143267013Y-56869809D01*
X143325887Y-57011942D01*
X143411358Y-57139859D01*
X143512001Y-57240502D01*
X143512000Y-58267410D01*
X142180434Y-59598976D01*
X142170113Y-59574058D01*
X142084642Y-59446141D01*
X141975859Y-59337358D01*
X141847942Y-59251887D01*
X141705809Y-59193013D01*
X141554922Y-59163000D01*
X141401078Y-59163000D01*
X141250191Y-59193013D01*
X141108058Y-59251887D01*
X140980141Y-59337358D01*
X140871358Y-59446141D01*
X140785887Y-59574058D01*
X140727013Y-59716191D01*
X140698000Y-59862051D01*
X140698000Y-58267192D01*
X140846149Y-58205826D01*
X141072336Y-58054693D01*
X141264693Y-57862336D01*
X141415826Y-57636149D01*
X141519929Y-57384823D01*
X141573000Y-57118017D01*
X141573000Y-56845983D01*
X141519929Y-56579177D01*
X141415826Y-56327851D01*
X141264693Y-56101664D01*
X141072336Y-55909307D01*
X140846149Y-55758174D01*
X140594823Y-55654071D01*
X140328017Y-55601000D01*
X140055983Y-55601000D01*
X139789177Y-55654071D01*
X139537851Y-55758174D01*
X139311664Y-55909307D01*
X139119307Y-56101664D01*
X138968174Y-56327851D01*
X138922000Y-56439325D01*
X138875826Y-56327851D01*
X138724693Y-56101664D01*
X138532336Y-55909307D01*
X138306149Y-55758174D01*
X138054823Y-55654071D01*
X137788017Y-55601000D01*
X137515983Y-55601000D01*
X137249177Y-55654071D01*
X136997851Y-55758174D01*
X136771664Y-55909307D01*
X136579307Y-56101664D01*
X136428174Y-56327851D01*
X136382000Y-56439325D01*
X136335826Y-56327851D01*
X136184693Y-56101664D01*
X135992336Y-55909307D01*
X135766149Y-55758174D01*
X135514823Y-55654071D01*
X135248017Y-55601000D01*
X134975983Y-55601000D01*
X134709177Y-55654071D01*
X134457851Y-55758174D01*
X134231664Y-55909307D01*
X134039307Y-56101664D01*
X133888174Y-56327851D01*
X133842000Y-56439325D01*
X133795826Y-56327851D01*
X133644693Y-56101664D01*
X133452336Y-55909307D01*
X133226149Y-55758174D01*
X132974823Y-55654071D01*
X132708017Y-55601000D01*
X132435983Y-55601000D01*
X132169177Y-55654071D01*
X131917851Y-55758174D01*
X131691664Y-55909307D01*
X131499307Y-56101664D01*
X131348174Y-56327851D01*
X131302000Y-56439325D01*
X131255826Y-56327851D01*
X131104693Y-56101664D01*
X130912336Y-55909307D01*
X130686149Y-55758174D01*
X130434823Y-55654071D01*
X130168017Y-55601000D01*
X129895983Y-55601000D01*
X129629177Y-55654071D01*
X129377851Y-55758174D01*
X129151664Y-55909307D01*
X128959307Y-56101664D01*
X128808174Y-56327851D01*
X128762000Y-56439325D01*
X128715826Y-56327851D01*
X128564693Y-56101664D01*
X128372336Y-55909307D01*
X128146149Y-55758174D01*
X127894823Y-55654071D01*
X127628017Y-55601000D01*
X127355983Y-55601000D01*
X127089177Y-55654071D01*
X126837851Y-55758174D01*
X126611664Y-55909307D01*
X126419307Y-56101664D01*
X126268174Y-56327851D01*
X126222000Y-56439325D01*
X126175826Y-56327851D01*
X126024693Y-56101664D01*
X125832336Y-55909307D01*
X125606149Y-55758174D01*
X125354823Y-55654071D01*
X125088017Y-55601000D01*
X124815983Y-55601000D01*
X124549177Y-55654071D01*
X124297851Y-55758174D01*
X124071664Y-55909307D01*
X123879307Y-56101664D01*
X123835784Y-56166801D01*
X123811814Y-56121956D01*
X123547413Y-56026192D01*
X122591605Y-56982000D01*
X123547413Y-57937808D01*
X123811814Y-57842044D01*
X123834537Y-57795333D01*
X123879307Y-57862336D01*
X124071664Y-58054693D01*
X124297851Y-58205826D01*
X124549177Y-58309929D01*
X124815983Y-58363000D01*
X125088017Y-58363000D01*
X125354823Y-58309929D01*
X125606149Y-58205826D01*
X125832336Y-58054693D01*
X126024693Y-57862336D01*
X126175826Y-57636149D01*
X126222000Y-57524675D01*
X126268174Y-57636149D01*
X126419307Y-57862336D01*
X126611664Y-58054693D01*
X126837851Y-58205826D01*
X127089177Y-58309929D01*
X127355983Y-58363000D01*
X127628017Y-58363000D01*
X127894823Y-58309929D01*
X128146149Y-58205826D01*
X128372336Y-58054693D01*
X128564693Y-57862336D01*
X128715826Y-57636149D01*
X128762000Y-57524675D01*
X128808174Y-57636149D01*
X128959307Y-57862336D01*
X129151664Y-58054693D01*
X129377851Y-58205826D01*
X129629177Y-58309929D01*
X129895983Y-58363000D01*
X130168017Y-58363000D01*
X130434823Y-58309929D01*
X130686149Y-58205826D01*
X130912336Y-58054693D01*
X131104693Y-57862336D01*
X131255826Y-57636149D01*
X131302000Y-57524675D01*
X131348174Y-57636149D01*
X131499307Y-57862336D01*
X131691664Y-58054693D01*
X131917851Y-58205826D01*
X132169177Y-58309929D01*
X132435983Y-58363000D01*
X132708017Y-58363000D01*
X132974823Y-58309929D01*
X133226149Y-58205826D01*
X133452336Y-58054693D01*
X133644693Y-57862336D01*
X133795826Y-57636149D01*
X133842000Y-57524675D01*
X133888174Y-57636149D01*
X134039307Y-57862336D01*
X134231664Y-58054693D01*
X134457851Y-58205826D01*
X134709177Y-58309929D01*
X134975983Y-58363000D01*
X135248017Y-58363000D01*
X135514823Y-58309929D01*
X135766149Y-58205826D01*
X135992336Y-58054693D01*
X136184693Y-57862336D01*
X136335826Y-57636149D01*
X136382000Y-57524675D01*
X136428174Y-57636149D01*
X136579307Y-57862336D01*
X136771664Y-58054693D01*
X136997851Y-58205826D01*
X137249177Y-58309929D01*
X137515983Y-58363000D01*
X137788017Y-58363000D01*
X138054823Y-58309929D01*
X138306149Y-58205826D01*
X138532336Y-58054693D01*
X138724693Y-57862336D01*
X138875826Y-57636149D01*
X138922000Y-57524675D01*
X138968174Y-57636149D01*
X139119307Y-57862336D01*
X139311664Y-58054693D01*
X139537851Y-58205826D01*
X139686000Y-58267192D01*
X139686001Y-59750407D01*
X138360471Y-61075938D01*
X138279989Y-60955488D01*
X138171206Y-60846705D01*
X138043289Y-60761234D01*
X137967999Y-60730048D01*
X138077859Y-60656642D01*
X138186642Y-60547859D01*
X138272113Y-60419942D01*
X138330987Y-60277809D01*
X138361000Y-60126922D01*
X138361000Y-59973078D01*
X138330987Y-59822191D01*
X138272113Y-59680058D01*
X138186642Y-59552141D01*
X138077859Y-59443358D01*
X137949942Y-59357887D01*
X137807809Y-59299013D01*
X137656922Y-59269000D01*
X137503078Y-59269000D01*
X137352191Y-59299013D01*
X137210058Y-59357887D01*
X137082141Y-59443358D01*
X136981499Y-59544000D01*
X112184846Y-59544000D01*
X112160000Y-59541553D01*
X112135154Y-59544000D01*
X112135146Y-59544000D01*
X112060807Y-59551322D01*
X111965425Y-59580255D01*
X111877521Y-59627241D01*
X111800473Y-59690473D01*
X111784628Y-59709780D01*
X110330409Y-61164000D01*
X107375654Y-61164000D01*
X107260292Y-60948172D01*
X107098713Y-60751287D01*
X106901828Y-60589708D01*
X106677204Y-60469644D01*
X106529514Y-60424843D01*
X107092000Y-60424843D01*
X107166689Y-60417487D01*
X107238508Y-60395701D01*
X107304696Y-60360322D01*
X107362711Y-60312711D01*
X107410322Y-60254696D01*
X107445701Y-60188508D01*
X107467487Y-60116689D01*
X107474843Y-60042000D01*
X107474843Y-58218000D01*
X107467487Y-58143311D01*
X107445701Y-58071492D01*
X107410322Y-58005304D01*
X107362711Y-57947289D01*
X107304696Y-57899678D01*
X107238508Y-57864299D01*
X107166689Y-57842513D01*
X107092000Y-57835157D01*
X104568000Y-57835157D01*
X104493311Y-57842513D01*
X104421492Y-57864299D01*
X104355304Y-57899678D01*
X104297289Y-57947289D01*
X104249678Y-58005304D01*
X104214299Y-58071492D01*
X104192513Y-58143311D01*
X104185157Y-58218000D01*
X104185157Y-60042000D01*
X104192513Y-60116689D01*
X104214299Y-60188508D01*
X104249678Y-60254696D01*
X104297289Y-60312711D01*
X104355304Y-60360322D01*
X104421492Y-60395701D01*
X104493311Y-60417487D01*
X104568000Y-60424843D01*
X105130486Y-60424843D01*
X104982796Y-60469644D01*
X104758172Y-60589708D01*
X104561287Y-60751287D01*
X104399708Y-60948172D01*
X104279644Y-61172796D01*
X104205709Y-61416528D01*
X104180744Y-61670000D01*
X104205709Y-61923472D01*
X104279644Y-62167204D01*
X104399708Y-62391828D01*
X104561287Y-62588713D01*
X104758172Y-62750292D01*
X104982796Y-62870356D01*
X105212382Y-62940000D01*
X104982796Y-63009644D01*
X104758172Y-63129708D01*
X104561287Y-63291287D01*
X104399708Y-63488172D01*
X104279644Y-63712796D01*
X104205709Y-63956528D01*
X104180744Y-64210000D01*
X104205709Y-64463472D01*
X104279644Y-64707204D01*
X104399708Y-64931828D01*
X104561287Y-65128713D01*
X104758172Y-65290292D01*
X104848517Y-65338582D01*
X104770657Y-65369359D01*
X104514937Y-65534274D01*
X104296304Y-65745908D01*
X104123160Y-65996129D01*
X104002158Y-66275321D01*
X103977071Y-66383376D01*
X102486000Y-66383376D01*
X102486000Y-55982000D01*
X118489157Y-55982000D01*
X118489157Y-57982000D01*
X118496513Y-58056689D01*
X118518299Y-58128508D01*
X118553678Y-58194696D01*
X118601289Y-58252711D01*
X118659304Y-58300322D01*
X118725492Y-58335701D01*
X118797311Y-58357487D01*
X118872000Y-58364843D01*
X120872000Y-58364843D01*
X120946689Y-58357487D01*
X121018508Y-58335701D01*
X121084696Y-58300322D01*
X121142711Y-58252711D01*
X121190322Y-58194696D01*
X121225701Y-58128508D01*
X121229066Y-58117413D01*
X121456192Y-58117413D01*
X121551956Y-58381814D01*
X121841571Y-58522704D01*
X122153108Y-58604384D01*
X122474595Y-58623718D01*
X122793675Y-58579961D01*
X123098088Y-58474795D01*
X123272044Y-58381814D01*
X123367808Y-58117413D01*
X122412000Y-57161605D01*
X121456192Y-58117413D01*
X121229066Y-58117413D01*
X121247487Y-58056689D01*
X121254843Y-57982000D01*
X121254843Y-57929932D01*
X121276587Y-57937808D01*
X122232395Y-56982000D01*
X121276587Y-56026192D01*
X121254843Y-56034068D01*
X121254843Y-55982000D01*
X121247487Y-55907311D01*
X121225701Y-55835492D01*
X121190322Y-55769304D01*
X121142711Y-55711289D01*
X121084696Y-55663678D01*
X121018508Y-55628299D01*
X120946689Y-55606513D01*
X120872000Y-55599157D01*
X118872000Y-55599157D01*
X118797311Y-55606513D01*
X118725492Y-55628299D01*
X118659304Y-55663678D01*
X118601289Y-55711289D01*
X118553678Y-55769304D01*
X118518299Y-55835492D01*
X118496513Y-55907311D01*
X118489157Y-55982000D01*
X102486000Y-55982000D01*
X102486000Y-55524000D01*
X121660815Y-55524000D01*
X121551956Y-55582186D01*
X121551956Y-55582186D01*
G37*
X121551956Y-55582186D02*
X121456192Y-55846587D01*
X122412000Y-56802395D01*
X123367808Y-55846587D01*
X123272044Y-55582186D01*
X123152436Y-55524000D01*
X149962001Y-55524000D01*
X149962000Y-122530000D01*
X102486000Y-122530000D01*
X102486000Y-119502000D01*
X123569157Y-119502000D01*
X123569157Y-121502000D01*
X123576513Y-121576689D01*
X123598299Y-121648508D01*
X123633678Y-121714696D01*
X123681289Y-121772711D01*
X123739304Y-121820322D01*
X123805492Y-121855701D01*
X123877311Y-121877487D01*
X123952000Y-121884843D01*
X125952000Y-121884843D01*
X126026689Y-121877487D01*
X126098508Y-121855701D01*
X126164696Y-121820322D01*
X126222711Y-121772711D01*
X126270322Y-121714696D01*
X126305701Y-121648508D01*
X126327487Y-121576689D01*
X126334843Y-121502000D01*
X126334843Y-121255926D01*
X126419307Y-121382336D01*
X126611664Y-121574693D01*
X126837851Y-121725826D01*
X127089177Y-121829929D01*
X127355983Y-121883000D01*
X127628017Y-121883000D01*
X127894823Y-121829929D01*
X128146149Y-121725826D01*
X128372336Y-121574693D01*
X128564693Y-121382336D01*
X128715826Y-121156149D01*
X128762000Y-121044675D01*
X128808174Y-121156149D01*
X128959307Y-121382336D01*
X129151664Y-121574693D01*
X129377851Y-121725826D01*
X129629177Y-121829929D01*
X129895983Y-121883000D01*
X130168017Y-121883000D01*
X130434823Y-121829929D01*
X130686149Y-121725826D01*
X130912336Y-121574693D01*
X131104693Y-121382336D01*
X131255826Y-121156149D01*
X131302000Y-121044675D01*
X131348174Y-121156149D01*
X131499307Y-121382336D01*
X131691664Y-121574693D01*
X131917851Y-121725826D01*
X132169177Y-121829929D01*
X132435983Y-121883000D01*
X132708017Y-121883000D01*
X132974823Y-121829929D01*
X133226149Y-121725826D01*
X133452336Y-121574693D01*
X133644693Y-121382336D01*
X133795826Y-121156149D01*
X133842000Y-121044675D01*
X133888174Y-121156149D01*
X134039307Y-121382336D01*
X134231664Y-121574693D01*
X134457851Y-121725826D01*
X134709177Y-121829929D01*
X134975983Y-121883000D01*
X135248017Y-121883000D01*
X135514823Y-121829929D01*
X135766149Y-121725826D01*
X135992336Y-121574693D01*
X136184693Y-121382336D01*
X136335826Y-121156149D01*
X136439929Y-120904823D01*
X136493000Y-120638017D01*
X136493000Y-120365983D01*
X136439929Y-120099177D01*
X136335826Y-119847851D01*
X136184693Y-119621664D01*
X135992336Y-119429307D01*
X135766149Y-119278174D01*
X135514823Y-119174071D01*
X135248017Y-119121000D01*
X134975983Y-119121000D01*
X134709177Y-119174071D01*
X134457851Y-119278174D01*
X134231664Y-119429307D01*
X134039307Y-119621664D01*
X133888174Y-119847851D01*
X133842000Y-119959325D01*
X133795826Y-119847851D01*
X133644693Y-119621664D01*
X133452336Y-119429307D01*
X133226149Y-119278174D01*
X132974823Y-119174071D01*
X132708017Y-119121000D01*
X132435983Y-119121000D01*
X132169177Y-119174071D01*
X131917851Y-119278174D01*
X131691664Y-119429307D01*
X131499307Y-119621664D01*
X131348174Y-119847851D01*
X131302000Y-119959325D01*
X131255826Y-119847851D01*
X131104693Y-119621664D01*
X130912336Y-119429307D01*
X130686149Y-119278174D01*
X130434823Y-119174071D01*
X130168017Y-119121000D01*
X129895983Y-119121000D01*
X129629177Y-119174071D01*
X129377851Y-119278174D01*
X129151664Y-119429307D01*
X128959307Y-119621664D01*
X128808174Y-119847851D01*
X128762000Y-119959325D01*
X128715826Y-119847851D01*
X128564693Y-119621664D01*
X128372336Y-119429307D01*
X128146149Y-119278174D01*
X127894823Y-119174071D01*
X127628017Y-119121000D01*
X127355983Y-119121000D01*
X127089177Y-119174071D01*
X126837851Y-119278174D01*
X126611664Y-119429307D01*
X126419307Y-119621664D01*
X126334843Y-119748074D01*
X126334843Y-119502000D01*
X126327487Y-119427311D01*
X126305701Y-119355492D01*
X126270322Y-119289304D01*
X126222711Y-119231289D01*
X126164696Y-119183678D01*
X126098508Y-119148299D01*
X126026689Y-119126513D01*
X125952000Y-119119157D01*
X123952000Y-119119157D01*
X123877311Y-119126513D01*
X123805492Y-119148299D01*
X123739304Y-119183678D01*
X123681289Y-119231289D01*
X123633678Y-119289304D01*
X123598299Y-119355492D01*
X123576513Y-119427311D01*
X123569157Y-119502000D01*
X102486000Y-119502000D01*
X102486000Y-111683078D01*
X117583000Y-111683078D01*
X117583000Y-111836922D01*
X117613013Y-111987809D01*
X117671887Y-112129942D01*
X117757358Y-112257859D01*
X117858000Y-112358501D01*
X117858001Y-114783144D01*
X117855553Y-114808000D01*
X117865322Y-114907192D01*
X117894255Y-115002574D01*
X117894256Y-115002575D01*
X117941242Y-115090479D01*
X118004474Y-115167527D01*
X118023781Y-115183372D01*
X121290628Y-118450220D01*
X121306473Y-118469527D01*
X121383521Y-118532759D01*
X121471425Y-118579745D01*
X121566806Y-118608678D01*
X121576694Y-118609652D01*
X121641146Y-118616000D01*
X121641153Y-118616000D01*
X121665999Y-118618447D01*
X121690845Y-118616000D01*
X129515154Y-118616000D01*
X129540000Y-118618447D01*
X129564846Y-118616000D01*
X129564854Y-118616000D01*
X129639193Y-118608678D01*
X129734575Y-118579745D01*
X129822479Y-118532759D01*
X129899527Y-118469527D01*
X129915376Y-118450215D01*
X132420220Y-115945372D01*
X132439527Y-115929527D01*
X132502759Y-115852479D01*
X132549745Y-115764575D01*
X132578678Y-115669193D01*
X132586000Y-115594854D01*
X132586000Y-115594847D01*
X132588447Y-115570001D01*
X132586000Y-115545155D01*
X132586000Y-115046624D01*
X143787071Y-115046624D01*
X143812158Y-115154679D01*
X143933160Y-115433871D01*
X144106304Y-115684092D01*
X144324937Y-115895726D01*
X144371557Y-115925792D01*
X144303311Y-115932513D01*
X144231492Y-115954299D01*
X144165304Y-115989678D01*
X144107289Y-116037289D01*
X144059678Y-116095304D01*
X144024299Y-116161492D01*
X144002513Y-116233311D01*
X143995157Y-116308000D01*
X143995157Y-118132000D01*
X144002513Y-118206689D01*
X144024299Y-118278508D01*
X144059678Y-118344696D01*
X144107289Y-118402711D01*
X144165304Y-118450322D01*
X144231492Y-118485701D01*
X144303311Y-118507487D01*
X144378000Y-118514843D01*
X146902000Y-118514843D01*
X146976689Y-118507487D01*
X147048508Y-118485701D01*
X147114696Y-118450322D01*
X147172711Y-118402711D01*
X147220322Y-118344696D01*
X147255701Y-118278508D01*
X147277487Y-118206689D01*
X147284843Y-118132000D01*
X147284843Y-116308000D01*
X147277487Y-116233311D01*
X147255701Y-116161492D01*
X147220322Y-116095304D01*
X147172711Y-116037289D01*
X147114696Y-115989678D01*
X147048508Y-115954299D01*
X146976689Y-115932513D01*
X146908443Y-115925792D01*
X146955063Y-115895726D01*
X147173696Y-115684092D01*
X147346840Y-115433871D01*
X147467842Y-115154679D01*
X147492929Y-115046624D01*
X147372429Y-114807000D01*
X145767000Y-114807000D01*
X145767000Y-114827000D01*
X145513000Y-114827000D01*
X145513000Y-114807000D01*
X143907571Y-114807000D01*
X143787071Y-115046624D01*
X132586000Y-115046624D01*
X132586000Y-114313376D01*
X143787071Y-114313376D01*
X143907571Y-114553000D01*
X145513000Y-114553000D01*
X145513000Y-113133000D01*
X145767000Y-113133000D01*
X145767000Y-114553000D01*
X147372429Y-114553000D01*
X147492929Y-114313376D01*
X147467842Y-114205321D01*
X147346840Y-113926129D01*
X147173696Y-113675908D01*
X146955063Y-113464274D01*
X146699343Y-113299359D01*
X146416364Y-113187502D01*
X146117000Y-113133000D01*
X145767000Y-113133000D01*
X145513000Y-113133000D01*
X145163000Y-113133000D01*
X144863636Y-113187502D01*
X144580657Y-113299359D01*
X144324937Y-113464274D01*
X144106304Y-113675908D01*
X143933160Y-113926129D01*
X143812158Y-114205321D01*
X143787071Y-114313376D01*
X132586000Y-114313376D01*
X132586000Y-110834501D01*
X132686642Y-110733859D01*
X132772113Y-110605942D01*
X132830987Y-110463809D01*
X132861000Y-110312922D01*
X132861000Y-110159078D01*
X132830987Y-110008191D01*
X132772113Y-109866058D01*
X132686642Y-109738141D01*
X132577859Y-109629358D01*
X132449942Y-109543887D01*
X132307809Y-109485013D01*
X132156922Y-109455000D01*
X132003078Y-109455000D01*
X131852191Y-109485013D01*
X131710058Y-109543887D01*
X131582141Y-109629358D01*
X131473358Y-109738141D01*
X131387887Y-109866058D01*
X131329013Y-110008191D01*
X131299000Y-110159078D01*
X131299000Y-110312922D01*
X131329013Y-110463809D01*
X131387887Y-110605942D01*
X131473358Y-110733859D01*
X131574001Y-110834502D01*
X131574000Y-115360408D01*
X129330409Y-117604000D01*
X121875592Y-117604000D01*
X118870000Y-114598409D01*
X118870000Y-112358501D01*
X118970642Y-112257859D01*
X119056113Y-112129942D01*
X119114987Y-111987809D01*
X119145000Y-111836922D01*
X119145000Y-111683078D01*
X119114987Y-111532191D01*
X119056113Y-111390058D01*
X118970642Y-111262141D01*
X118861859Y-111153358D01*
X118733942Y-111067887D01*
X118591809Y-111009013D01*
X118440922Y-110979000D01*
X118287078Y-110979000D01*
X118136191Y-111009013D01*
X117994058Y-111067887D01*
X117866141Y-111153358D01*
X117757358Y-111262141D01*
X117671887Y-111390058D01*
X117613013Y-111532191D01*
X117583000Y-111683078D01*
X102486000Y-111683078D01*
X102486000Y-102793078D01*
X117583000Y-102793078D01*
X117583000Y-102946922D01*
X117613013Y-103097809D01*
X117671887Y-103239942D01*
X117757358Y-103367859D01*
X117866141Y-103476642D01*
X117994058Y-103562113D01*
X118136191Y-103620987D01*
X118287078Y-103651000D01*
X118429409Y-103651000D01*
X124208001Y-109429593D01*
X124208000Y-115987499D01*
X124107358Y-116088141D01*
X124021887Y-116216058D01*
X123963013Y-116358191D01*
X123933000Y-116509078D01*
X123933000Y-116662922D01*
X123963013Y-116813809D01*
X124021887Y-116955942D01*
X124107358Y-117083859D01*
X124216141Y-117192642D01*
X124344058Y-117278113D01*
X124486191Y-117336987D01*
X124637078Y-117367000D01*
X124790922Y-117367000D01*
X124941809Y-117336987D01*
X125083942Y-117278113D01*
X125211859Y-117192642D01*
X125320642Y-117083859D01*
X125406113Y-116955942D01*
X125464987Y-116813809D01*
X125495000Y-116662922D01*
X125495000Y-116509078D01*
X125464987Y-116358191D01*
X125406113Y-116216058D01*
X125320642Y-116088141D01*
X125220000Y-115987499D01*
X125220000Y-109244845D01*
X125222447Y-109219999D01*
X125220000Y-109195153D01*
X125220000Y-109195146D01*
X125212678Y-109120807D01*
X125183745Y-109025425D01*
X125136759Y-108937521D01*
X125073527Y-108860473D01*
X125054220Y-108844628D01*
X120018670Y-103809078D01*
X123933000Y-103809078D01*
X123933000Y-103962922D01*
X123963013Y-104113809D01*
X124021887Y-104255942D01*
X124107358Y-104383859D01*
X124216141Y-104492642D01*
X124344058Y-104578113D01*
X124486191Y-104636987D01*
X124637078Y-104667000D01*
X124779409Y-104667000D01*
X128148628Y-108036220D01*
X128164473Y-108055527D01*
X128241521Y-108118759D01*
X128329425Y-108165745D01*
X128424807Y-108194678D01*
X128524000Y-108204448D01*
X128548854Y-108202000D01*
X133513499Y-108202000D01*
X133614141Y-108302642D01*
X133742058Y-108388113D01*
X133884191Y-108446987D01*
X134035078Y-108477000D01*
X134188922Y-108477000D01*
X134339809Y-108446987D01*
X134481942Y-108388113D01*
X134609859Y-108302642D01*
X134718642Y-108193859D01*
X134804113Y-108065942D01*
X134862987Y-107923809D01*
X134893000Y-107772922D01*
X134893000Y-107619078D01*
X134862987Y-107468191D01*
X134804113Y-107326058D01*
X134718642Y-107198141D01*
X134609859Y-107089358D01*
X134481942Y-107003887D01*
X134339809Y-106945013D01*
X134188922Y-106915000D01*
X134035078Y-106915000D01*
X133884191Y-106945013D01*
X133742058Y-107003887D01*
X133614141Y-107089358D01*
X133513499Y-107190000D01*
X128733592Y-107190000D01*
X125495000Y-103951409D01*
X125495000Y-103809078D01*
X125464987Y-103658191D01*
X125406113Y-103516058D01*
X125320642Y-103388141D01*
X125211859Y-103279358D01*
X125083942Y-103193887D01*
X124941809Y-103135013D01*
X124790922Y-103105000D01*
X124637078Y-103105000D01*
X124486191Y-103135013D01*
X124344058Y-103193887D01*
X124216141Y-103279358D01*
X124107358Y-103388141D01*
X124021887Y-103516058D01*
X123963013Y-103658191D01*
X123933000Y-103809078D01*
X120018670Y-103809078D01*
X119145000Y-102935409D01*
X119145000Y-102793078D01*
X119114987Y-102642191D01*
X119056113Y-102500058D01*
X118970642Y-102372141D01*
X118861859Y-102263358D01*
X118733942Y-102177887D01*
X118591809Y-102119013D01*
X118440922Y-102089000D01*
X118287078Y-102089000D01*
X118136191Y-102119013D01*
X117994058Y-102177887D01*
X117866141Y-102263358D01*
X117757358Y-102372141D01*
X117671887Y-102500058D01*
X117613013Y-102642191D01*
X117583000Y-102793078D01*
X102486000Y-102793078D01*
X102486000Y-98186624D01*
X103987071Y-98186624D01*
X104012158Y-98294679D01*
X104133160Y-98573871D01*
X104306304Y-98824092D01*
X104524937Y-99035726D01*
X104780657Y-99200641D01*
X105063636Y-99312498D01*
X105363000Y-99367000D01*
X105713000Y-99367000D01*
X105713000Y-97947000D01*
X105967000Y-97947000D01*
X105967000Y-99367000D01*
X106317000Y-99367000D01*
X106616364Y-99312498D01*
X106899343Y-99200641D01*
X107155063Y-99035726D01*
X107373696Y-98824092D01*
X107546840Y-98573871D01*
X107667842Y-98294679D01*
X107692929Y-98186624D01*
X107572429Y-97947000D01*
X105967000Y-97947000D01*
X105713000Y-97947000D01*
X104107571Y-97947000D01*
X103987071Y-98186624D01*
X102486000Y-98186624D01*
X102486000Y-97453376D01*
X103987071Y-97453376D01*
X104107571Y-97693000D01*
X105713000Y-97693000D01*
X105713000Y-97673000D01*
X105967000Y-97673000D01*
X105967000Y-97693000D01*
X107572429Y-97693000D01*
X107692929Y-97453376D01*
X107667842Y-97345321D01*
X107546840Y-97066129D01*
X107373696Y-96815908D01*
X107155063Y-96604274D01*
X106899343Y-96439359D01*
X106821483Y-96408582D01*
X106911828Y-96360292D01*
X107108713Y-96198713D01*
X107270292Y-96001828D01*
X107386144Y-95785085D01*
X107451193Y-95778678D01*
X107546575Y-95749745D01*
X107634479Y-95702759D01*
X107711527Y-95639527D01*
X107727376Y-95620215D01*
X109560220Y-93787372D01*
X109579527Y-93771527D01*
X109642759Y-93694479D01*
X109689745Y-93606575D01*
X109718678Y-93511193D01*
X109726000Y-93436854D01*
X109726000Y-93436853D01*
X109728448Y-93412000D01*
X109726000Y-93387146D01*
X109726000Y-82779591D01*
X117754590Y-74751002D01*
X123810152Y-74751002D01*
X123834998Y-74753449D01*
X123859844Y-74751002D01*
X123859852Y-74751002D01*
X123934191Y-74743680D01*
X124029573Y-74714747D01*
X124117477Y-74667761D01*
X124194525Y-74604529D01*
X124210374Y-74585217D01*
X124644592Y-74151000D01*
X124786922Y-74151000D01*
X124937809Y-74120987D01*
X125079942Y-74062113D01*
X125207859Y-73976642D01*
X125316642Y-73867859D01*
X125402113Y-73739942D01*
X125460987Y-73597809D01*
X125491000Y-73446922D01*
X125491000Y-73293078D01*
X125460987Y-73142191D01*
X125402113Y-73000058D01*
X125316642Y-72872141D01*
X125207859Y-72763358D01*
X125079942Y-72677887D01*
X124937809Y-72619013D01*
X124786922Y-72589000D01*
X124633078Y-72589000D01*
X124482191Y-72619013D01*
X124340058Y-72677887D01*
X124212141Y-72763358D01*
X124103358Y-72872141D01*
X124100668Y-72876167D01*
X123995199Y-72770698D01*
X123867282Y-72685227D01*
X123725149Y-72626353D01*
X123574262Y-72596340D01*
X123420418Y-72596340D01*
X123269531Y-72626353D01*
X123127398Y-72685227D01*
X122999481Y-72770698D01*
X122890698Y-72879481D01*
X122805227Y-73007398D01*
X122746353Y-73149531D01*
X122745464Y-73154000D01*
X117518443Y-73154000D01*
X117493589Y-73151552D01*
X117468735Y-73154000D01*
X117394396Y-73161322D01*
X117299014Y-73190255D01*
X117211110Y-73237241D01*
X117134062Y-73300473D01*
X117118218Y-73319779D01*
X108219781Y-82218217D01*
X108200474Y-82234062D01*
X108137242Y-82311110D01*
X108113954Y-82354679D01*
X108090255Y-82399015D01*
X108061322Y-82494397D01*
X108051553Y-82593589D01*
X108054001Y-82618445D01*
X108054000Y-91330408D01*
X107303712Y-92080697D01*
X107270292Y-92018172D01*
X107108713Y-91821287D01*
X106911828Y-91659708D01*
X106687204Y-91539644D01*
X106539514Y-91494843D01*
X107102000Y-91494843D01*
X107176689Y-91487487D01*
X107248508Y-91465701D01*
X107314696Y-91430322D01*
X107372711Y-91382711D01*
X107420322Y-91324696D01*
X107455701Y-91258508D01*
X107477487Y-91186689D01*
X107484843Y-91112000D01*
X107484843Y-89288000D01*
X107477487Y-89213311D01*
X107455701Y-89141492D01*
X107420322Y-89075304D01*
X107372711Y-89017289D01*
X107314696Y-88969678D01*
X107248508Y-88934299D01*
X107176689Y-88912513D01*
X107102000Y-88905157D01*
X104578000Y-88905157D01*
X104503311Y-88912513D01*
X104431492Y-88934299D01*
X104365304Y-88969678D01*
X104307289Y-89017289D01*
X104259678Y-89075304D01*
X104224299Y-89141492D01*
X104202513Y-89213311D01*
X104195157Y-89288000D01*
X104195157Y-91112000D01*
X104202513Y-91186689D01*
X104224299Y-91258508D01*
X104259678Y-91324696D01*
X104307289Y-91382711D01*
X104365304Y-91430322D01*
X104431492Y-91465701D01*
X104503311Y-91487487D01*
X104578000Y-91494843D01*
X105140486Y-91494843D01*
X104992796Y-91539644D01*
X104768172Y-91659708D01*
X104571287Y-91821287D01*
X104409708Y-92018172D01*
X104289644Y-92242796D01*
X104215709Y-92486528D01*
X104190744Y-92740000D01*
X104215709Y-92993472D01*
X104289644Y-93237204D01*
X104409708Y-93461828D01*
X104571287Y-93658713D01*
X104768172Y-93820292D01*
X104992796Y-93940356D01*
X105222382Y-94010000D01*
X104992796Y-94079644D01*
X104768172Y-94199708D01*
X104571287Y-94361287D01*
X104409708Y-94558172D01*
X104289644Y-94782796D01*
X104215709Y-95026528D01*
X104190744Y-95280000D01*
X104215709Y-95533472D01*
X104289644Y-95777204D01*
X104409708Y-96001828D01*
X104571287Y-96198713D01*
X104768172Y-96360292D01*
X104858517Y-96408582D01*
X104780657Y-96439359D01*
X104524937Y-96604274D01*
X104306304Y-96815908D01*
X104133160Y-97066129D01*
X104012158Y-97345321D01*
X103987071Y-97453376D01*
X102486000Y-97453376D01*
X102486000Y-82246624D01*
X103987071Y-82246624D01*
X104012158Y-82354679D01*
X104133160Y-82633871D01*
X104306304Y-82884092D01*
X104524937Y-83095726D01*
X104780657Y-83260641D01*
X105063636Y-83372498D01*
X105363000Y-83427000D01*
X105713000Y-83427000D01*
X105713000Y-82007000D01*
X105967000Y-82007000D01*
X105967000Y-83427000D01*
X106317000Y-83427000D01*
X106616364Y-83372498D01*
X106899343Y-83260641D01*
X107155063Y-83095726D01*
X107373696Y-82884092D01*
X107546840Y-82633871D01*
X107667842Y-82354679D01*
X107692929Y-82246624D01*
X107572429Y-82007000D01*
X105967000Y-82007000D01*
X105713000Y-82007000D01*
X104107571Y-82007000D01*
X103987071Y-82246624D01*
X102486000Y-82246624D01*
X102486000Y-67116624D01*
X103977071Y-67116624D01*
X104002158Y-67224679D01*
X104123160Y-67503871D01*
X104296304Y-67754092D01*
X104514937Y-67965726D01*
X104770657Y-68130641D01*
X105053636Y-68242498D01*
X105353000Y-68297000D01*
X105703000Y-68297000D01*
X105703000Y-66877000D01*
X105957000Y-66877000D01*
X105957000Y-68297000D01*
X106307000Y-68297000D01*
X106606364Y-68242498D01*
X106889343Y-68130641D01*
X107145063Y-67965726D01*
X107363696Y-67754092D01*
X107536840Y-67503871D01*
X107657842Y-67224679D01*
X107682929Y-67116624D01*
X107562429Y-66877000D01*
X105957000Y-66877000D01*
X105703000Y-66877000D01*
X104097571Y-66877000D01*
X103977071Y-67116624D01*
X102486000Y-67116624D01*
X102486000Y-66383376D01*
X103977071Y-66383376D01*
X104097571Y-66623000D01*
X105703000Y-66623000D01*
X105703000Y-66603000D01*
X105957000Y-66603000D01*
X105957000Y-66623000D01*
X107562429Y-66623000D01*
X107682929Y-66383376D01*
X107657842Y-66275321D01*
X107536840Y-65996129D01*
X107363696Y-65745908D01*
X107145063Y-65534274D01*
X106889343Y-65369359D01*
X106811483Y-65338582D01*
X106901828Y-65290292D01*
X107098713Y-65128713D01*
X107260292Y-64931828D01*
X107375654Y-64716000D01*
X110305154Y-64716000D01*
X110330000Y-64718447D01*
X110354846Y-64716000D01*
X110354854Y-64716000D01*
X110429193Y-64708678D01*
X110524575Y-64679745D01*
X110612479Y-64632759D01*
X110689527Y-64569527D01*
X110705376Y-64550215D01*
X113296245Y-61959347D01*
X124896152Y-61959347D01*
X124869358Y-61986141D01*
X124783887Y-62114058D01*
X124725013Y-62256191D01*
X124695000Y-62407078D01*
X124695000Y-62560922D01*
X124725013Y-62711809D01*
X124783887Y-62853942D01*
X124869358Y-62981859D01*
X124978141Y-63090642D01*
X125106058Y-63176113D01*
X125248191Y-63234987D01*
X125399078Y-63265000D01*
X125552922Y-63265000D01*
X125703809Y-63234987D01*
X125845942Y-63176113D01*
X125973859Y-63090642D01*
X126082642Y-62981859D01*
X126168113Y-62853942D01*
X126226987Y-62711809D01*
X126257000Y-62560922D01*
X126257000Y-62407078D01*
X126226987Y-62256191D01*
X126168113Y-62114058D01*
X126082642Y-61986141D01*
X126055848Y-61959347D01*
X137074846Y-61959347D01*
X137175488Y-62059989D01*
X137295938Y-62140471D01*
X135934409Y-63502000D01*
X133948501Y-63502000D01*
X133847859Y-63401358D01*
X133719942Y-63315887D01*
X133577809Y-63257013D01*
X133426922Y-63227000D01*
X133273078Y-63227000D01*
X133122191Y-63257013D01*
X132980058Y-63315887D01*
X132852141Y-63401358D01*
X132743358Y-63510141D01*
X132657887Y-63638058D01*
X132599013Y-63780191D01*
X132569000Y-63931078D01*
X132569000Y-64084922D01*
X132599013Y-64235809D01*
X132657887Y-64377942D01*
X132743358Y-64505859D01*
X132852141Y-64614642D01*
X132980058Y-64700113D01*
X133122191Y-64758987D01*
X133273078Y-64789000D01*
X133426922Y-64789000D01*
X133577809Y-64758987D01*
X133719942Y-64700113D01*
X133847859Y-64614642D01*
X133948501Y-64514000D01*
X136119154Y-64514000D01*
X136144000Y-64516447D01*
X136168846Y-64514000D01*
X136168854Y-64514000D01*
X136243193Y-64506678D01*
X136338575Y-64477745D01*
X136426479Y-64430759D01*
X136503527Y-64367527D01*
X136519376Y-64348215D01*
X138434574Y-62433018D01*
X138432000Y-62459147D01*
X138432000Y-62459154D01*
X138429553Y-62484000D01*
X138432000Y-62508846D01*
X138432001Y-65441498D01*
X138331358Y-65542141D01*
X138245887Y-65670058D01*
X138187013Y-65812191D01*
X138157000Y-65963078D01*
X138157000Y-66116922D01*
X138187013Y-66267809D01*
X138245887Y-66409942D01*
X138331358Y-66537859D01*
X138432001Y-66638502D01*
X138432000Y-67727499D01*
X138331358Y-67828141D01*
X138245887Y-67956058D01*
X138187013Y-68098191D01*
X138157000Y-68249078D01*
X138157000Y-68402922D01*
X138187013Y-68553809D01*
X138245887Y-68695942D01*
X138331358Y-68823859D01*
X138440141Y-68932642D01*
X138568058Y-69018113D01*
X138710191Y-69076987D01*
X138775612Y-69090000D01*
X137623592Y-69090000D01*
X134233376Y-65699785D01*
X134217527Y-65680473D01*
X134140479Y-65617241D01*
X134052575Y-65570255D01*
X133957193Y-65541322D01*
X133882854Y-65534000D01*
X133882846Y-65534000D01*
X133858000Y-65531553D01*
X133833154Y-65534000D01*
X128882845Y-65534000D01*
X128857999Y-65531553D01*
X128833153Y-65534000D01*
X128833146Y-65534000D01*
X128768694Y-65540348D01*
X128758806Y-65541322D01*
X128736607Y-65548056D01*
X128663425Y-65570255D01*
X128575521Y-65617241D01*
X128498473Y-65680473D01*
X128482628Y-65699780D01*
X127830814Y-66351594D01*
X127820987Y-66302191D01*
X127762113Y-66160058D01*
X127676642Y-66032141D01*
X127567859Y-65923358D01*
X127447553Y-65842973D01*
X127507809Y-65830987D01*
X127649942Y-65772113D01*
X127777859Y-65686642D01*
X127886642Y-65577859D01*
X127972113Y-65449942D01*
X128030987Y-65307809D01*
X128061000Y-65156922D01*
X128061000Y-65003078D01*
X128030987Y-64852191D01*
X127972113Y-64710058D01*
X127886642Y-64582141D01*
X127777859Y-64473358D01*
X127649942Y-64387887D01*
X127507809Y-64329013D01*
X127356922Y-64299000D01*
X127203078Y-64299000D01*
X127052191Y-64329013D01*
X126910058Y-64387887D01*
X126782141Y-64473358D01*
X126681499Y-64574000D01*
X120944845Y-64574000D01*
X120919999Y-64571553D01*
X120895153Y-64574000D01*
X120895146Y-64574000D01*
X120830694Y-64580348D01*
X120820806Y-64581322D01*
X120755141Y-64601241D01*
X120725425Y-64610255D01*
X120637521Y-64657241D01*
X120560473Y-64720473D01*
X120544628Y-64739780D01*
X117099785Y-68184624D01*
X117080473Y-68200473D01*
X117017241Y-68277521D01*
X116994682Y-68319726D01*
X106990300Y-78324109D01*
X106911828Y-78259708D01*
X106687204Y-78139644D01*
X106457618Y-78070000D01*
X106687204Y-78000356D01*
X106911828Y-77880292D01*
X107108713Y-77718713D01*
X107270292Y-77521828D01*
X107390356Y-77297204D01*
X107464291Y-77053472D01*
X107489256Y-76800000D01*
X107464291Y-76546528D01*
X107390356Y-76302796D01*
X107270292Y-76078172D01*
X107108713Y-75881287D01*
X106911828Y-75719708D01*
X106687204Y-75599644D01*
X106539514Y-75554843D01*
X107102000Y-75554843D01*
X107176689Y-75547487D01*
X107248508Y-75525701D01*
X107314696Y-75490322D01*
X107372711Y-75442711D01*
X107420322Y-75384696D01*
X107455701Y-75318508D01*
X107477487Y-75246689D01*
X107484843Y-75172000D01*
X107484843Y-73348000D01*
X107477487Y-73273311D01*
X107455701Y-73201492D01*
X107420322Y-73135304D01*
X107372711Y-73077289D01*
X107314696Y-73029678D01*
X107248508Y-72994299D01*
X107176689Y-72972513D01*
X107102000Y-72965157D01*
X104578000Y-72965157D01*
X104503311Y-72972513D01*
X104431492Y-72994299D01*
X104365304Y-73029678D01*
X104307289Y-73077289D01*
X104259678Y-73135304D01*
X104224299Y-73201492D01*
X104202513Y-73273311D01*
X104195157Y-73348000D01*
X104195157Y-75172000D01*
X104202513Y-75246689D01*
X104224299Y-75318508D01*
X104259678Y-75384696D01*
X104307289Y-75442711D01*
X104365304Y-75490322D01*
X104431492Y-75525701D01*
X104503311Y-75547487D01*
X104578000Y-75554843D01*
X105140486Y-75554843D01*
X104992796Y-75599644D01*
X104768172Y-75719708D01*
X104571287Y-75881287D01*
X104409708Y-76078172D01*
X104289644Y-76302796D01*
X104215709Y-76546528D01*
X104190744Y-76800000D01*
X104215709Y-77053472D01*
X104289644Y-77297204D01*
X104409708Y-77521828D01*
X104571287Y-77718713D01*
X104768172Y-77880292D01*
X104992796Y-78000356D01*
X105222382Y-78070000D01*
X104992796Y-78139644D01*
X104768172Y-78259708D01*
X104571287Y-78421287D01*
X104409708Y-78618172D01*
X104289644Y-78842796D01*
X104215709Y-79086528D01*
X104190744Y-79340000D01*
X104215709Y-79593472D01*
X104289644Y-79837204D01*
X104409708Y-80061828D01*
X104571287Y-80258713D01*
X104768172Y-80420292D01*
X104858517Y-80468582D01*
X104780657Y-80499359D01*
X104524937Y-80664274D01*
X104306304Y-80875908D01*
X104133160Y-81126129D01*
X104012158Y-81405321D01*
X103987071Y-81513376D01*
X104107571Y-81753000D01*
X105713000Y-81753000D01*
X105713000Y-81733000D01*
X105967000Y-81733000D01*
X105967000Y-81753000D01*
X107572429Y-81753000D01*
X107692929Y-81513376D01*
X107667842Y-81405321D01*
X107546840Y-81126129D01*
X107373696Y-80875908D01*
X107155063Y-80664274D01*
X106899343Y-80499359D01*
X106821483Y-80468582D01*
X106911828Y-80420292D01*
X107108713Y-80258713D01*
X107270292Y-80061828D01*
X107390356Y-79837204D01*
X107464291Y-79593472D01*
X107489256Y-79340000D01*
X107481754Y-79263837D01*
X110160513Y-76585078D01*
X110169013Y-76627809D01*
X110227887Y-76769942D01*
X110313358Y-76897859D01*
X110422141Y-77006642D01*
X110550058Y-77092113D01*
X110692191Y-77150987D01*
X110843078Y-77181000D01*
X110996922Y-77181000D01*
X111147809Y-77150987D01*
X111289942Y-77092113D01*
X111417859Y-77006642D01*
X111526642Y-76897859D01*
X111612113Y-76769942D01*
X111670987Y-76627809D01*
X111701000Y-76476922D01*
X111701000Y-76323078D01*
X111670987Y-76172191D01*
X111612113Y-76030058D01*
X111584644Y-75988947D01*
X121281592Y-66292000D01*
X126116409Y-66292000D01*
X126289000Y-66464591D01*
X126289000Y-66606922D01*
X126319013Y-66757809D01*
X126377887Y-66899942D01*
X126463358Y-67027859D01*
X126572141Y-67136642D01*
X126700058Y-67222113D01*
X126842191Y-67280987D01*
X126891595Y-67290814D01*
X125541409Y-68641000D01*
X125399078Y-68641000D01*
X125248191Y-68671013D01*
X125106058Y-68729887D01*
X124978141Y-68815358D01*
X124869358Y-68924141D01*
X124783887Y-69052058D01*
X124725013Y-69194191D01*
X124695000Y-69345078D01*
X124695000Y-69498922D01*
X124725013Y-69649809D01*
X124783887Y-69791942D01*
X124869358Y-69919859D01*
X124978141Y-70028642D01*
X125106058Y-70114113D01*
X125248191Y-70172987D01*
X125399078Y-70203000D01*
X125552922Y-70203000D01*
X125703809Y-70172987D01*
X125845942Y-70114113D01*
X125973859Y-70028642D01*
X126082642Y-69919859D01*
X126168113Y-69791942D01*
X126226987Y-69649809D01*
X126257000Y-69498922D01*
X126257000Y-69356591D01*
X129067592Y-66546000D01*
X130490392Y-66546000D01*
X129941765Y-67094628D01*
X129922459Y-67110472D01*
X129859227Y-67187520D01*
X129846485Y-67211358D01*
X129812240Y-67275425D01*
X129783307Y-67370807D01*
X129773538Y-67469999D01*
X129775986Y-67494855D01*
X129775985Y-71197139D01*
X129773538Y-71221985D01*
X129775985Y-71246831D01*
X129775985Y-71246838D01*
X129783307Y-71321177D01*
X129812240Y-71416559D01*
X129859226Y-71504464D01*
X129922458Y-71581512D01*
X129941770Y-71597361D01*
X137393047Y-79048639D01*
X137390543Y-79054684D01*
X137349000Y-79263531D01*
X137349000Y-79476469D01*
X137390543Y-79685316D01*
X137472031Y-79882045D01*
X137590333Y-80059097D01*
X137740903Y-80209667D01*
X137917955Y-80327969D01*
X138114684Y-80409457D01*
X138323531Y-80451000D01*
X138536469Y-80451000D01*
X138745316Y-80409457D01*
X138942045Y-80327969D01*
X139119097Y-80209667D01*
X139269667Y-80059097D01*
X139387969Y-79882045D01*
X139469457Y-79685316D01*
X139511000Y-79476469D01*
X139511000Y-79263531D01*
X139469457Y-79054684D01*
X139387969Y-78857955D01*
X139269667Y-78680903D01*
X139166257Y-78577493D01*
X139319670Y-78465351D01*
X139496759Y-78272660D01*
X139632853Y-78049123D01*
X139722722Y-77803330D01*
X139600201Y-77597000D01*
X138557000Y-77597000D01*
X138557000Y-77617000D01*
X138303000Y-77617000D01*
X138303000Y-77597000D01*
X138283000Y-77597000D01*
X138283000Y-77343000D01*
X138303000Y-77343000D01*
X138303000Y-76300626D01*
X138096671Y-76177284D01*
X137988956Y-76209953D01*
X137751608Y-76320208D01*
X137540330Y-76474649D01*
X137363241Y-76667340D01*
X137227147Y-76890877D01*
X137137278Y-77136670D01*
X137259798Y-77342998D01*
X137118590Y-77342998D01*
X130787985Y-71012394D01*
X130787985Y-69819019D01*
X130836191Y-69838987D01*
X130987078Y-69869000D01*
X131140922Y-69869000D01*
X131291809Y-69838987D01*
X131433942Y-69780113D01*
X131561859Y-69694642D01*
X131662501Y-69594000D01*
X132124409Y-69594000D01*
X138728508Y-76198100D01*
X138557000Y-76300626D01*
X138557000Y-77343000D01*
X139600201Y-77343000D01*
X139701991Y-77171583D01*
X139956001Y-77425593D01*
X139956000Y-82841157D01*
X139612000Y-82841157D01*
X139537311Y-82848513D01*
X139465492Y-82870299D01*
X139399304Y-82905678D01*
X139341289Y-82953289D01*
X139293678Y-83011304D01*
X139258299Y-83077492D01*
X139236513Y-83149311D01*
X139229157Y-83224000D01*
X139229157Y-84924000D01*
X139236513Y-84998689D01*
X139258299Y-85070508D01*
X139293678Y-85136696D01*
X139341289Y-85194711D01*
X139399304Y-85242322D01*
X139465492Y-85277701D01*
X139537311Y-85299487D01*
X139612000Y-85306843D01*
X141312000Y-85306843D01*
X141386689Y-85299487D01*
X141458508Y-85277701D01*
X141524696Y-85242322D01*
X141582711Y-85194711D01*
X141630322Y-85136696D01*
X141665701Y-85070508D01*
X141687487Y-84998689D01*
X141694843Y-84924000D01*
X141694843Y-83224000D01*
X141687487Y-83149311D01*
X141665701Y-83077492D01*
X141630322Y-83011304D01*
X141582711Y-82953289D01*
X141524696Y-82905678D01*
X141458508Y-82870299D01*
X141386689Y-82848513D01*
X141312000Y-82841157D01*
X140968000Y-82841157D01*
X140968000Y-77240854D01*
X140970448Y-77216000D01*
X140960678Y-77116807D01*
X140931745Y-77021425D01*
X140899981Y-76962000D01*
X140884759Y-76933521D01*
X140821527Y-76856473D01*
X140802220Y-76840628D01*
X132709376Y-68747785D01*
X132693527Y-68728473D01*
X132616479Y-68665241D01*
X132528575Y-68618255D01*
X132433193Y-68589322D01*
X132358854Y-68582000D01*
X132358846Y-68582000D01*
X132334000Y-68579553D01*
X132309154Y-68582000D01*
X131662501Y-68582000D01*
X131561859Y-68481358D01*
X131490911Y-68433952D01*
X131504845Y-68424642D01*
X131605487Y-68324000D01*
X133648409Y-68324000D01*
X142496001Y-77171593D01*
X142496000Y-82948647D01*
X142314784Y-83045509D01*
X142127340Y-83199340D01*
X141973509Y-83386784D01*
X141859202Y-83600637D01*
X141788812Y-83832682D01*
X141765044Y-84074000D01*
X141788812Y-84315318D01*
X141859202Y-84547363D01*
X141973509Y-84761216D01*
X142127340Y-84948660D01*
X142314784Y-85102491D01*
X142528637Y-85216798D01*
X142760682Y-85287188D01*
X142941528Y-85305000D01*
X143062472Y-85305000D01*
X143243318Y-85287188D01*
X143475363Y-85216798D01*
X143689216Y-85102491D01*
X143876660Y-84948660D01*
X144030491Y-84761216D01*
X144144798Y-84547363D01*
X144215188Y-84315318D01*
X144238956Y-84074000D01*
X144305044Y-84074000D01*
X144328812Y-84315318D01*
X144399202Y-84547363D01*
X144513509Y-84761216D01*
X144667340Y-84948660D01*
X144854784Y-85102491D01*
X145068637Y-85216798D01*
X145300682Y-85287188D01*
X145481528Y-85305000D01*
X145602472Y-85305000D01*
X145783318Y-85287188D01*
X146015363Y-85216798D01*
X146229216Y-85102491D01*
X146416660Y-84948660D01*
X146570491Y-84761216D01*
X146683017Y-84550695D01*
X146737843Y-84705252D01*
X146886822Y-84955355D01*
X147081731Y-85171588D01*
X147315080Y-85345641D01*
X147577901Y-85470825D01*
X147725110Y-85515476D01*
X147955000Y-85394155D01*
X147955000Y-84201000D01*
X148209000Y-84201000D01*
X148209000Y-85394155D01*
X148438890Y-85515476D01*
X148586099Y-85470825D01*
X148848920Y-85345641D01*
X149082269Y-85171588D01*
X149277178Y-84955355D01*
X149426157Y-84705252D01*
X149523481Y-84430891D01*
X149402814Y-84201000D01*
X148209000Y-84201000D01*
X147955000Y-84201000D01*
X147935000Y-84201000D01*
X147935000Y-83947000D01*
X147955000Y-83947000D01*
X147955000Y-82753845D01*
X148209000Y-82753845D01*
X148209000Y-83947000D01*
X149402814Y-83947000D01*
X149523481Y-83717109D01*
X149426157Y-83442748D01*
X149277178Y-83192645D01*
X149082269Y-82976412D01*
X148848920Y-82802359D01*
X148586099Y-82677175D01*
X148438890Y-82632524D01*
X148209000Y-82753845D01*
X147955000Y-82753845D01*
X147725110Y-82632524D01*
X147577901Y-82677175D01*
X147315080Y-82802359D01*
X147081731Y-82976412D01*
X146886822Y-83192645D01*
X146737843Y-83442748D01*
X146683017Y-83597305D01*
X146570491Y-83386784D01*
X146416660Y-83199340D01*
X146229216Y-83045509D01*
X146015363Y-82931202D01*
X145783318Y-82860812D01*
X145602472Y-82843000D01*
X145481528Y-82843000D01*
X145300682Y-82860812D01*
X145068637Y-82931202D01*
X144854784Y-83045509D01*
X144667340Y-83199340D01*
X144513509Y-83386784D01*
X144399202Y-83600637D01*
X144328812Y-83832682D01*
X144305044Y-84074000D01*
X144238956Y-84074000D01*
X144215188Y-83832682D01*
X144144798Y-83600637D01*
X144030491Y-83386784D01*
X143876660Y-83199340D01*
X143689216Y-83045509D01*
X143508000Y-82948647D01*
X143508000Y-76986854D01*
X143510448Y-76962000D01*
X143500678Y-76862807D01*
X143471745Y-76767425D01*
X143444964Y-76717322D01*
X143424759Y-76679521D01*
X143361527Y-76602473D01*
X143342220Y-76586628D01*
X134233376Y-67477785D01*
X134217527Y-67458473D01*
X134140479Y-67395241D01*
X134052575Y-67348255D01*
X133957193Y-67319322D01*
X133882854Y-67312000D01*
X133882846Y-67312000D01*
X133858000Y-67309553D01*
X133833154Y-67312000D01*
X132674501Y-67312000D01*
X132686642Y-67299859D01*
X132772113Y-67171942D01*
X132830987Y-67029809D01*
X132861000Y-66878922D01*
X132861000Y-66725078D01*
X132830987Y-66574191D01*
X132819310Y-66546000D01*
X133648409Y-66546000D01*
X137038628Y-69936220D01*
X137054473Y-69955527D01*
X137131521Y-70018759D01*
X137219425Y-70065745D01*
X137292607Y-70087944D01*
X137314806Y-70094678D01*
X137324694Y-70095652D01*
X137389146Y-70102000D01*
X137389153Y-70102000D01*
X137413999Y-70104447D01*
X137438845Y-70102000D01*
X139609499Y-70102000D01*
X139710141Y-70202642D01*
X139838058Y-70288113D01*
X139980191Y-70346987D01*
X140131078Y-70377000D01*
X140284922Y-70377000D01*
X140435809Y-70346987D01*
X140577942Y-70288113D01*
X140705859Y-70202642D01*
X140814642Y-70093859D01*
X140900113Y-69965942D01*
X140958987Y-69823809D01*
X140989000Y-69672922D01*
X140989000Y-69519078D01*
X140958987Y-69368191D01*
X140900113Y-69226058D01*
X140814642Y-69098141D01*
X140714000Y-68997499D01*
X140714000Y-65622501D01*
X140814642Y-65521859D01*
X140900113Y-65393942D01*
X140958987Y-65251809D01*
X140989000Y-65100922D01*
X140989000Y-64947078D01*
X140958987Y-64796191D01*
X140900113Y-64654058D01*
X140814642Y-64526141D01*
X140714000Y-64425499D01*
X140714000Y-62496593D01*
X144358220Y-58852374D01*
X144377527Y-58836529D01*
X144440759Y-58759481D01*
X144487745Y-58671577D01*
X144516678Y-58576195D01*
X144524000Y-58501856D01*
X144524000Y-58501855D01*
X144526448Y-58477002D01*
X144524000Y-58452148D01*
X144524000Y-57240501D01*
X144624642Y-57139859D01*
X144710113Y-57011942D01*
X144768987Y-56869809D01*
X144799000Y-56718922D01*
X144799000Y-56565078D01*
X144768987Y-56414191D01*
X144710113Y-56272058D01*
X144624642Y-56144141D01*
X144515859Y-56035358D01*
X144387942Y-55949887D01*
X144245809Y-55891013D01*
X144094922Y-55861000D01*
X143941078Y-55861000D01*
X143790191Y-55891013D01*
X143648058Y-55949887D01*
X143520141Y-56035358D01*
X143411358Y-56144141D01*
X143325887Y-56272058D01*
X143267013Y-56414191D01*
X143237000Y-56565078D01*
X143237000Y-56718922D01*
X143267013Y-56869809D01*
X143325887Y-57011942D01*
X143411358Y-57139859D01*
X143512001Y-57240502D01*
X143512000Y-58267410D01*
X142180434Y-59598976D01*
X142170113Y-59574058D01*
X142084642Y-59446141D01*
X141975859Y-59337358D01*
X141847942Y-59251887D01*
X141705809Y-59193013D01*
X141554922Y-59163000D01*
X141401078Y-59163000D01*
X141250191Y-59193013D01*
X141108058Y-59251887D01*
X140980141Y-59337358D01*
X140871358Y-59446141D01*
X140785887Y-59574058D01*
X140727013Y-59716191D01*
X140698000Y-59862051D01*
X140698000Y-58267192D01*
X140846149Y-58205826D01*
X141072336Y-58054693D01*
X141264693Y-57862336D01*
X141415826Y-57636149D01*
X141519929Y-57384823D01*
X141573000Y-57118017D01*
X141573000Y-56845983D01*
X141519929Y-56579177D01*
X141415826Y-56327851D01*
X141264693Y-56101664D01*
X141072336Y-55909307D01*
X140846149Y-55758174D01*
X140594823Y-55654071D01*
X140328017Y-55601000D01*
X140055983Y-55601000D01*
X139789177Y-55654071D01*
X139537851Y-55758174D01*
X139311664Y-55909307D01*
X139119307Y-56101664D01*
X138968174Y-56327851D01*
X138922000Y-56439325D01*
X138875826Y-56327851D01*
X138724693Y-56101664D01*
X138532336Y-55909307D01*
X138306149Y-55758174D01*
X138054823Y-55654071D01*
X137788017Y-55601000D01*
X137515983Y-55601000D01*
X137249177Y-55654071D01*
X136997851Y-55758174D01*
X136771664Y-55909307D01*
X136579307Y-56101664D01*
X136428174Y-56327851D01*
X136382000Y-56439325D01*
X136335826Y-56327851D01*
X136184693Y-56101664D01*
X135992336Y-55909307D01*
X135766149Y-55758174D01*
X135514823Y-55654071D01*
X135248017Y-55601000D01*
X134975983Y-55601000D01*
X134709177Y-55654071D01*
X134457851Y-55758174D01*
X134231664Y-55909307D01*
X134039307Y-56101664D01*
X133888174Y-56327851D01*
X133842000Y-56439325D01*
X133795826Y-56327851D01*
X133644693Y-56101664D01*
X133452336Y-55909307D01*
X133226149Y-55758174D01*
X132974823Y-55654071D01*
X132708017Y-55601000D01*
X132435983Y-55601000D01*
X132169177Y-55654071D01*
X131917851Y-55758174D01*
X131691664Y-55909307D01*
X131499307Y-56101664D01*
X131348174Y-56327851D01*
X131302000Y-56439325D01*
X131255826Y-56327851D01*
X131104693Y-56101664D01*
X130912336Y-55909307D01*
X130686149Y-55758174D01*
X130434823Y-55654071D01*
X130168017Y-55601000D01*
X129895983Y-55601000D01*
X129629177Y-55654071D01*
X129377851Y-55758174D01*
X129151664Y-55909307D01*
X128959307Y-56101664D01*
X128808174Y-56327851D01*
X128762000Y-56439325D01*
X128715826Y-56327851D01*
X128564693Y-56101664D01*
X128372336Y-55909307D01*
X128146149Y-55758174D01*
X127894823Y-55654071D01*
X127628017Y-55601000D01*
X127355983Y-55601000D01*
X127089177Y-55654071D01*
X126837851Y-55758174D01*
X126611664Y-55909307D01*
X126419307Y-56101664D01*
X126268174Y-56327851D01*
X126222000Y-56439325D01*
X126175826Y-56327851D01*
X126024693Y-56101664D01*
X125832336Y-55909307D01*
X125606149Y-55758174D01*
X125354823Y-55654071D01*
X125088017Y-55601000D01*
X124815983Y-55601000D01*
X124549177Y-55654071D01*
X124297851Y-55758174D01*
X124071664Y-55909307D01*
X123879307Y-56101664D01*
X123835784Y-56166801D01*
X123811814Y-56121956D01*
X123547413Y-56026192D01*
X122591605Y-56982000D01*
X123547413Y-57937808D01*
X123811814Y-57842044D01*
X123834537Y-57795333D01*
X123879307Y-57862336D01*
X124071664Y-58054693D01*
X124297851Y-58205826D01*
X124549177Y-58309929D01*
X124815983Y-58363000D01*
X125088017Y-58363000D01*
X125354823Y-58309929D01*
X125606149Y-58205826D01*
X125832336Y-58054693D01*
X126024693Y-57862336D01*
X126175826Y-57636149D01*
X126222000Y-57524675D01*
X126268174Y-57636149D01*
X126419307Y-57862336D01*
X126611664Y-58054693D01*
X126837851Y-58205826D01*
X127089177Y-58309929D01*
X127355983Y-58363000D01*
X127628017Y-58363000D01*
X127894823Y-58309929D01*
X128146149Y-58205826D01*
X128372336Y-58054693D01*
X128564693Y-57862336D01*
X128715826Y-57636149D01*
X128762000Y-57524675D01*
X128808174Y-57636149D01*
X128959307Y-57862336D01*
X129151664Y-58054693D01*
X129377851Y-58205826D01*
X129629177Y-58309929D01*
X129895983Y-58363000D01*
X130168017Y-58363000D01*
X130434823Y-58309929D01*
X130686149Y-58205826D01*
X130912336Y-58054693D01*
X131104693Y-57862336D01*
X131255826Y-57636149D01*
X131302000Y-57524675D01*
X131348174Y-57636149D01*
X131499307Y-57862336D01*
X131691664Y-58054693D01*
X131917851Y-58205826D01*
X132169177Y-58309929D01*
X132435983Y-58363000D01*
X132708017Y-58363000D01*
X132974823Y-58309929D01*
X133226149Y-58205826D01*
X133452336Y-58054693D01*
X133644693Y-57862336D01*
X133795826Y-57636149D01*
X133842000Y-57524675D01*
X133888174Y-57636149D01*
X134039307Y-57862336D01*
X134231664Y-58054693D01*
X134457851Y-58205826D01*
X134709177Y-58309929D01*
X134975983Y-58363000D01*
X135248017Y-58363000D01*
X135514823Y-58309929D01*
X135766149Y-58205826D01*
X135992336Y-58054693D01*
X136184693Y-57862336D01*
X136335826Y-57636149D01*
X136382000Y-57524675D01*
X136428174Y-57636149D01*
X136579307Y-57862336D01*
X136771664Y-58054693D01*
X136997851Y-58205826D01*
X137249177Y-58309929D01*
X137515983Y-58363000D01*
X137788017Y-58363000D01*
X138054823Y-58309929D01*
X138306149Y-58205826D01*
X138532336Y-58054693D01*
X138724693Y-57862336D01*
X138875826Y-57636149D01*
X138922000Y-57524675D01*
X138968174Y-57636149D01*
X139119307Y-57862336D01*
X139311664Y-58054693D01*
X139537851Y-58205826D01*
X139686000Y-58267192D01*
X139686001Y-59750407D01*
X138360471Y-61075938D01*
X138279989Y-60955488D01*
X138171206Y-60846705D01*
X138043289Y-60761234D01*
X137967999Y-60730048D01*
X138077859Y-60656642D01*
X138186642Y-60547859D01*
X138272113Y-60419942D01*
X138330987Y-60277809D01*
X138361000Y-60126922D01*
X138361000Y-59973078D01*
X138330987Y-59822191D01*
X138272113Y-59680058D01*
X138186642Y-59552141D01*
X138077859Y-59443358D01*
X137949942Y-59357887D01*
X137807809Y-59299013D01*
X137656922Y-59269000D01*
X137503078Y-59269000D01*
X137352191Y-59299013D01*
X137210058Y-59357887D01*
X137082141Y-59443358D01*
X136981499Y-59544000D01*
X112184846Y-59544000D01*
X112160000Y-59541553D01*
X112135154Y-59544000D01*
X112135146Y-59544000D01*
X112060807Y-59551322D01*
X111965425Y-59580255D01*
X111877521Y-59627241D01*
X111800473Y-59690473D01*
X111784628Y-59709780D01*
X110330409Y-61164000D01*
X107375654Y-61164000D01*
X107260292Y-60948172D01*
X107098713Y-60751287D01*
X106901828Y-60589708D01*
X106677204Y-60469644D01*
X106529514Y-60424843D01*
X107092000Y-60424843D01*
X107166689Y-60417487D01*
X107238508Y-60395701D01*
X107304696Y-60360322D01*
X107362711Y-60312711D01*
X107410322Y-60254696D01*
X107445701Y-60188508D01*
X107467487Y-60116689D01*
X107474843Y-60042000D01*
X107474843Y-58218000D01*
X107467487Y-58143311D01*
X107445701Y-58071492D01*
X107410322Y-58005304D01*
X107362711Y-57947289D01*
X107304696Y-57899678D01*
X107238508Y-57864299D01*
X107166689Y-57842513D01*
X107092000Y-57835157D01*
X104568000Y-57835157D01*
X104493311Y-57842513D01*
X104421492Y-57864299D01*
X104355304Y-57899678D01*
X104297289Y-57947289D01*
X104249678Y-58005304D01*
X104214299Y-58071492D01*
X104192513Y-58143311D01*
X104185157Y-58218000D01*
X104185157Y-60042000D01*
X104192513Y-60116689D01*
X104214299Y-60188508D01*
X104249678Y-60254696D01*
X104297289Y-60312711D01*
X104355304Y-60360322D01*
X104421492Y-60395701D01*
X104493311Y-60417487D01*
X104568000Y-60424843D01*
X105130486Y-60424843D01*
X104982796Y-60469644D01*
X104758172Y-60589708D01*
X104561287Y-60751287D01*
X104399708Y-60948172D01*
X104279644Y-61172796D01*
X104205709Y-61416528D01*
X104180744Y-61670000D01*
X104205709Y-61923472D01*
X104279644Y-62167204D01*
X104399708Y-62391828D01*
X104561287Y-62588713D01*
X104758172Y-62750292D01*
X104982796Y-62870356D01*
X105212382Y-62940000D01*
X104982796Y-63009644D01*
X104758172Y-63129708D01*
X104561287Y-63291287D01*
X104399708Y-63488172D01*
X104279644Y-63712796D01*
X104205709Y-63956528D01*
X104180744Y-64210000D01*
X104205709Y-64463472D01*
X104279644Y-64707204D01*
X104399708Y-64931828D01*
X104561287Y-65128713D01*
X104758172Y-65290292D01*
X104848517Y-65338582D01*
X104770657Y-65369359D01*
X104514937Y-65534274D01*
X104296304Y-65745908D01*
X104123160Y-65996129D01*
X104002158Y-66275321D01*
X103977071Y-66383376D01*
X102486000Y-66383376D01*
X102486000Y-55982000D01*
X118489157Y-55982000D01*
X118489157Y-57982000D01*
X118496513Y-58056689D01*
X118518299Y-58128508D01*
X118553678Y-58194696D01*
X118601289Y-58252711D01*
X118659304Y-58300322D01*
X118725492Y-58335701D01*
X118797311Y-58357487D01*
X118872000Y-58364843D01*
X120872000Y-58364843D01*
X120946689Y-58357487D01*
X121018508Y-58335701D01*
X121084696Y-58300322D01*
X121142711Y-58252711D01*
X121190322Y-58194696D01*
X121225701Y-58128508D01*
X121229066Y-58117413D01*
X121456192Y-58117413D01*
X121551956Y-58381814D01*
X121841571Y-58522704D01*
X122153108Y-58604384D01*
X122474595Y-58623718D01*
X122793675Y-58579961D01*
X123098088Y-58474795D01*
X123272044Y-58381814D01*
X123367808Y-58117413D01*
X122412000Y-57161605D01*
X121456192Y-58117413D01*
X121229066Y-58117413D01*
X121247487Y-58056689D01*
X121254843Y-57982000D01*
X121254843Y-57929932D01*
X121276587Y-57937808D01*
X122232395Y-56982000D01*
X121276587Y-56026192D01*
X121254843Y-56034068D01*
X121254843Y-55982000D01*
X121247487Y-55907311D01*
X121225701Y-55835492D01*
X121190322Y-55769304D01*
X121142711Y-55711289D01*
X121084696Y-55663678D01*
X121018508Y-55628299D01*
X120946689Y-55606513D01*
X120872000Y-55599157D01*
X118872000Y-55599157D01*
X118797311Y-55606513D01*
X118725492Y-55628299D01*
X118659304Y-55663678D01*
X118601289Y-55711289D01*
X118553678Y-55769304D01*
X118518299Y-55835492D01*
X118496513Y-55907311D01*
X118489157Y-55982000D01*
X102486000Y-55982000D01*
X102486000Y-55524000D01*
X121660815Y-55524000D01*
X121551956Y-55582186D01*
G36*
X108714000Y-93202408D02*
G01*
X107300926Y-94615483D01*
X107270292Y-94558172D01*
X107108713Y-94361287D01*
X106911828Y-94199708D01*
X106687204Y-94079644D01*
X106457618Y-94010000D01*
X106687204Y-93940356D01*
X106911828Y-93820292D01*
X107108713Y-93658713D01*
X107270292Y-93461828D01*
X107385699Y-93245917D01*
X107459193Y-93238678D01*
X107554575Y-93209745D01*
X107642479Y-93162759D01*
X107719527Y-93099527D01*
X107735376Y-93080215D01*
X108714000Y-92101592D01*
X108714000Y-93202408D01*
X108714000Y-93202408D01*
G37*
X108714000Y-93202408D02*
X107300926Y-94615483D01*
X107270292Y-94558172D01*
X107108713Y-94361287D01*
X106911828Y-94199708D01*
X106687204Y-94079644D01*
X106457618Y-94010000D01*
X106687204Y-93940356D01*
X106911828Y-93820292D01*
X107108713Y-93658713D01*
X107270292Y-93461828D01*
X107385699Y-93245917D01*
X107459193Y-93238678D01*
X107554575Y-93209745D01*
X107642479Y-93162759D01*
X107719527Y-93099527D01*
X107735376Y-93080215D01*
X108714000Y-92101592D01*
X108714000Y-93202408D01*
G36*
X137082141Y-60656642D02*
G01*
X137210058Y-60742113D01*
X137285348Y-60773299D01*
X137175488Y-60846705D01*
X137074846Y-60947347D01*
X113111498Y-60947347D01*
X113086652Y-60944900D01*
X113061806Y-60947347D01*
X113061799Y-60947347D01*
X112987460Y-60954669D01*
X112892078Y-60983602D01*
X112804174Y-61030588D01*
X112727126Y-61093820D01*
X112711281Y-61113127D01*
X110120409Y-63704000D01*
X107375654Y-63704000D01*
X107260292Y-63488172D01*
X107098713Y-63291287D01*
X106901828Y-63129708D01*
X106677204Y-63009644D01*
X106447618Y-62940000D01*
X106677204Y-62870356D01*
X106901828Y-62750292D01*
X107098713Y-62588713D01*
X107260292Y-62391828D01*
X107375654Y-62176000D01*
X110515154Y-62176000D01*
X110540000Y-62178447D01*
X110564846Y-62176000D01*
X110564854Y-62176000D01*
X110639193Y-62168678D01*
X110734575Y-62139745D01*
X110822479Y-62092759D01*
X110899527Y-62029527D01*
X110915376Y-62010215D01*
X112369592Y-60556000D01*
X136981499Y-60556000D01*
X137082141Y-60656642D01*
X137082141Y-60656642D01*
G37*
X137082141Y-60656642D02*
X137210058Y-60742113D01*
X137285348Y-60773299D01*
X137175488Y-60846705D01*
X137074846Y-60947347D01*
X113111498Y-60947347D01*
X113086652Y-60944900D01*
X113061806Y-60947347D01*
X113061799Y-60947347D01*
X112987460Y-60954669D01*
X112892078Y-60983602D01*
X112804174Y-61030588D01*
X112727126Y-61093820D01*
X112711281Y-61113127D01*
X110120409Y-63704000D01*
X107375654Y-63704000D01*
X107260292Y-63488172D01*
X107098713Y-63291287D01*
X106901828Y-63129708D01*
X106677204Y-63009644D01*
X106447618Y-62940000D01*
X106677204Y-62870356D01*
X106901828Y-62750292D01*
X107098713Y-62588713D01*
X107260292Y-62391828D01*
X107375654Y-62176000D01*
X110515154Y-62176000D01*
X110540000Y-62178447D01*
X110564846Y-62176000D01*
X110564854Y-62176000D01*
X110639193Y-62168678D01*
X110734575Y-62139745D01*
X110822479Y-62092759D01*
X110899527Y-62029527D01*
X110915376Y-62010215D01*
X112369592Y-60556000D01*
X136981499Y-60556000D01*
X137082141Y-60656642D01*
%TD*%
M02*
