%TF.GenerationSoftware,KiCad,Pcbnew,(5.1.2)-2*%
%TF.CreationDate,2020-09-07T08:08:20+07:00*%
%TF.ProjectId,ai-hw-elec,61692d68-772d-4656-9c65-632e6b696361,rev?*%
%TF.SameCoordinates,Original*%
%TF.FileFunction,Soldermask,Top*%
%TF.FilePolarity,Negative*%
%FSLAX46Y46*%
G04 Gerber Fmt 4.6, Leading zero omitted, Abs format (unit mm)*
G04 Created by KiCad (PCBNEW (5.1.2)-2) date 2020-09-07 08:08:20*
%MOMM*%
%LPD*%
G04 APERTURE LIST*
%ADD10R,2.100000X2.100000*%
%ADD11C,2.100000*%
%ADD12O,2.624000X1.924000*%
%ADD13R,2.624000X1.924000*%
%ADD14R,1.100000X1.350000*%
%ADD15R,1.350000X1.100000*%
%ADD16C,0.100000*%
%ADD17C,1.450000*%
%ADD18R,2.600000X1.900000*%
%ADD19R,1.800000X1.800000*%
%ADD20O,1.800000X1.800000*%
%ADD21R,4.300000X2.500000*%
%ADD22R,1.400000X1.600000*%
%ADD23R,1.300000X1.300000*%
%ADD24R,0.800000X1.400000*%
%ADD25R,1.400000X0.800000*%
%ADD26R,1.800000X1.100000*%
%ADD27R,2.100000X3.900000*%
%ADD28R,2.100000X1.600000*%
%ADD29R,1.800000X0.800000*%
%ADD30C,0.400000*%
%ADD31R,2.100000X4.724000*%
%ADD32C,1.500000*%
%ADD33O,1.500000X1.500000*%
G04 APERTURE END LIST*
D10*
%TO.C,U4*%
X119872000Y-56982000D03*
D11*
X122412000Y-56982000D03*
X124952000Y-56982000D03*
X127492000Y-56982000D03*
X130032000Y-56982000D03*
X132572000Y-56982000D03*
X135112000Y-56982000D03*
X137652000Y-56982000D03*
X140192000Y-56982000D03*
D10*
X124952000Y-120502000D03*
D11*
X127492000Y-120502000D03*
X130032000Y-120502000D03*
X132572000Y-120502000D03*
X135112000Y-120502000D03*
%TD*%
D12*
%TO.C,J2*%
X145640000Y-114680000D03*
D13*
X145640000Y-117220000D03*
%TD*%
D14*
%TO.C,C1*%
X115046000Y-98298000D03*
X113046000Y-98298000D03*
%TD*%
%TO.C,C2*%
X117872000Y-86360000D03*
X119872000Y-86360000D03*
%TD*%
%TO.C,C3*%
X132096000Y-107696000D03*
X134096000Y-107696000D03*
%TD*%
%TO.C,C4*%
X118142000Y-116611000D03*
X120142000Y-116611000D03*
%TD*%
D15*
%TO.C,C5*%
X142494000Y-71358000D03*
X142494000Y-69358000D03*
%TD*%
%TO.C,C6*%
X142494000Y-65008000D03*
X142494000Y-63008000D03*
%TD*%
%TO.C,C7*%
X146558000Y-58642000D03*
X146558000Y-56642000D03*
%TD*%
%TO.C,C8*%
X136144000Y-75676000D03*
X136144000Y-73676000D03*
%TD*%
%TO.C,C9*%
X140208000Y-64992000D03*
X140208000Y-62992000D03*
%TD*%
%TO.C,C10*%
X125476000Y-64500000D03*
X125476000Y-62500000D03*
%TD*%
D16*
%TO.C,CP1*%
G36*
X132848301Y-109512293D02*
G01*
X132874367Y-109516159D01*
X132899929Y-109522562D01*
X132924739Y-109531440D01*
X132948561Y-109542706D01*
X132971163Y-109556253D01*
X132992328Y-109571951D01*
X133011853Y-109589647D01*
X133029549Y-109609172D01*
X133045247Y-109630337D01*
X133058794Y-109652939D01*
X133070060Y-109676761D01*
X133078938Y-109701571D01*
X133085341Y-109727133D01*
X133089207Y-109753199D01*
X133090500Y-109779518D01*
X133090500Y-110692482D01*
X133089207Y-110718801D01*
X133085341Y-110744867D01*
X133078938Y-110770429D01*
X133070060Y-110795239D01*
X133058794Y-110819061D01*
X133045247Y-110841663D01*
X133029549Y-110862828D01*
X133011853Y-110882353D01*
X132992328Y-110900049D01*
X132971163Y-110915747D01*
X132948561Y-110929294D01*
X132924739Y-110940560D01*
X132899929Y-110949438D01*
X132874367Y-110955841D01*
X132848301Y-110959707D01*
X132821982Y-110961000D01*
X131684018Y-110961000D01*
X131657699Y-110959707D01*
X131631633Y-110955841D01*
X131606071Y-110949438D01*
X131581261Y-110940560D01*
X131557439Y-110929294D01*
X131534837Y-110915747D01*
X131513672Y-110900049D01*
X131494147Y-110882353D01*
X131476451Y-110862828D01*
X131460753Y-110841663D01*
X131447206Y-110819061D01*
X131435940Y-110795239D01*
X131427062Y-110770429D01*
X131420659Y-110744867D01*
X131416793Y-110718801D01*
X131415500Y-110692482D01*
X131415500Y-109779518D01*
X131416793Y-109753199D01*
X131420659Y-109727133D01*
X131427062Y-109701571D01*
X131435940Y-109676761D01*
X131447206Y-109652939D01*
X131460753Y-109630337D01*
X131476451Y-109609172D01*
X131494147Y-109589647D01*
X131513672Y-109571951D01*
X131534837Y-109556253D01*
X131557439Y-109542706D01*
X131581261Y-109531440D01*
X131606071Y-109522562D01*
X131631633Y-109516159D01*
X131657699Y-109512293D01*
X131684018Y-109511000D01*
X132821982Y-109511000D01*
X132848301Y-109512293D01*
X132848301Y-109512293D01*
G37*
D17*
X132253000Y-110236000D03*
D16*
G36*
X135723301Y-109512293D02*
G01*
X135749367Y-109516159D01*
X135774929Y-109522562D01*
X135799739Y-109531440D01*
X135823561Y-109542706D01*
X135846163Y-109556253D01*
X135867328Y-109571951D01*
X135886853Y-109589647D01*
X135904549Y-109609172D01*
X135920247Y-109630337D01*
X135933794Y-109652939D01*
X135945060Y-109676761D01*
X135953938Y-109701571D01*
X135960341Y-109727133D01*
X135964207Y-109753199D01*
X135965500Y-109779518D01*
X135965500Y-110692482D01*
X135964207Y-110718801D01*
X135960341Y-110744867D01*
X135953938Y-110770429D01*
X135945060Y-110795239D01*
X135933794Y-110819061D01*
X135920247Y-110841663D01*
X135904549Y-110862828D01*
X135886853Y-110882353D01*
X135867328Y-110900049D01*
X135846163Y-110915747D01*
X135823561Y-110929294D01*
X135799739Y-110940560D01*
X135774929Y-110949438D01*
X135749367Y-110955841D01*
X135723301Y-110959707D01*
X135696982Y-110961000D01*
X134559018Y-110961000D01*
X134532699Y-110959707D01*
X134506633Y-110955841D01*
X134481071Y-110949438D01*
X134456261Y-110940560D01*
X134432439Y-110929294D01*
X134409837Y-110915747D01*
X134388672Y-110900049D01*
X134369147Y-110882353D01*
X134351451Y-110862828D01*
X134335753Y-110841663D01*
X134322206Y-110819061D01*
X134310940Y-110795239D01*
X134302062Y-110770429D01*
X134295659Y-110744867D01*
X134291793Y-110718801D01*
X134290500Y-110692482D01*
X134290500Y-109779518D01*
X134291793Y-109753199D01*
X134295659Y-109727133D01*
X134302062Y-109701571D01*
X134310940Y-109676761D01*
X134322206Y-109652939D01*
X134335753Y-109630337D01*
X134351451Y-109609172D01*
X134369147Y-109589647D01*
X134388672Y-109571951D01*
X134409837Y-109556253D01*
X134432439Y-109542706D01*
X134456261Y-109531440D01*
X134481071Y-109522562D01*
X134506633Y-109516159D01*
X134532699Y-109512293D01*
X134559018Y-109511000D01*
X135696982Y-109511000D01*
X135723301Y-109512293D01*
X135723301Y-109512293D01*
G37*
D17*
X135128000Y-110236000D03*
%TD*%
D16*
%TO.C,CP2*%
G36*
X118283801Y-82842293D02*
G01*
X118309867Y-82846159D01*
X118335429Y-82852562D01*
X118360239Y-82861440D01*
X118384061Y-82872706D01*
X118406663Y-82886253D01*
X118427828Y-82901951D01*
X118447353Y-82919647D01*
X118465049Y-82939172D01*
X118480747Y-82960337D01*
X118494294Y-82982939D01*
X118505560Y-83006761D01*
X118514438Y-83031571D01*
X118520841Y-83057133D01*
X118524707Y-83083199D01*
X118526000Y-83109518D01*
X118526000Y-84022482D01*
X118524707Y-84048801D01*
X118520841Y-84074867D01*
X118514438Y-84100429D01*
X118505560Y-84125239D01*
X118494294Y-84149061D01*
X118480747Y-84171663D01*
X118465049Y-84192828D01*
X118447353Y-84212353D01*
X118427828Y-84230049D01*
X118406663Y-84245747D01*
X118384061Y-84259294D01*
X118360239Y-84270560D01*
X118335429Y-84279438D01*
X118309867Y-84285841D01*
X118283801Y-84289707D01*
X118257482Y-84291000D01*
X117119518Y-84291000D01*
X117093199Y-84289707D01*
X117067133Y-84285841D01*
X117041571Y-84279438D01*
X117016761Y-84270560D01*
X116992939Y-84259294D01*
X116970337Y-84245747D01*
X116949172Y-84230049D01*
X116929647Y-84212353D01*
X116911951Y-84192828D01*
X116896253Y-84171663D01*
X116882706Y-84149061D01*
X116871440Y-84125239D01*
X116862562Y-84100429D01*
X116856159Y-84074867D01*
X116852293Y-84048801D01*
X116851000Y-84022482D01*
X116851000Y-83109518D01*
X116852293Y-83083199D01*
X116856159Y-83057133D01*
X116862562Y-83031571D01*
X116871440Y-83006761D01*
X116882706Y-82982939D01*
X116896253Y-82960337D01*
X116911951Y-82939172D01*
X116929647Y-82919647D01*
X116949172Y-82901951D01*
X116970337Y-82886253D01*
X116992939Y-82872706D01*
X117016761Y-82861440D01*
X117041571Y-82852562D01*
X117067133Y-82846159D01*
X117093199Y-82842293D01*
X117119518Y-82841000D01*
X118257482Y-82841000D01*
X118283801Y-82842293D01*
X118283801Y-82842293D01*
G37*
D17*
X117688500Y-83566000D03*
D16*
G36*
X121158801Y-82842293D02*
G01*
X121184867Y-82846159D01*
X121210429Y-82852562D01*
X121235239Y-82861440D01*
X121259061Y-82872706D01*
X121281663Y-82886253D01*
X121302828Y-82901951D01*
X121322353Y-82919647D01*
X121340049Y-82939172D01*
X121355747Y-82960337D01*
X121369294Y-82982939D01*
X121380560Y-83006761D01*
X121389438Y-83031571D01*
X121395841Y-83057133D01*
X121399707Y-83083199D01*
X121401000Y-83109518D01*
X121401000Y-84022482D01*
X121399707Y-84048801D01*
X121395841Y-84074867D01*
X121389438Y-84100429D01*
X121380560Y-84125239D01*
X121369294Y-84149061D01*
X121355747Y-84171663D01*
X121340049Y-84192828D01*
X121322353Y-84212353D01*
X121302828Y-84230049D01*
X121281663Y-84245747D01*
X121259061Y-84259294D01*
X121235239Y-84270560D01*
X121210429Y-84279438D01*
X121184867Y-84285841D01*
X121158801Y-84289707D01*
X121132482Y-84291000D01*
X119994518Y-84291000D01*
X119968199Y-84289707D01*
X119942133Y-84285841D01*
X119916571Y-84279438D01*
X119891761Y-84270560D01*
X119867939Y-84259294D01*
X119845337Y-84245747D01*
X119824172Y-84230049D01*
X119804647Y-84212353D01*
X119786951Y-84192828D01*
X119771253Y-84171663D01*
X119757706Y-84149061D01*
X119746440Y-84125239D01*
X119737562Y-84100429D01*
X119731159Y-84074867D01*
X119727293Y-84048801D01*
X119726000Y-84022482D01*
X119726000Y-83109518D01*
X119727293Y-83083199D01*
X119731159Y-83057133D01*
X119737562Y-83031571D01*
X119746440Y-83006761D01*
X119757706Y-82982939D01*
X119771253Y-82960337D01*
X119786951Y-82939172D01*
X119804647Y-82919647D01*
X119824172Y-82901951D01*
X119845337Y-82886253D01*
X119867939Y-82872706D01*
X119891761Y-82861440D01*
X119916571Y-82852562D01*
X119942133Y-82846159D01*
X119968199Y-82842293D01*
X119994518Y-82841000D01*
X121132482Y-82841000D01*
X121158801Y-82842293D01*
X121158801Y-82842293D01*
G37*
D17*
X120563500Y-83566000D03*
%TD*%
D16*
%TO.C,CP3*%
G36*
X119045801Y-97574293D02*
G01*
X119071867Y-97578159D01*
X119097429Y-97584562D01*
X119122239Y-97593440D01*
X119146061Y-97604706D01*
X119168663Y-97618253D01*
X119189828Y-97633951D01*
X119209353Y-97651647D01*
X119227049Y-97671172D01*
X119242747Y-97692337D01*
X119256294Y-97714939D01*
X119267560Y-97738761D01*
X119276438Y-97763571D01*
X119282841Y-97789133D01*
X119286707Y-97815199D01*
X119288000Y-97841518D01*
X119288000Y-98754482D01*
X119286707Y-98780801D01*
X119282841Y-98806867D01*
X119276438Y-98832429D01*
X119267560Y-98857239D01*
X119256294Y-98881061D01*
X119242747Y-98903663D01*
X119227049Y-98924828D01*
X119209353Y-98944353D01*
X119189828Y-98962049D01*
X119168663Y-98977747D01*
X119146061Y-98991294D01*
X119122239Y-99002560D01*
X119097429Y-99011438D01*
X119071867Y-99017841D01*
X119045801Y-99021707D01*
X119019482Y-99023000D01*
X117881518Y-99023000D01*
X117855199Y-99021707D01*
X117829133Y-99017841D01*
X117803571Y-99011438D01*
X117778761Y-99002560D01*
X117754939Y-98991294D01*
X117732337Y-98977747D01*
X117711172Y-98962049D01*
X117691647Y-98944353D01*
X117673951Y-98924828D01*
X117658253Y-98903663D01*
X117644706Y-98881061D01*
X117633440Y-98857239D01*
X117624562Y-98832429D01*
X117618159Y-98806867D01*
X117614293Y-98780801D01*
X117613000Y-98754482D01*
X117613000Y-97841518D01*
X117614293Y-97815199D01*
X117618159Y-97789133D01*
X117624562Y-97763571D01*
X117633440Y-97738761D01*
X117644706Y-97714939D01*
X117658253Y-97692337D01*
X117673951Y-97671172D01*
X117691647Y-97651647D01*
X117711172Y-97633951D01*
X117732337Y-97618253D01*
X117754939Y-97604706D01*
X117778761Y-97593440D01*
X117803571Y-97584562D01*
X117829133Y-97578159D01*
X117855199Y-97574293D01*
X117881518Y-97573000D01*
X119019482Y-97573000D01*
X119045801Y-97574293D01*
X119045801Y-97574293D01*
G37*
D17*
X118450500Y-98298000D03*
D16*
G36*
X121920801Y-97574293D02*
G01*
X121946867Y-97578159D01*
X121972429Y-97584562D01*
X121997239Y-97593440D01*
X122021061Y-97604706D01*
X122043663Y-97618253D01*
X122064828Y-97633951D01*
X122084353Y-97651647D01*
X122102049Y-97671172D01*
X122117747Y-97692337D01*
X122131294Y-97714939D01*
X122142560Y-97738761D01*
X122151438Y-97763571D01*
X122157841Y-97789133D01*
X122161707Y-97815199D01*
X122163000Y-97841518D01*
X122163000Y-98754482D01*
X122161707Y-98780801D01*
X122157841Y-98806867D01*
X122151438Y-98832429D01*
X122142560Y-98857239D01*
X122131294Y-98881061D01*
X122117747Y-98903663D01*
X122102049Y-98924828D01*
X122084353Y-98944353D01*
X122064828Y-98962049D01*
X122043663Y-98977747D01*
X122021061Y-98991294D01*
X121997239Y-99002560D01*
X121972429Y-99011438D01*
X121946867Y-99017841D01*
X121920801Y-99021707D01*
X121894482Y-99023000D01*
X120756518Y-99023000D01*
X120730199Y-99021707D01*
X120704133Y-99017841D01*
X120678571Y-99011438D01*
X120653761Y-99002560D01*
X120629939Y-98991294D01*
X120607337Y-98977747D01*
X120586172Y-98962049D01*
X120566647Y-98944353D01*
X120548951Y-98924828D01*
X120533253Y-98903663D01*
X120519706Y-98881061D01*
X120508440Y-98857239D01*
X120499562Y-98832429D01*
X120493159Y-98806867D01*
X120489293Y-98780801D01*
X120488000Y-98754482D01*
X120488000Y-97841518D01*
X120489293Y-97815199D01*
X120493159Y-97789133D01*
X120499562Y-97763571D01*
X120508440Y-97738761D01*
X120519706Y-97714939D01*
X120533253Y-97692337D01*
X120548951Y-97671172D01*
X120566647Y-97651647D01*
X120586172Y-97633951D01*
X120607337Y-97618253D01*
X120629939Y-97604706D01*
X120653761Y-97593440D01*
X120678571Y-97584562D01*
X120704133Y-97578159D01*
X120730199Y-97574293D01*
X120756518Y-97573000D01*
X121894482Y-97573000D01*
X121920801Y-97574293D01*
X121920801Y-97574293D01*
G37*
D17*
X121325500Y-98298000D03*
%TD*%
D18*
%TO.C,D1*%
X124492000Y-103886000D03*
X128492000Y-103886000D03*
%TD*%
D19*
%TO.C,J1*%
X140462000Y-84074000D03*
D20*
X143002000Y-84074000D03*
X145542000Y-84074000D03*
X148082000Y-84074000D03*
%TD*%
D21*
%TO.C,L1*%
X118364000Y-107442000D03*
X118364000Y-102942000D03*
%TD*%
D22*
%TO.C,L2*%
X125476000Y-66722000D03*
X125476000Y-69422000D03*
%TD*%
D23*
%TO.C,Led1*%
X114892000Y-86360000D03*
X112692000Y-86360000D03*
%TD*%
D24*
%TO.C,R1*%
X118392000Y-111760000D03*
X120292000Y-111760000D03*
%TD*%
%TO.C,R2*%
X118392000Y-114046000D03*
X120292000Y-114046000D03*
%TD*%
%TO.C,R3*%
X126812000Y-114046000D03*
X128712000Y-114046000D03*
%TD*%
%TO.C,R4*%
X114366000Y-116586000D03*
X116266000Y-116586000D03*
%TD*%
%TO.C,R5*%
X114742000Y-83820000D03*
X112842000Y-83820000D03*
%TD*%
%TO.C,R6*%
X122748000Y-116586000D03*
X124648000Y-116586000D03*
%TD*%
%TO.C,R7*%
X122748000Y-114046000D03*
X124648000Y-114046000D03*
%TD*%
D25*
%TO.C,R8*%
X144018000Y-58608000D03*
X144018000Y-56708000D03*
%TD*%
%TO.C,R9*%
X133858000Y-75626000D03*
X133858000Y-73726000D03*
%TD*%
D26*
%TO.C,SW1*%
X148692000Y-80386000D03*
X142392000Y-80386000D03*
X148692000Y-76586000D03*
X142392000Y-76586000D03*
%TD*%
D27*
%TO.C,U1*%
X119990000Y-91440000D03*
D28*
X113690000Y-91440000D03*
X113690000Y-93740000D03*
X113690000Y-89140000D03*
%TD*%
D29*
%TO.C,U2*%
X123284000Y-107569000D03*
X123284000Y-108839000D03*
X123284000Y-110109000D03*
X123284000Y-111379000D03*
X128684000Y-111379000D03*
X128684000Y-110109000D03*
X128684000Y-108839000D03*
X128684000Y-107569000D03*
%TD*%
D16*
%TO.C,U3*%
G36*
X137955802Y-69098482D02*
G01*
X137965509Y-69099921D01*
X137975028Y-69102306D01*
X137984268Y-69105612D01*
X137993140Y-69109808D01*
X138001557Y-69114853D01*
X138009439Y-69120699D01*
X138016711Y-69127289D01*
X138023301Y-69134561D01*
X138029147Y-69142443D01*
X138034192Y-69150860D01*
X138038388Y-69159732D01*
X138041694Y-69168972D01*
X138044079Y-69178491D01*
X138045518Y-69188198D01*
X138046000Y-69198000D01*
X138046000Y-69398000D01*
X138045518Y-69407802D01*
X138044079Y-69417509D01*
X138041694Y-69427028D01*
X138038388Y-69436268D01*
X138034192Y-69445140D01*
X138029147Y-69453557D01*
X138023301Y-69461439D01*
X138016711Y-69468711D01*
X138009439Y-69475301D01*
X138001557Y-69481147D01*
X137993140Y-69486192D01*
X137984268Y-69490388D01*
X137975028Y-69493694D01*
X137965509Y-69496079D01*
X137955802Y-69497518D01*
X137946000Y-69498000D01*
X136571000Y-69498000D01*
X136561198Y-69497518D01*
X136551491Y-69496079D01*
X136541972Y-69493694D01*
X136532732Y-69490388D01*
X136523860Y-69486192D01*
X136515443Y-69481147D01*
X136507561Y-69475301D01*
X136500289Y-69468711D01*
X136493699Y-69461439D01*
X136487853Y-69453557D01*
X136482808Y-69445140D01*
X136478612Y-69436268D01*
X136475306Y-69427028D01*
X136472921Y-69417509D01*
X136471482Y-69407802D01*
X136471000Y-69398000D01*
X136471000Y-69198000D01*
X136471482Y-69188198D01*
X136472921Y-69178491D01*
X136475306Y-69168972D01*
X136478612Y-69159732D01*
X136482808Y-69150860D01*
X136487853Y-69142443D01*
X136493699Y-69134561D01*
X136500289Y-69127289D01*
X136507561Y-69120699D01*
X136515443Y-69114853D01*
X136523860Y-69109808D01*
X136532732Y-69105612D01*
X136541972Y-69102306D01*
X136551491Y-69099921D01*
X136561198Y-69098482D01*
X136571000Y-69098000D01*
X137946000Y-69098000D01*
X137955802Y-69098482D01*
X137955802Y-69098482D01*
G37*
D30*
X137258500Y-69298000D03*
D16*
G36*
X137955802Y-68598482D02*
G01*
X137965509Y-68599921D01*
X137975028Y-68602306D01*
X137984268Y-68605612D01*
X137993140Y-68609808D01*
X138001557Y-68614853D01*
X138009439Y-68620699D01*
X138016711Y-68627289D01*
X138023301Y-68634561D01*
X138029147Y-68642443D01*
X138034192Y-68650860D01*
X138038388Y-68659732D01*
X138041694Y-68668972D01*
X138044079Y-68678491D01*
X138045518Y-68688198D01*
X138046000Y-68698000D01*
X138046000Y-68898000D01*
X138045518Y-68907802D01*
X138044079Y-68917509D01*
X138041694Y-68927028D01*
X138038388Y-68936268D01*
X138034192Y-68945140D01*
X138029147Y-68953557D01*
X138023301Y-68961439D01*
X138016711Y-68968711D01*
X138009439Y-68975301D01*
X138001557Y-68981147D01*
X137993140Y-68986192D01*
X137984268Y-68990388D01*
X137975028Y-68993694D01*
X137965509Y-68996079D01*
X137955802Y-68997518D01*
X137946000Y-68998000D01*
X136571000Y-68998000D01*
X136561198Y-68997518D01*
X136551491Y-68996079D01*
X136541972Y-68993694D01*
X136532732Y-68990388D01*
X136523860Y-68986192D01*
X136515443Y-68981147D01*
X136507561Y-68975301D01*
X136500289Y-68968711D01*
X136493699Y-68961439D01*
X136487853Y-68953557D01*
X136482808Y-68945140D01*
X136478612Y-68936268D01*
X136475306Y-68927028D01*
X136472921Y-68917509D01*
X136471482Y-68907802D01*
X136471000Y-68898000D01*
X136471000Y-68698000D01*
X136471482Y-68688198D01*
X136472921Y-68678491D01*
X136475306Y-68668972D01*
X136478612Y-68659732D01*
X136482808Y-68650860D01*
X136487853Y-68642443D01*
X136493699Y-68634561D01*
X136500289Y-68627289D01*
X136507561Y-68620699D01*
X136515443Y-68614853D01*
X136523860Y-68609808D01*
X136532732Y-68605612D01*
X136541972Y-68602306D01*
X136551491Y-68599921D01*
X136561198Y-68598482D01*
X136571000Y-68598000D01*
X137946000Y-68598000D01*
X137955802Y-68598482D01*
X137955802Y-68598482D01*
G37*
D30*
X137258500Y-68798000D03*
D16*
G36*
X137955802Y-68098482D02*
G01*
X137965509Y-68099921D01*
X137975028Y-68102306D01*
X137984268Y-68105612D01*
X137993140Y-68109808D01*
X138001557Y-68114853D01*
X138009439Y-68120699D01*
X138016711Y-68127289D01*
X138023301Y-68134561D01*
X138029147Y-68142443D01*
X138034192Y-68150860D01*
X138038388Y-68159732D01*
X138041694Y-68168972D01*
X138044079Y-68178491D01*
X138045518Y-68188198D01*
X138046000Y-68198000D01*
X138046000Y-68398000D01*
X138045518Y-68407802D01*
X138044079Y-68417509D01*
X138041694Y-68427028D01*
X138038388Y-68436268D01*
X138034192Y-68445140D01*
X138029147Y-68453557D01*
X138023301Y-68461439D01*
X138016711Y-68468711D01*
X138009439Y-68475301D01*
X138001557Y-68481147D01*
X137993140Y-68486192D01*
X137984268Y-68490388D01*
X137975028Y-68493694D01*
X137965509Y-68496079D01*
X137955802Y-68497518D01*
X137946000Y-68498000D01*
X136571000Y-68498000D01*
X136561198Y-68497518D01*
X136551491Y-68496079D01*
X136541972Y-68493694D01*
X136532732Y-68490388D01*
X136523860Y-68486192D01*
X136515443Y-68481147D01*
X136507561Y-68475301D01*
X136500289Y-68468711D01*
X136493699Y-68461439D01*
X136487853Y-68453557D01*
X136482808Y-68445140D01*
X136478612Y-68436268D01*
X136475306Y-68427028D01*
X136472921Y-68417509D01*
X136471482Y-68407802D01*
X136471000Y-68398000D01*
X136471000Y-68198000D01*
X136471482Y-68188198D01*
X136472921Y-68178491D01*
X136475306Y-68168972D01*
X136478612Y-68159732D01*
X136482808Y-68150860D01*
X136487853Y-68142443D01*
X136493699Y-68134561D01*
X136500289Y-68127289D01*
X136507561Y-68120699D01*
X136515443Y-68114853D01*
X136523860Y-68109808D01*
X136532732Y-68105612D01*
X136541972Y-68102306D01*
X136551491Y-68099921D01*
X136561198Y-68098482D01*
X136571000Y-68098000D01*
X137946000Y-68098000D01*
X137955802Y-68098482D01*
X137955802Y-68098482D01*
G37*
D30*
X137258500Y-68298000D03*
D16*
G36*
X137955802Y-67598482D02*
G01*
X137965509Y-67599921D01*
X137975028Y-67602306D01*
X137984268Y-67605612D01*
X137993140Y-67609808D01*
X138001557Y-67614853D01*
X138009439Y-67620699D01*
X138016711Y-67627289D01*
X138023301Y-67634561D01*
X138029147Y-67642443D01*
X138034192Y-67650860D01*
X138038388Y-67659732D01*
X138041694Y-67668972D01*
X138044079Y-67678491D01*
X138045518Y-67688198D01*
X138046000Y-67698000D01*
X138046000Y-67898000D01*
X138045518Y-67907802D01*
X138044079Y-67917509D01*
X138041694Y-67927028D01*
X138038388Y-67936268D01*
X138034192Y-67945140D01*
X138029147Y-67953557D01*
X138023301Y-67961439D01*
X138016711Y-67968711D01*
X138009439Y-67975301D01*
X138001557Y-67981147D01*
X137993140Y-67986192D01*
X137984268Y-67990388D01*
X137975028Y-67993694D01*
X137965509Y-67996079D01*
X137955802Y-67997518D01*
X137946000Y-67998000D01*
X136571000Y-67998000D01*
X136561198Y-67997518D01*
X136551491Y-67996079D01*
X136541972Y-67993694D01*
X136532732Y-67990388D01*
X136523860Y-67986192D01*
X136515443Y-67981147D01*
X136507561Y-67975301D01*
X136500289Y-67968711D01*
X136493699Y-67961439D01*
X136487853Y-67953557D01*
X136482808Y-67945140D01*
X136478612Y-67936268D01*
X136475306Y-67927028D01*
X136472921Y-67917509D01*
X136471482Y-67907802D01*
X136471000Y-67898000D01*
X136471000Y-67698000D01*
X136471482Y-67688198D01*
X136472921Y-67678491D01*
X136475306Y-67668972D01*
X136478612Y-67659732D01*
X136482808Y-67650860D01*
X136487853Y-67642443D01*
X136493699Y-67634561D01*
X136500289Y-67627289D01*
X136507561Y-67620699D01*
X136515443Y-67614853D01*
X136523860Y-67609808D01*
X136532732Y-67605612D01*
X136541972Y-67602306D01*
X136551491Y-67599921D01*
X136561198Y-67598482D01*
X136571000Y-67598000D01*
X137946000Y-67598000D01*
X137955802Y-67598482D01*
X137955802Y-67598482D01*
G37*
D30*
X137258500Y-67798000D03*
D16*
G36*
X137955802Y-67098482D02*
G01*
X137965509Y-67099921D01*
X137975028Y-67102306D01*
X137984268Y-67105612D01*
X137993140Y-67109808D01*
X138001557Y-67114853D01*
X138009439Y-67120699D01*
X138016711Y-67127289D01*
X138023301Y-67134561D01*
X138029147Y-67142443D01*
X138034192Y-67150860D01*
X138038388Y-67159732D01*
X138041694Y-67168972D01*
X138044079Y-67178491D01*
X138045518Y-67188198D01*
X138046000Y-67198000D01*
X138046000Y-67398000D01*
X138045518Y-67407802D01*
X138044079Y-67417509D01*
X138041694Y-67427028D01*
X138038388Y-67436268D01*
X138034192Y-67445140D01*
X138029147Y-67453557D01*
X138023301Y-67461439D01*
X138016711Y-67468711D01*
X138009439Y-67475301D01*
X138001557Y-67481147D01*
X137993140Y-67486192D01*
X137984268Y-67490388D01*
X137975028Y-67493694D01*
X137965509Y-67496079D01*
X137955802Y-67497518D01*
X137946000Y-67498000D01*
X136571000Y-67498000D01*
X136561198Y-67497518D01*
X136551491Y-67496079D01*
X136541972Y-67493694D01*
X136532732Y-67490388D01*
X136523860Y-67486192D01*
X136515443Y-67481147D01*
X136507561Y-67475301D01*
X136500289Y-67468711D01*
X136493699Y-67461439D01*
X136487853Y-67453557D01*
X136482808Y-67445140D01*
X136478612Y-67436268D01*
X136475306Y-67427028D01*
X136472921Y-67417509D01*
X136471482Y-67407802D01*
X136471000Y-67398000D01*
X136471000Y-67198000D01*
X136471482Y-67188198D01*
X136472921Y-67178491D01*
X136475306Y-67168972D01*
X136478612Y-67159732D01*
X136482808Y-67150860D01*
X136487853Y-67142443D01*
X136493699Y-67134561D01*
X136500289Y-67127289D01*
X136507561Y-67120699D01*
X136515443Y-67114853D01*
X136523860Y-67109808D01*
X136532732Y-67105612D01*
X136541972Y-67102306D01*
X136551491Y-67099921D01*
X136561198Y-67098482D01*
X136571000Y-67098000D01*
X137946000Y-67098000D01*
X137955802Y-67098482D01*
X137955802Y-67098482D01*
G37*
D30*
X137258500Y-67298000D03*
D16*
G36*
X137955802Y-66598482D02*
G01*
X137965509Y-66599921D01*
X137975028Y-66602306D01*
X137984268Y-66605612D01*
X137993140Y-66609808D01*
X138001557Y-66614853D01*
X138009439Y-66620699D01*
X138016711Y-66627289D01*
X138023301Y-66634561D01*
X138029147Y-66642443D01*
X138034192Y-66650860D01*
X138038388Y-66659732D01*
X138041694Y-66668972D01*
X138044079Y-66678491D01*
X138045518Y-66688198D01*
X138046000Y-66698000D01*
X138046000Y-66898000D01*
X138045518Y-66907802D01*
X138044079Y-66917509D01*
X138041694Y-66927028D01*
X138038388Y-66936268D01*
X138034192Y-66945140D01*
X138029147Y-66953557D01*
X138023301Y-66961439D01*
X138016711Y-66968711D01*
X138009439Y-66975301D01*
X138001557Y-66981147D01*
X137993140Y-66986192D01*
X137984268Y-66990388D01*
X137975028Y-66993694D01*
X137965509Y-66996079D01*
X137955802Y-66997518D01*
X137946000Y-66998000D01*
X136571000Y-66998000D01*
X136561198Y-66997518D01*
X136551491Y-66996079D01*
X136541972Y-66993694D01*
X136532732Y-66990388D01*
X136523860Y-66986192D01*
X136515443Y-66981147D01*
X136507561Y-66975301D01*
X136500289Y-66968711D01*
X136493699Y-66961439D01*
X136487853Y-66953557D01*
X136482808Y-66945140D01*
X136478612Y-66936268D01*
X136475306Y-66927028D01*
X136472921Y-66917509D01*
X136471482Y-66907802D01*
X136471000Y-66898000D01*
X136471000Y-66698000D01*
X136471482Y-66688198D01*
X136472921Y-66678491D01*
X136475306Y-66668972D01*
X136478612Y-66659732D01*
X136482808Y-66650860D01*
X136487853Y-66642443D01*
X136493699Y-66634561D01*
X136500289Y-66627289D01*
X136507561Y-66620699D01*
X136515443Y-66614853D01*
X136523860Y-66609808D01*
X136532732Y-66605612D01*
X136541972Y-66602306D01*
X136551491Y-66599921D01*
X136561198Y-66598482D01*
X136571000Y-66598000D01*
X137946000Y-66598000D01*
X137955802Y-66598482D01*
X137955802Y-66598482D01*
G37*
D30*
X137258500Y-66798000D03*
D16*
G36*
X137955802Y-66098482D02*
G01*
X137965509Y-66099921D01*
X137975028Y-66102306D01*
X137984268Y-66105612D01*
X137993140Y-66109808D01*
X138001557Y-66114853D01*
X138009439Y-66120699D01*
X138016711Y-66127289D01*
X138023301Y-66134561D01*
X138029147Y-66142443D01*
X138034192Y-66150860D01*
X138038388Y-66159732D01*
X138041694Y-66168972D01*
X138044079Y-66178491D01*
X138045518Y-66188198D01*
X138046000Y-66198000D01*
X138046000Y-66398000D01*
X138045518Y-66407802D01*
X138044079Y-66417509D01*
X138041694Y-66427028D01*
X138038388Y-66436268D01*
X138034192Y-66445140D01*
X138029147Y-66453557D01*
X138023301Y-66461439D01*
X138016711Y-66468711D01*
X138009439Y-66475301D01*
X138001557Y-66481147D01*
X137993140Y-66486192D01*
X137984268Y-66490388D01*
X137975028Y-66493694D01*
X137965509Y-66496079D01*
X137955802Y-66497518D01*
X137946000Y-66498000D01*
X136571000Y-66498000D01*
X136561198Y-66497518D01*
X136551491Y-66496079D01*
X136541972Y-66493694D01*
X136532732Y-66490388D01*
X136523860Y-66486192D01*
X136515443Y-66481147D01*
X136507561Y-66475301D01*
X136500289Y-66468711D01*
X136493699Y-66461439D01*
X136487853Y-66453557D01*
X136482808Y-66445140D01*
X136478612Y-66436268D01*
X136475306Y-66427028D01*
X136472921Y-66417509D01*
X136471482Y-66407802D01*
X136471000Y-66398000D01*
X136471000Y-66198000D01*
X136471482Y-66188198D01*
X136472921Y-66178491D01*
X136475306Y-66168972D01*
X136478612Y-66159732D01*
X136482808Y-66150860D01*
X136487853Y-66142443D01*
X136493699Y-66134561D01*
X136500289Y-66127289D01*
X136507561Y-66120699D01*
X136515443Y-66114853D01*
X136523860Y-66109808D01*
X136532732Y-66105612D01*
X136541972Y-66102306D01*
X136551491Y-66099921D01*
X136561198Y-66098482D01*
X136571000Y-66098000D01*
X137946000Y-66098000D01*
X137955802Y-66098482D01*
X137955802Y-66098482D01*
G37*
D30*
X137258500Y-66298000D03*
D16*
G36*
X137955802Y-65598482D02*
G01*
X137965509Y-65599921D01*
X137975028Y-65602306D01*
X137984268Y-65605612D01*
X137993140Y-65609808D01*
X138001557Y-65614853D01*
X138009439Y-65620699D01*
X138016711Y-65627289D01*
X138023301Y-65634561D01*
X138029147Y-65642443D01*
X138034192Y-65650860D01*
X138038388Y-65659732D01*
X138041694Y-65668972D01*
X138044079Y-65678491D01*
X138045518Y-65688198D01*
X138046000Y-65698000D01*
X138046000Y-65898000D01*
X138045518Y-65907802D01*
X138044079Y-65917509D01*
X138041694Y-65927028D01*
X138038388Y-65936268D01*
X138034192Y-65945140D01*
X138029147Y-65953557D01*
X138023301Y-65961439D01*
X138016711Y-65968711D01*
X138009439Y-65975301D01*
X138001557Y-65981147D01*
X137993140Y-65986192D01*
X137984268Y-65990388D01*
X137975028Y-65993694D01*
X137965509Y-65996079D01*
X137955802Y-65997518D01*
X137946000Y-65998000D01*
X136571000Y-65998000D01*
X136561198Y-65997518D01*
X136551491Y-65996079D01*
X136541972Y-65993694D01*
X136532732Y-65990388D01*
X136523860Y-65986192D01*
X136515443Y-65981147D01*
X136507561Y-65975301D01*
X136500289Y-65968711D01*
X136493699Y-65961439D01*
X136487853Y-65953557D01*
X136482808Y-65945140D01*
X136478612Y-65936268D01*
X136475306Y-65927028D01*
X136472921Y-65917509D01*
X136471482Y-65907802D01*
X136471000Y-65898000D01*
X136471000Y-65698000D01*
X136471482Y-65688198D01*
X136472921Y-65678491D01*
X136475306Y-65668972D01*
X136478612Y-65659732D01*
X136482808Y-65650860D01*
X136487853Y-65642443D01*
X136493699Y-65634561D01*
X136500289Y-65627289D01*
X136507561Y-65620699D01*
X136515443Y-65614853D01*
X136523860Y-65609808D01*
X136532732Y-65605612D01*
X136541972Y-65602306D01*
X136551491Y-65599921D01*
X136561198Y-65598482D01*
X136571000Y-65598000D01*
X137946000Y-65598000D01*
X137955802Y-65598482D01*
X137955802Y-65598482D01*
G37*
D30*
X137258500Y-65798000D03*
D16*
G36*
X137955802Y-65098482D02*
G01*
X137965509Y-65099921D01*
X137975028Y-65102306D01*
X137984268Y-65105612D01*
X137993140Y-65109808D01*
X138001557Y-65114853D01*
X138009439Y-65120699D01*
X138016711Y-65127289D01*
X138023301Y-65134561D01*
X138029147Y-65142443D01*
X138034192Y-65150860D01*
X138038388Y-65159732D01*
X138041694Y-65168972D01*
X138044079Y-65178491D01*
X138045518Y-65188198D01*
X138046000Y-65198000D01*
X138046000Y-65398000D01*
X138045518Y-65407802D01*
X138044079Y-65417509D01*
X138041694Y-65427028D01*
X138038388Y-65436268D01*
X138034192Y-65445140D01*
X138029147Y-65453557D01*
X138023301Y-65461439D01*
X138016711Y-65468711D01*
X138009439Y-65475301D01*
X138001557Y-65481147D01*
X137993140Y-65486192D01*
X137984268Y-65490388D01*
X137975028Y-65493694D01*
X137965509Y-65496079D01*
X137955802Y-65497518D01*
X137946000Y-65498000D01*
X136571000Y-65498000D01*
X136561198Y-65497518D01*
X136551491Y-65496079D01*
X136541972Y-65493694D01*
X136532732Y-65490388D01*
X136523860Y-65486192D01*
X136515443Y-65481147D01*
X136507561Y-65475301D01*
X136500289Y-65468711D01*
X136493699Y-65461439D01*
X136487853Y-65453557D01*
X136482808Y-65445140D01*
X136478612Y-65436268D01*
X136475306Y-65427028D01*
X136472921Y-65417509D01*
X136471482Y-65407802D01*
X136471000Y-65398000D01*
X136471000Y-65198000D01*
X136471482Y-65188198D01*
X136472921Y-65178491D01*
X136475306Y-65168972D01*
X136478612Y-65159732D01*
X136482808Y-65150860D01*
X136487853Y-65142443D01*
X136493699Y-65134561D01*
X136500289Y-65127289D01*
X136507561Y-65120699D01*
X136515443Y-65114853D01*
X136523860Y-65109808D01*
X136532732Y-65105612D01*
X136541972Y-65102306D01*
X136551491Y-65099921D01*
X136561198Y-65098482D01*
X136571000Y-65098000D01*
X137946000Y-65098000D01*
X137955802Y-65098482D01*
X137955802Y-65098482D01*
G37*
D30*
X137258500Y-65298000D03*
D16*
G36*
X137955802Y-64598482D02*
G01*
X137965509Y-64599921D01*
X137975028Y-64602306D01*
X137984268Y-64605612D01*
X137993140Y-64609808D01*
X138001557Y-64614853D01*
X138009439Y-64620699D01*
X138016711Y-64627289D01*
X138023301Y-64634561D01*
X138029147Y-64642443D01*
X138034192Y-64650860D01*
X138038388Y-64659732D01*
X138041694Y-64668972D01*
X138044079Y-64678491D01*
X138045518Y-64688198D01*
X138046000Y-64698000D01*
X138046000Y-64898000D01*
X138045518Y-64907802D01*
X138044079Y-64917509D01*
X138041694Y-64927028D01*
X138038388Y-64936268D01*
X138034192Y-64945140D01*
X138029147Y-64953557D01*
X138023301Y-64961439D01*
X138016711Y-64968711D01*
X138009439Y-64975301D01*
X138001557Y-64981147D01*
X137993140Y-64986192D01*
X137984268Y-64990388D01*
X137975028Y-64993694D01*
X137965509Y-64996079D01*
X137955802Y-64997518D01*
X137946000Y-64998000D01*
X136571000Y-64998000D01*
X136561198Y-64997518D01*
X136551491Y-64996079D01*
X136541972Y-64993694D01*
X136532732Y-64990388D01*
X136523860Y-64986192D01*
X136515443Y-64981147D01*
X136507561Y-64975301D01*
X136500289Y-64968711D01*
X136493699Y-64961439D01*
X136487853Y-64953557D01*
X136482808Y-64945140D01*
X136478612Y-64936268D01*
X136475306Y-64927028D01*
X136472921Y-64917509D01*
X136471482Y-64907802D01*
X136471000Y-64898000D01*
X136471000Y-64698000D01*
X136471482Y-64688198D01*
X136472921Y-64678491D01*
X136475306Y-64668972D01*
X136478612Y-64659732D01*
X136482808Y-64650860D01*
X136487853Y-64642443D01*
X136493699Y-64634561D01*
X136500289Y-64627289D01*
X136507561Y-64620699D01*
X136515443Y-64614853D01*
X136523860Y-64609808D01*
X136532732Y-64605612D01*
X136541972Y-64602306D01*
X136551491Y-64599921D01*
X136561198Y-64598482D01*
X136571000Y-64598000D01*
X137946000Y-64598000D01*
X137955802Y-64598482D01*
X137955802Y-64598482D01*
G37*
D30*
X137258500Y-64798000D03*
D16*
G36*
X137955802Y-64098482D02*
G01*
X137965509Y-64099921D01*
X137975028Y-64102306D01*
X137984268Y-64105612D01*
X137993140Y-64109808D01*
X138001557Y-64114853D01*
X138009439Y-64120699D01*
X138016711Y-64127289D01*
X138023301Y-64134561D01*
X138029147Y-64142443D01*
X138034192Y-64150860D01*
X138038388Y-64159732D01*
X138041694Y-64168972D01*
X138044079Y-64178491D01*
X138045518Y-64188198D01*
X138046000Y-64198000D01*
X138046000Y-64398000D01*
X138045518Y-64407802D01*
X138044079Y-64417509D01*
X138041694Y-64427028D01*
X138038388Y-64436268D01*
X138034192Y-64445140D01*
X138029147Y-64453557D01*
X138023301Y-64461439D01*
X138016711Y-64468711D01*
X138009439Y-64475301D01*
X138001557Y-64481147D01*
X137993140Y-64486192D01*
X137984268Y-64490388D01*
X137975028Y-64493694D01*
X137965509Y-64496079D01*
X137955802Y-64497518D01*
X137946000Y-64498000D01*
X136571000Y-64498000D01*
X136561198Y-64497518D01*
X136551491Y-64496079D01*
X136541972Y-64493694D01*
X136532732Y-64490388D01*
X136523860Y-64486192D01*
X136515443Y-64481147D01*
X136507561Y-64475301D01*
X136500289Y-64468711D01*
X136493699Y-64461439D01*
X136487853Y-64453557D01*
X136482808Y-64445140D01*
X136478612Y-64436268D01*
X136475306Y-64427028D01*
X136472921Y-64417509D01*
X136471482Y-64407802D01*
X136471000Y-64398000D01*
X136471000Y-64198000D01*
X136471482Y-64188198D01*
X136472921Y-64178491D01*
X136475306Y-64168972D01*
X136478612Y-64159732D01*
X136482808Y-64150860D01*
X136487853Y-64142443D01*
X136493699Y-64134561D01*
X136500289Y-64127289D01*
X136507561Y-64120699D01*
X136515443Y-64114853D01*
X136523860Y-64109808D01*
X136532732Y-64105612D01*
X136541972Y-64102306D01*
X136551491Y-64099921D01*
X136561198Y-64098482D01*
X136571000Y-64098000D01*
X137946000Y-64098000D01*
X137955802Y-64098482D01*
X137955802Y-64098482D01*
G37*
D30*
X137258500Y-64298000D03*
D16*
G36*
X137955802Y-63598482D02*
G01*
X137965509Y-63599921D01*
X137975028Y-63602306D01*
X137984268Y-63605612D01*
X137993140Y-63609808D01*
X138001557Y-63614853D01*
X138009439Y-63620699D01*
X138016711Y-63627289D01*
X138023301Y-63634561D01*
X138029147Y-63642443D01*
X138034192Y-63650860D01*
X138038388Y-63659732D01*
X138041694Y-63668972D01*
X138044079Y-63678491D01*
X138045518Y-63688198D01*
X138046000Y-63698000D01*
X138046000Y-63898000D01*
X138045518Y-63907802D01*
X138044079Y-63917509D01*
X138041694Y-63927028D01*
X138038388Y-63936268D01*
X138034192Y-63945140D01*
X138029147Y-63953557D01*
X138023301Y-63961439D01*
X138016711Y-63968711D01*
X138009439Y-63975301D01*
X138001557Y-63981147D01*
X137993140Y-63986192D01*
X137984268Y-63990388D01*
X137975028Y-63993694D01*
X137965509Y-63996079D01*
X137955802Y-63997518D01*
X137946000Y-63998000D01*
X136571000Y-63998000D01*
X136561198Y-63997518D01*
X136551491Y-63996079D01*
X136541972Y-63993694D01*
X136532732Y-63990388D01*
X136523860Y-63986192D01*
X136515443Y-63981147D01*
X136507561Y-63975301D01*
X136500289Y-63968711D01*
X136493699Y-63961439D01*
X136487853Y-63953557D01*
X136482808Y-63945140D01*
X136478612Y-63936268D01*
X136475306Y-63927028D01*
X136472921Y-63917509D01*
X136471482Y-63907802D01*
X136471000Y-63898000D01*
X136471000Y-63698000D01*
X136471482Y-63688198D01*
X136472921Y-63678491D01*
X136475306Y-63668972D01*
X136478612Y-63659732D01*
X136482808Y-63650860D01*
X136487853Y-63642443D01*
X136493699Y-63634561D01*
X136500289Y-63627289D01*
X136507561Y-63620699D01*
X136515443Y-63614853D01*
X136523860Y-63609808D01*
X136532732Y-63605612D01*
X136541972Y-63602306D01*
X136551491Y-63599921D01*
X136561198Y-63598482D01*
X136571000Y-63598000D01*
X137946000Y-63598000D01*
X137955802Y-63598482D01*
X137955802Y-63598482D01*
G37*
D30*
X137258500Y-63798000D03*
D16*
G36*
X135955802Y-61598482D02*
G01*
X135965509Y-61599921D01*
X135975028Y-61602306D01*
X135984268Y-61605612D01*
X135993140Y-61609808D01*
X136001557Y-61614853D01*
X136009439Y-61620699D01*
X136016711Y-61627289D01*
X136023301Y-61634561D01*
X136029147Y-61642443D01*
X136034192Y-61650860D01*
X136038388Y-61659732D01*
X136041694Y-61668972D01*
X136044079Y-61678491D01*
X136045518Y-61688198D01*
X136046000Y-61698000D01*
X136046000Y-63073000D01*
X136045518Y-63082802D01*
X136044079Y-63092509D01*
X136041694Y-63102028D01*
X136038388Y-63111268D01*
X136034192Y-63120140D01*
X136029147Y-63128557D01*
X136023301Y-63136439D01*
X136016711Y-63143711D01*
X136009439Y-63150301D01*
X136001557Y-63156147D01*
X135993140Y-63161192D01*
X135984268Y-63165388D01*
X135975028Y-63168694D01*
X135965509Y-63171079D01*
X135955802Y-63172518D01*
X135946000Y-63173000D01*
X135746000Y-63173000D01*
X135736198Y-63172518D01*
X135726491Y-63171079D01*
X135716972Y-63168694D01*
X135707732Y-63165388D01*
X135698860Y-63161192D01*
X135690443Y-63156147D01*
X135682561Y-63150301D01*
X135675289Y-63143711D01*
X135668699Y-63136439D01*
X135662853Y-63128557D01*
X135657808Y-63120140D01*
X135653612Y-63111268D01*
X135650306Y-63102028D01*
X135647921Y-63092509D01*
X135646482Y-63082802D01*
X135646000Y-63073000D01*
X135646000Y-61698000D01*
X135646482Y-61688198D01*
X135647921Y-61678491D01*
X135650306Y-61668972D01*
X135653612Y-61659732D01*
X135657808Y-61650860D01*
X135662853Y-61642443D01*
X135668699Y-61634561D01*
X135675289Y-61627289D01*
X135682561Y-61620699D01*
X135690443Y-61614853D01*
X135698860Y-61609808D01*
X135707732Y-61605612D01*
X135716972Y-61602306D01*
X135726491Y-61599921D01*
X135736198Y-61598482D01*
X135746000Y-61598000D01*
X135946000Y-61598000D01*
X135955802Y-61598482D01*
X135955802Y-61598482D01*
G37*
D30*
X135846000Y-62385500D03*
D16*
G36*
X135455802Y-61598482D02*
G01*
X135465509Y-61599921D01*
X135475028Y-61602306D01*
X135484268Y-61605612D01*
X135493140Y-61609808D01*
X135501557Y-61614853D01*
X135509439Y-61620699D01*
X135516711Y-61627289D01*
X135523301Y-61634561D01*
X135529147Y-61642443D01*
X135534192Y-61650860D01*
X135538388Y-61659732D01*
X135541694Y-61668972D01*
X135544079Y-61678491D01*
X135545518Y-61688198D01*
X135546000Y-61698000D01*
X135546000Y-63073000D01*
X135545518Y-63082802D01*
X135544079Y-63092509D01*
X135541694Y-63102028D01*
X135538388Y-63111268D01*
X135534192Y-63120140D01*
X135529147Y-63128557D01*
X135523301Y-63136439D01*
X135516711Y-63143711D01*
X135509439Y-63150301D01*
X135501557Y-63156147D01*
X135493140Y-63161192D01*
X135484268Y-63165388D01*
X135475028Y-63168694D01*
X135465509Y-63171079D01*
X135455802Y-63172518D01*
X135446000Y-63173000D01*
X135246000Y-63173000D01*
X135236198Y-63172518D01*
X135226491Y-63171079D01*
X135216972Y-63168694D01*
X135207732Y-63165388D01*
X135198860Y-63161192D01*
X135190443Y-63156147D01*
X135182561Y-63150301D01*
X135175289Y-63143711D01*
X135168699Y-63136439D01*
X135162853Y-63128557D01*
X135157808Y-63120140D01*
X135153612Y-63111268D01*
X135150306Y-63102028D01*
X135147921Y-63092509D01*
X135146482Y-63082802D01*
X135146000Y-63073000D01*
X135146000Y-61698000D01*
X135146482Y-61688198D01*
X135147921Y-61678491D01*
X135150306Y-61668972D01*
X135153612Y-61659732D01*
X135157808Y-61650860D01*
X135162853Y-61642443D01*
X135168699Y-61634561D01*
X135175289Y-61627289D01*
X135182561Y-61620699D01*
X135190443Y-61614853D01*
X135198860Y-61609808D01*
X135207732Y-61605612D01*
X135216972Y-61602306D01*
X135226491Y-61599921D01*
X135236198Y-61598482D01*
X135246000Y-61598000D01*
X135446000Y-61598000D01*
X135455802Y-61598482D01*
X135455802Y-61598482D01*
G37*
D30*
X135346000Y-62385500D03*
D16*
G36*
X134955802Y-61598482D02*
G01*
X134965509Y-61599921D01*
X134975028Y-61602306D01*
X134984268Y-61605612D01*
X134993140Y-61609808D01*
X135001557Y-61614853D01*
X135009439Y-61620699D01*
X135016711Y-61627289D01*
X135023301Y-61634561D01*
X135029147Y-61642443D01*
X135034192Y-61650860D01*
X135038388Y-61659732D01*
X135041694Y-61668972D01*
X135044079Y-61678491D01*
X135045518Y-61688198D01*
X135046000Y-61698000D01*
X135046000Y-63073000D01*
X135045518Y-63082802D01*
X135044079Y-63092509D01*
X135041694Y-63102028D01*
X135038388Y-63111268D01*
X135034192Y-63120140D01*
X135029147Y-63128557D01*
X135023301Y-63136439D01*
X135016711Y-63143711D01*
X135009439Y-63150301D01*
X135001557Y-63156147D01*
X134993140Y-63161192D01*
X134984268Y-63165388D01*
X134975028Y-63168694D01*
X134965509Y-63171079D01*
X134955802Y-63172518D01*
X134946000Y-63173000D01*
X134746000Y-63173000D01*
X134736198Y-63172518D01*
X134726491Y-63171079D01*
X134716972Y-63168694D01*
X134707732Y-63165388D01*
X134698860Y-63161192D01*
X134690443Y-63156147D01*
X134682561Y-63150301D01*
X134675289Y-63143711D01*
X134668699Y-63136439D01*
X134662853Y-63128557D01*
X134657808Y-63120140D01*
X134653612Y-63111268D01*
X134650306Y-63102028D01*
X134647921Y-63092509D01*
X134646482Y-63082802D01*
X134646000Y-63073000D01*
X134646000Y-61698000D01*
X134646482Y-61688198D01*
X134647921Y-61678491D01*
X134650306Y-61668972D01*
X134653612Y-61659732D01*
X134657808Y-61650860D01*
X134662853Y-61642443D01*
X134668699Y-61634561D01*
X134675289Y-61627289D01*
X134682561Y-61620699D01*
X134690443Y-61614853D01*
X134698860Y-61609808D01*
X134707732Y-61605612D01*
X134716972Y-61602306D01*
X134726491Y-61599921D01*
X134736198Y-61598482D01*
X134746000Y-61598000D01*
X134946000Y-61598000D01*
X134955802Y-61598482D01*
X134955802Y-61598482D01*
G37*
D30*
X134846000Y-62385500D03*
D16*
G36*
X134455802Y-61598482D02*
G01*
X134465509Y-61599921D01*
X134475028Y-61602306D01*
X134484268Y-61605612D01*
X134493140Y-61609808D01*
X134501557Y-61614853D01*
X134509439Y-61620699D01*
X134516711Y-61627289D01*
X134523301Y-61634561D01*
X134529147Y-61642443D01*
X134534192Y-61650860D01*
X134538388Y-61659732D01*
X134541694Y-61668972D01*
X134544079Y-61678491D01*
X134545518Y-61688198D01*
X134546000Y-61698000D01*
X134546000Y-63073000D01*
X134545518Y-63082802D01*
X134544079Y-63092509D01*
X134541694Y-63102028D01*
X134538388Y-63111268D01*
X134534192Y-63120140D01*
X134529147Y-63128557D01*
X134523301Y-63136439D01*
X134516711Y-63143711D01*
X134509439Y-63150301D01*
X134501557Y-63156147D01*
X134493140Y-63161192D01*
X134484268Y-63165388D01*
X134475028Y-63168694D01*
X134465509Y-63171079D01*
X134455802Y-63172518D01*
X134446000Y-63173000D01*
X134246000Y-63173000D01*
X134236198Y-63172518D01*
X134226491Y-63171079D01*
X134216972Y-63168694D01*
X134207732Y-63165388D01*
X134198860Y-63161192D01*
X134190443Y-63156147D01*
X134182561Y-63150301D01*
X134175289Y-63143711D01*
X134168699Y-63136439D01*
X134162853Y-63128557D01*
X134157808Y-63120140D01*
X134153612Y-63111268D01*
X134150306Y-63102028D01*
X134147921Y-63092509D01*
X134146482Y-63082802D01*
X134146000Y-63073000D01*
X134146000Y-61698000D01*
X134146482Y-61688198D01*
X134147921Y-61678491D01*
X134150306Y-61668972D01*
X134153612Y-61659732D01*
X134157808Y-61650860D01*
X134162853Y-61642443D01*
X134168699Y-61634561D01*
X134175289Y-61627289D01*
X134182561Y-61620699D01*
X134190443Y-61614853D01*
X134198860Y-61609808D01*
X134207732Y-61605612D01*
X134216972Y-61602306D01*
X134226491Y-61599921D01*
X134236198Y-61598482D01*
X134246000Y-61598000D01*
X134446000Y-61598000D01*
X134455802Y-61598482D01*
X134455802Y-61598482D01*
G37*
D30*
X134346000Y-62385500D03*
D16*
G36*
X133955802Y-61598482D02*
G01*
X133965509Y-61599921D01*
X133975028Y-61602306D01*
X133984268Y-61605612D01*
X133993140Y-61609808D01*
X134001557Y-61614853D01*
X134009439Y-61620699D01*
X134016711Y-61627289D01*
X134023301Y-61634561D01*
X134029147Y-61642443D01*
X134034192Y-61650860D01*
X134038388Y-61659732D01*
X134041694Y-61668972D01*
X134044079Y-61678491D01*
X134045518Y-61688198D01*
X134046000Y-61698000D01*
X134046000Y-63073000D01*
X134045518Y-63082802D01*
X134044079Y-63092509D01*
X134041694Y-63102028D01*
X134038388Y-63111268D01*
X134034192Y-63120140D01*
X134029147Y-63128557D01*
X134023301Y-63136439D01*
X134016711Y-63143711D01*
X134009439Y-63150301D01*
X134001557Y-63156147D01*
X133993140Y-63161192D01*
X133984268Y-63165388D01*
X133975028Y-63168694D01*
X133965509Y-63171079D01*
X133955802Y-63172518D01*
X133946000Y-63173000D01*
X133746000Y-63173000D01*
X133736198Y-63172518D01*
X133726491Y-63171079D01*
X133716972Y-63168694D01*
X133707732Y-63165388D01*
X133698860Y-63161192D01*
X133690443Y-63156147D01*
X133682561Y-63150301D01*
X133675289Y-63143711D01*
X133668699Y-63136439D01*
X133662853Y-63128557D01*
X133657808Y-63120140D01*
X133653612Y-63111268D01*
X133650306Y-63102028D01*
X133647921Y-63092509D01*
X133646482Y-63082802D01*
X133646000Y-63073000D01*
X133646000Y-61698000D01*
X133646482Y-61688198D01*
X133647921Y-61678491D01*
X133650306Y-61668972D01*
X133653612Y-61659732D01*
X133657808Y-61650860D01*
X133662853Y-61642443D01*
X133668699Y-61634561D01*
X133675289Y-61627289D01*
X133682561Y-61620699D01*
X133690443Y-61614853D01*
X133698860Y-61609808D01*
X133707732Y-61605612D01*
X133716972Y-61602306D01*
X133726491Y-61599921D01*
X133736198Y-61598482D01*
X133746000Y-61598000D01*
X133946000Y-61598000D01*
X133955802Y-61598482D01*
X133955802Y-61598482D01*
G37*
D30*
X133846000Y-62385500D03*
D16*
G36*
X133455802Y-61598482D02*
G01*
X133465509Y-61599921D01*
X133475028Y-61602306D01*
X133484268Y-61605612D01*
X133493140Y-61609808D01*
X133501557Y-61614853D01*
X133509439Y-61620699D01*
X133516711Y-61627289D01*
X133523301Y-61634561D01*
X133529147Y-61642443D01*
X133534192Y-61650860D01*
X133538388Y-61659732D01*
X133541694Y-61668972D01*
X133544079Y-61678491D01*
X133545518Y-61688198D01*
X133546000Y-61698000D01*
X133546000Y-63073000D01*
X133545518Y-63082802D01*
X133544079Y-63092509D01*
X133541694Y-63102028D01*
X133538388Y-63111268D01*
X133534192Y-63120140D01*
X133529147Y-63128557D01*
X133523301Y-63136439D01*
X133516711Y-63143711D01*
X133509439Y-63150301D01*
X133501557Y-63156147D01*
X133493140Y-63161192D01*
X133484268Y-63165388D01*
X133475028Y-63168694D01*
X133465509Y-63171079D01*
X133455802Y-63172518D01*
X133446000Y-63173000D01*
X133246000Y-63173000D01*
X133236198Y-63172518D01*
X133226491Y-63171079D01*
X133216972Y-63168694D01*
X133207732Y-63165388D01*
X133198860Y-63161192D01*
X133190443Y-63156147D01*
X133182561Y-63150301D01*
X133175289Y-63143711D01*
X133168699Y-63136439D01*
X133162853Y-63128557D01*
X133157808Y-63120140D01*
X133153612Y-63111268D01*
X133150306Y-63102028D01*
X133147921Y-63092509D01*
X133146482Y-63082802D01*
X133146000Y-63073000D01*
X133146000Y-61698000D01*
X133146482Y-61688198D01*
X133147921Y-61678491D01*
X133150306Y-61668972D01*
X133153612Y-61659732D01*
X133157808Y-61650860D01*
X133162853Y-61642443D01*
X133168699Y-61634561D01*
X133175289Y-61627289D01*
X133182561Y-61620699D01*
X133190443Y-61614853D01*
X133198860Y-61609808D01*
X133207732Y-61605612D01*
X133216972Y-61602306D01*
X133226491Y-61599921D01*
X133236198Y-61598482D01*
X133246000Y-61598000D01*
X133446000Y-61598000D01*
X133455802Y-61598482D01*
X133455802Y-61598482D01*
G37*
D30*
X133346000Y-62385500D03*
D16*
G36*
X132955802Y-61598482D02*
G01*
X132965509Y-61599921D01*
X132975028Y-61602306D01*
X132984268Y-61605612D01*
X132993140Y-61609808D01*
X133001557Y-61614853D01*
X133009439Y-61620699D01*
X133016711Y-61627289D01*
X133023301Y-61634561D01*
X133029147Y-61642443D01*
X133034192Y-61650860D01*
X133038388Y-61659732D01*
X133041694Y-61668972D01*
X133044079Y-61678491D01*
X133045518Y-61688198D01*
X133046000Y-61698000D01*
X133046000Y-63073000D01*
X133045518Y-63082802D01*
X133044079Y-63092509D01*
X133041694Y-63102028D01*
X133038388Y-63111268D01*
X133034192Y-63120140D01*
X133029147Y-63128557D01*
X133023301Y-63136439D01*
X133016711Y-63143711D01*
X133009439Y-63150301D01*
X133001557Y-63156147D01*
X132993140Y-63161192D01*
X132984268Y-63165388D01*
X132975028Y-63168694D01*
X132965509Y-63171079D01*
X132955802Y-63172518D01*
X132946000Y-63173000D01*
X132746000Y-63173000D01*
X132736198Y-63172518D01*
X132726491Y-63171079D01*
X132716972Y-63168694D01*
X132707732Y-63165388D01*
X132698860Y-63161192D01*
X132690443Y-63156147D01*
X132682561Y-63150301D01*
X132675289Y-63143711D01*
X132668699Y-63136439D01*
X132662853Y-63128557D01*
X132657808Y-63120140D01*
X132653612Y-63111268D01*
X132650306Y-63102028D01*
X132647921Y-63092509D01*
X132646482Y-63082802D01*
X132646000Y-63073000D01*
X132646000Y-61698000D01*
X132646482Y-61688198D01*
X132647921Y-61678491D01*
X132650306Y-61668972D01*
X132653612Y-61659732D01*
X132657808Y-61650860D01*
X132662853Y-61642443D01*
X132668699Y-61634561D01*
X132675289Y-61627289D01*
X132682561Y-61620699D01*
X132690443Y-61614853D01*
X132698860Y-61609808D01*
X132707732Y-61605612D01*
X132716972Y-61602306D01*
X132726491Y-61599921D01*
X132736198Y-61598482D01*
X132746000Y-61598000D01*
X132946000Y-61598000D01*
X132955802Y-61598482D01*
X132955802Y-61598482D01*
G37*
D30*
X132846000Y-62385500D03*
D16*
G36*
X132455802Y-61598482D02*
G01*
X132465509Y-61599921D01*
X132475028Y-61602306D01*
X132484268Y-61605612D01*
X132493140Y-61609808D01*
X132501557Y-61614853D01*
X132509439Y-61620699D01*
X132516711Y-61627289D01*
X132523301Y-61634561D01*
X132529147Y-61642443D01*
X132534192Y-61650860D01*
X132538388Y-61659732D01*
X132541694Y-61668972D01*
X132544079Y-61678491D01*
X132545518Y-61688198D01*
X132546000Y-61698000D01*
X132546000Y-63073000D01*
X132545518Y-63082802D01*
X132544079Y-63092509D01*
X132541694Y-63102028D01*
X132538388Y-63111268D01*
X132534192Y-63120140D01*
X132529147Y-63128557D01*
X132523301Y-63136439D01*
X132516711Y-63143711D01*
X132509439Y-63150301D01*
X132501557Y-63156147D01*
X132493140Y-63161192D01*
X132484268Y-63165388D01*
X132475028Y-63168694D01*
X132465509Y-63171079D01*
X132455802Y-63172518D01*
X132446000Y-63173000D01*
X132246000Y-63173000D01*
X132236198Y-63172518D01*
X132226491Y-63171079D01*
X132216972Y-63168694D01*
X132207732Y-63165388D01*
X132198860Y-63161192D01*
X132190443Y-63156147D01*
X132182561Y-63150301D01*
X132175289Y-63143711D01*
X132168699Y-63136439D01*
X132162853Y-63128557D01*
X132157808Y-63120140D01*
X132153612Y-63111268D01*
X132150306Y-63102028D01*
X132147921Y-63092509D01*
X132146482Y-63082802D01*
X132146000Y-63073000D01*
X132146000Y-61698000D01*
X132146482Y-61688198D01*
X132147921Y-61678491D01*
X132150306Y-61668972D01*
X132153612Y-61659732D01*
X132157808Y-61650860D01*
X132162853Y-61642443D01*
X132168699Y-61634561D01*
X132175289Y-61627289D01*
X132182561Y-61620699D01*
X132190443Y-61614853D01*
X132198860Y-61609808D01*
X132207732Y-61605612D01*
X132216972Y-61602306D01*
X132226491Y-61599921D01*
X132236198Y-61598482D01*
X132246000Y-61598000D01*
X132446000Y-61598000D01*
X132455802Y-61598482D01*
X132455802Y-61598482D01*
G37*
D30*
X132346000Y-62385500D03*
D16*
G36*
X131955802Y-61598482D02*
G01*
X131965509Y-61599921D01*
X131975028Y-61602306D01*
X131984268Y-61605612D01*
X131993140Y-61609808D01*
X132001557Y-61614853D01*
X132009439Y-61620699D01*
X132016711Y-61627289D01*
X132023301Y-61634561D01*
X132029147Y-61642443D01*
X132034192Y-61650860D01*
X132038388Y-61659732D01*
X132041694Y-61668972D01*
X132044079Y-61678491D01*
X132045518Y-61688198D01*
X132046000Y-61698000D01*
X132046000Y-63073000D01*
X132045518Y-63082802D01*
X132044079Y-63092509D01*
X132041694Y-63102028D01*
X132038388Y-63111268D01*
X132034192Y-63120140D01*
X132029147Y-63128557D01*
X132023301Y-63136439D01*
X132016711Y-63143711D01*
X132009439Y-63150301D01*
X132001557Y-63156147D01*
X131993140Y-63161192D01*
X131984268Y-63165388D01*
X131975028Y-63168694D01*
X131965509Y-63171079D01*
X131955802Y-63172518D01*
X131946000Y-63173000D01*
X131746000Y-63173000D01*
X131736198Y-63172518D01*
X131726491Y-63171079D01*
X131716972Y-63168694D01*
X131707732Y-63165388D01*
X131698860Y-63161192D01*
X131690443Y-63156147D01*
X131682561Y-63150301D01*
X131675289Y-63143711D01*
X131668699Y-63136439D01*
X131662853Y-63128557D01*
X131657808Y-63120140D01*
X131653612Y-63111268D01*
X131650306Y-63102028D01*
X131647921Y-63092509D01*
X131646482Y-63082802D01*
X131646000Y-63073000D01*
X131646000Y-61698000D01*
X131646482Y-61688198D01*
X131647921Y-61678491D01*
X131650306Y-61668972D01*
X131653612Y-61659732D01*
X131657808Y-61650860D01*
X131662853Y-61642443D01*
X131668699Y-61634561D01*
X131675289Y-61627289D01*
X131682561Y-61620699D01*
X131690443Y-61614853D01*
X131698860Y-61609808D01*
X131707732Y-61605612D01*
X131716972Y-61602306D01*
X131726491Y-61599921D01*
X131736198Y-61598482D01*
X131746000Y-61598000D01*
X131946000Y-61598000D01*
X131955802Y-61598482D01*
X131955802Y-61598482D01*
G37*
D30*
X131846000Y-62385500D03*
D16*
G36*
X131455802Y-61598482D02*
G01*
X131465509Y-61599921D01*
X131475028Y-61602306D01*
X131484268Y-61605612D01*
X131493140Y-61609808D01*
X131501557Y-61614853D01*
X131509439Y-61620699D01*
X131516711Y-61627289D01*
X131523301Y-61634561D01*
X131529147Y-61642443D01*
X131534192Y-61650860D01*
X131538388Y-61659732D01*
X131541694Y-61668972D01*
X131544079Y-61678491D01*
X131545518Y-61688198D01*
X131546000Y-61698000D01*
X131546000Y-63073000D01*
X131545518Y-63082802D01*
X131544079Y-63092509D01*
X131541694Y-63102028D01*
X131538388Y-63111268D01*
X131534192Y-63120140D01*
X131529147Y-63128557D01*
X131523301Y-63136439D01*
X131516711Y-63143711D01*
X131509439Y-63150301D01*
X131501557Y-63156147D01*
X131493140Y-63161192D01*
X131484268Y-63165388D01*
X131475028Y-63168694D01*
X131465509Y-63171079D01*
X131455802Y-63172518D01*
X131446000Y-63173000D01*
X131246000Y-63173000D01*
X131236198Y-63172518D01*
X131226491Y-63171079D01*
X131216972Y-63168694D01*
X131207732Y-63165388D01*
X131198860Y-63161192D01*
X131190443Y-63156147D01*
X131182561Y-63150301D01*
X131175289Y-63143711D01*
X131168699Y-63136439D01*
X131162853Y-63128557D01*
X131157808Y-63120140D01*
X131153612Y-63111268D01*
X131150306Y-63102028D01*
X131147921Y-63092509D01*
X131146482Y-63082802D01*
X131146000Y-63073000D01*
X131146000Y-61698000D01*
X131146482Y-61688198D01*
X131147921Y-61678491D01*
X131150306Y-61668972D01*
X131153612Y-61659732D01*
X131157808Y-61650860D01*
X131162853Y-61642443D01*
X131168699Y-61634561D01*
X131175289Y-61627289D01*
X131182561Y-61620699D01*
X131190443Y-61614853D01*
X131198860Y-61609808D01*
X131207732Y-61605612D01*
X131216972Y-61602306D01*
X131226491Y-61599921D01*
X131236198Y-61598482D01*
X131246000Y-61598000D01*
X131446000Y-61598000D01*
X131455802Y-61598482D01*
X131455802Y-61598482D01*
G37*
D30*
X131346000Y-62385500D03*
D16*
G36*
X130955802Y-61598482D02*
G01*
X130965509Y-61599921D01*
X130975028Y-61602306D01*
X130984268Y-61605612D01*
X130993140Y-61609808D01*
X131001557Y-61614853D01*
X131009439Y-61620699D01*
X131016711Y-61627289D01*
X131023301Y-61634561D01*
X131029147Y-61642443D01*
X131034192Y-61650860D01*
X131038388Y-61659732D01*
X131041694Y-61668972D01*
X131044079Y-61678491D01*
X131045518Y-61688198D01*
X131046000Y-61698000D01*
X131046000Y-63073000D01*
X131045518Y-63082802D01*
X131044079Y-63092509D01*
X131041694Y-63102028D01*
X131038388Y-63111268D01*
X131034192Y-63120140D01*
X131029147Y-63128557D01*
X131023301Y-63136439D01*
X131016711Y-63143711D01*
X131009439Y-63150301D01*
X131001557Y-63156147D01*
X130993140Y-63161192D01*
X130984268Y-63165388D01*
X130975028Y-63168694D01*
X130965509Y-63171079D01*
X130955802Y-63172518D01*
X130946000Y-63173000D01*
X130746000Y-63173000D01*
X130736198Y-63172518D01*
X130726491Y-63171079D01*
X130716972Y-63168694D01*
X130707732Y-63165388D01*
X130698860Y-63161192D01*
X130690443Y-63156147D01*
X130682561Y-63150301D01*
X130675289Y-63143711D01*
X130668699Y-63136439D01*
X130662853Y-63128557D01*
X130657808Y-63120140D01*
X130653612Y-63111268D01*
X130650306Y-63102028D01*
X130647921Y-63092509D01*
X130646482Y-63082802D01*
X130646000Y-63073000D01*
X130646000Y-61698000D01*
X130646482Y-61688198D01*
X130647921Y-61678491D01*
X130650306Y-61668972D01*
X130653612Y-61659732D01*
X130657808Y-61650860D01*
X130662853Y-61642443D01*
X130668699Y-61634561D01*
X130675289Y-61627289D01*
X130682561Y-61620699D01*
X130690443Y-61614853D01*
X130698860Y-61609808D01*
X130707732Y-61605612D01*
X130716972Y-61602306D01*
X130726491Y-61599921D01*
X130736198Y-61598482D01*
X130746000Y-61598000D01*
X130946000Y-61598000D01*
X130955802Y-61598482D01*
X130955802Y-61598482D01*
G37*
D30*
X130846000Y-62385500D03*
D16*
G36*
X130455802Y-61598482D02*
G01*
X130465509Y-61599921D01*
X130475028Y-61602306D01*
X130484268Y-61605612D01*
X130493140Y-61609808D01*
X130501557Y-61614853D01*
X130509439Y-61620699D01*
X130516711Y-61627289D01*
X130523301Y-61634561D01*
X130529147Y-61642443D01*
X130534192Y-61650860D01*
X130538388Y-61659732D01*
X130541694Y-61668972D01*
X130544079Y-61678491D01*
X130545518Y-61688198D01*
X130546000Y-61698000D01*
X130546000Y-63073000D01*
X130545518Y-63082802D01*
X130544079Y-63092509D01*
X130541694Y-63102028D01*
X130538388Y-63111268D01*
X130534192Y-63120140D01*
X130529147Y-63128557D01*
X130523301Y-63136439D01*
X130516711Y-63143711D01*
X130509439Y-63150301D01*
X130501557Y-63156147D01*
X130493140Y-63161192D01*
X130484268Y-63165388D01*
X130475028Y-63168694D01*
X130465509Y-63171079D01*
X130455802Y-63172518D01*
X130446000Y-63173000D01*
X130246000Y-63173000D01*
X130236198Y-63172518D01*
X130226491Y-63171079D01*
X130216972Y-63168694D01*
X130207732Y-63165388D01*
X130198860Y-63161192D01*
X130190443Y-63156147D01*
X130182561Y-63150301D01*
X130175289Y-63143711D01*
X130168699Y-63136439D01*
X130162853Y-63128557D01*
X130157808Y-63120140D01*
X130153612Y-63111268D01*
X130150306Y-63102028D01*
X130147921Y-63092509D01*
X130146482Y-63082802D01*
X130146000Y-63073000D01*
X130146000Y-61698000D01*
X130146482Y-61688198D01*
X130147921Y-61678491D01*
X130150306Y-61668972D01*
X130153612Y-61659732D01*
X130157808Y-61650860D01*
X130162853Y-61642443D01*
X130168699Y-61634561D01*
X130175289Y-61627289D01*
X130182561Y-61620699D01*
X130190443Y-61614853D01*
X130198860Y-61609808D01*
X130207732Y-61605612D01*
X130216972Y-61602306D01*
X130226491Y-61599921D01*
X130236198Y-61598482D01*
X130246000Y-61598000D01*
X130446000Y-61598000D01*
X130455802Y-61598482D01*
X130455802Y-61598482D01*
G37*
D30*
X130346000Y-62385500D03*
D16*
G36*
X129630802Y-63598482D02*
G01*
X129640509Y-63599921D01*
X129650028Y-63602306D01*
X129659268Y-63605612D01*
X129668140Y-63609808D01*
X129676557Y-63614853D01*
X129684439Y-63620699D01*
X129691711Y-63627289D01*
X129698301Y-63634561D01*
X129704147Y-63642443D01*
X129709192Y-63650860D01*
X129713388Y-63659732D01*
X129716694Y-63668972D01*
X129719079Y-63678491D01*
X129720518Y-63688198D01*
X129721000Y-63698000D01*
X129721000Y-63898000D01*
X129720518Y-63907802D01*
X129719079Y-63917509D01*
X129716694Y-63927028D01*
X129713388Y-63936268D01*
X129709192Y-63945140D01*
X129704147Y-63953557D01*
X129698301Y-63961439D01*
X129691711Y-63968711D01*
X129684439Y-63975301D01*
X129676557Y-63981147D01*
X129668140Y-63986192D01*
X129659268Y-63990388D01*
X129650028Y-63993694D01*
X129640509Y-63996079D01*
X129630802Y-63997518D01*
X129621000Y-63998000D01*
X128246000Y-63998000D01*
X128236198Y-63997518D01*
X128226491Y-63996079D01*
X128216972Y-63993694D01*
X128207732Y-63990388D01*
X128198860Y-63986192D01*
X128190443Y-63981147D01*
X128182561Y-63975301D01*
X128175289Y-63968711D01*
X128168699Y-63961439D01*
X128162853Y-63953557D01*
X128157808Y-63945140D01*
X128153612Y-63936268D01*
X128150306Y-63927028D01*
X128147921Y-63917509D01*
X128146482Y-63907802D01*
X128146000Y-63898000D01*
X128146000Y-63698000D01*
X128146482Y-63688198D01*
X128147921Y-63678491D01*
X128150306Y-63668972D01*
X128153612Y-63659732D01*
X128157808Y-63650860D01*
X128162853Y-63642443D01*
X128168699Y-63634561D01*
X128175289Y-63627289D01*
X128182561Y-63620699D01*
X128190443Y-63614853D01*
X128198860Y-63609808D01*
X128207732Y-63605612D01*
X128216972Y-63602306D01*
X128226491Y-63599921D01*
X128236198Y-63598482D01*
X128246000Y-63598000D01*
X129621000Y-63598000D01*
X129630802Y-63598482D01*
X129630802Y-63598482D01*
G37*
D30*
X128933500Y-63798000D03*
D16*
G36*
X129630802Y-64098482D02*
G01*
X129640509Y-64099921D01*
X129650028Y-64102306D01*
X129659268Y-64105612D01*
X129668140Y-64109808D01*
X129676557Y-64114853D01*
X129684439Y-64120699D01*
X129691711Y-64127289D01*
X129698301Y-64134561D01*
X129704147Y-64142443D01*
X129709192Y-64150860D01*
X129713388Y-64159732D01*
X129716694Y-64168972D01*
X129719079Y-64178491D01*
X129720518Y-64188198D01*
X129721000Y-64198000D01*
X129721000Y-64398000D01*
X129720518Y-64407802D01*
X129719079Y-64417509D01*
X129716694Y-64427028D01*
X129713388Y-64436268D01*
X129709192Y-64445140D01*
X129704147Y-64453557D01*
X129698301Y-64461439D01*
X129691711Y-64468711D01*
X129684439Y-64475301D01*
X129676557Y-64481147D01*
X129668140Y-64486192D01*
X129659268Y-64490388D01*
X129650028Y-64493694D01*
X129640509Y-64496079D01*
X129630802Y-64497518D01*
X129621000Y-64498000D01*
X128246000Y-64498000D01*
X128236198Y-64497518D01*
X128226491Y-64496079D01*
X128216972Y-64493694D01*
X128207732Y-64490388D01*
X128198860Y-64486192D01*
X128190443Y-64481147D01*
X128182561Y-64475301D01*
X128175289Y-64468711D01*
X128168699Y-64461439D01*
X128162853Y-64453557D01*
X128157808Y-64445140D01*
X128153612Y-64436268D01*
X128150306Y-64427028D01*
X128147921Y-64417509D01*
X128146482Y-64407802D01*
X128146000Y-64398000D01*
X128146000Y-64198000D01*
X128146482Y-64188198D01*
X128147921Y-64178491D01*
X128150306Y-64168972D01*
X128153612Y-64159732D01*
X128157808Y-64150860D01*
X128162853Y-64142443D01*
X128168699Y-64134561D01*
X128175289Y-64127289D01*
X128182561Y-64120699D01*
X128190443Y-64114853D01*
X128198860Y-64109808D01*
X128207732Y-64105612D01*
X128216972Y-64102306D01*
X128226491Y-64099921D01*
X128236198Y-64098482D01*
X128246000Y-64098000D01*
X129621000Y-64098000D01*
X129630802Y-64098482D01*
X129630802Y-64098482D01*
G37*
D30*
X128933500Y-64298000D03*
D16*
G36*
X129630802Y-64598482D02*
G01*
X129640509Y-64599921D01*
X129650028Y-64602306D01*
X129659268Y-64605612D01*
X129668140Y-64609808D01*
X129676557Y-64614853D01*
X129684439Y-64620699D01*
X129691711Y-64627289D01*
X129698301Y-64634561D01*
X129704147Y-64642443D01*
X129709192Y-64650860D01*
X129713388Y-64659732D01*
X129716694Y-64668972D01*
X129719079Y-64678491D01*
X129720518Y-64688198D01*
X129721000Y-64698000D01*
X129721000Y-64898000D01*
X129720518Y-64907802D01*
X129719079Y-64917509D01*
X129716694Y-64927028D01*
X129713388Y-64936268D01*
X129709192Y-64945140D01*
X129704147Y-64953557D01*
X129698301Y-64961439D01*
X129691711Y-64968711D01*
X129684439Y-64975301D01*
X129676557Y-64981147D01*
X129668140Y-64986192D01*
X129659268Y-64990388D01*
X129650028Y-64993694D01*
X129640509Y-64996079D01*
X129630802Y-64997518D01*
X129621000Y-64998000D01*
X128246000Y-64998000D01*
X128236198Y-64997518D01*
X128226491Y-64996079D01*
X128216972Y-64993694D01*
X128207732Y-64990388D01*
X128198860Y-64986192D01*
X128190443Y-64981147D01*
X128182561Y-64975301D01*
X128175289Y-64968711D01*
X128168699Y-64961439D01*
X128162853Y-64953557D01*
X128157808Y-64945140D01*
X128153612Y-64936268D01*
X128150306Y-64927028D01*
X128147921Y-64917509D01*
X128146482Y-64907802D01*
X128146000Y-64898000D01*
X128146000Y-64698000D01*
X128146482Y-64688198D01*
X128147921Y-64678491D01*
X128150306Y-64668972D01*
X128153612Y-64659732D01*
X128157808Y-64650860D01*
X128162853Y-64642443D01*
X128168699Y-64634561D01*
X128175289Y-64627289D01*
X128182561Y-64620699D01*
X128190443Y-64614853D01*
X128198860Y-64609808D01*
X128207732Y-64605612D01*
X128216972Y-64602306D01*
X128226491Y-64599921D01*
X128236198Y-64598482D01*
X128246000Y-64598000D01*
X129621000Y-64598000D01*
X129630802Y-64598482D01*
X129630802Y-64598482D01*
G37*
D30*
X128933500Y-64798000D03*
D16*
G36*
X129630802Y-65098482D02*
G01*
X129640509Y-65099921D01*
X129650028Y-65102306D01*
X129659268Y-65105612D01*
X129668140Y-65109808D01*
X129676557Y-65114853D01*
X129684439Y-65120699D01*
X129691711Y-65127289D01*
X129698301Y-65134561D01*
X129704147Y-65142443D01*
X129709192Y-65150860D01*
X129713388Y-65159732D01*
X129716694Y-65168972D01*
X129719079Y-65178491D01*
X129720518Y-65188198D01*
X129721000Y-65198000D01*
X129721000Y-65398000D01*
X129720518Y-65407802D01*
X129719079Y-65417509D01*
X129716694Y-65427028D01*
X129713388Y-65436268D01*
X129709192Y-65445140D01*
X129704147Y-65453557D01*
X129698301Y-65461439D01*
X129691711Y-65468711D01*
X129684439Y-65475301D01*
X129676557Y-65481147D01*
X129668140Y-65486192D01*
X129659268Y-65490388D01*
X129650028Y-65493694D01*
X129640509Y-65496079D01*
X129630802Y-65497518D01*
X129621000Y-65498000D01*
X128246000Y-65498000D01*
X128236198Y-65497518D01*
X128226491Y-65496079D01*
X128216972Y-65493694D01*
X128207732Y-65490388D01*
X128198860Y-65486192D01*
X128190443Y-65481147D01*
X128182561Y-65475301D01*
X128175289Y-65468711D01*
X128168699Y-65461439D01*
X128162853Y-65453557D01*
X128157808Y-65445140D01*
X128153612Y-65436268D01*
X128150306Y-65427028D01*
X128147921Y-65417509D01*
X128146482Y-65407802D01*
X128146000Y-65398000D01*
X128146000Y-65198000D01*
X128146482Y-65188198D01*
X128147921Y-65178491D01*
X128150306Y-65168972D01*
X128153612Y-65159732D01*
X128157808Y-65150860D01*
X128162853Y-65142443D01*
X128168699Y-65134561D01*
X128175289Y-65127289D01*
X128182561Y-65120699D01*
X128190443Y-65114853D01*
X128198860Y-65109808D01*
X128207732Y-65105612D01*
X128216972Y-65102306D01*
X128226491Y-65099921D01*
X128236198Y-65098482D01*
X128246000Y-65098000D01*
X129621000Y-65098000D01*
X129630802Y-65098482D01*
X129630802Y-65098482D01*
G37*
D30*
X128933500Y-65298000D03*
D16*
G36*
X129630802Y-65598482D02*
G01*
X129640509Y-65599921D01*
X129650028Y-65602306D01*
X129659268Y-65605612D01*
X129668140Y-65609808D01*
X129676557Y-65614853D01*
X129684439Y-65620699D01*
X129691711Y-65627289D01*
X129698301Y-65634561D01*
X129704147Y-65642443D01*
X129709192Y-65650860D01*
X129713388Y-65659732D01*
X129716694Y-65668972D01*
X129719079Y-65678491D01*
X129720518Y-65688198D01*
X129721000Y-65698000D01*
X129721000Y-65898000D01*
X129720518Y-65907802D01*
X129719079Y-65917509D01*
X129716694Y-65927028D01*
X129713388Y-65936268D01*
X129709192Y-65945140D01*
X129704147Y-65953557D01*
X129698301Y-65961439D01*
X129691711Y-65968711D01*
X129684439Y-65975301D01*
X129676557Y-65981147D01*
X129668140Y-65986192D01*
X129659268Y-65990388D01*
X129650028Y-65993694D01*
X129640509Y-65996079D01*
X129630802Y-65997518D01*
X129621000Y-65998000D01*
X128246000Y-65998000D01*
X128236198Y-65997518D01*
X128226491Y-65996079D01*
X128216972Y-65993694D01*
X128207732Y-65990388D01*
X128198860Y-65986192D01*
X128190443Y-65981147D01*
X128182561Y-65975301D01*
X128175289Y-65968711D01*
X128168699Y-65961439D01*
X128162853Y-65953557D01*
X128157808Y-65945140D01*
X128153612Y-65936268D01*
X128150306Y-65927028D01*
X128147921Y-65917509D01*
X128146482Y-65907802D01*
X128146000Y-65898000D01*
X128146000Y-65698000D01*
X128146482Y-65688198D01*
X128147921Y-65678491D01*
X128150306Y-65668972D01*
X128153612Y-65659732D01*
X128157808Y-65650860D01*
X128162853Y-65642443D01*
X128168699Y-65634561D01*
X128175289Y-65627289D01*
X128182561Y-65620699D01*
X128190443Y-65614853D01*
X128198860Y-65609808D01*
X128207732Y-65605612D01*
X128216972Y-65602306D01*
X128226491Y-65599921D01*
X128236198Y-65598482D01*
X128246000Y-65598000D01*
X129621000Y-65598000D01*
X129630802Y-65598482D01*
X129630802Y-65598482D01*
G37*
D30*
X128933500Y-65798000D03*
D16*
G36*
X129630802Y-66098482D02*
G01*
X129640509Y-66099921D01*
X129650028Y-66102306D01*
X129659268Y-66105612D01*
X129668140Y-66109808D01*
X129676557Y-66114853D01*
X129684439Y-66120699D01*
X129691711Y-66127289D01*
X129698301Y-66134561D01*
X129704147Y-66142443D01*
X129709192Y-66150860D01*
X129713388Y-66159732D01*
X129716694Y-66168972D01*
X129719079Y-66178491D01*
X129720518Y-66188198D01*
X129721000Y-66198000D01*
X129721000Y-66398000D01*
X129720518Y-66407802D01*
X129719079Y-66417509D01*
X129716694Y-66427028D01*
X129713388Y-66436268D01*
X129709192Y-66445140D01*
X129704147Y-66453557D01*
X129698301Y-66461439D01*
X129691711Y-66468711D01*
X129684439Y-66475301D01*
X129676557Y-66481147D01*
X129668140Y-66486192D01*
X129659268Y-66490388D01*
X129650028Y-66493694D01*
X129640509Y-66496079D01*
X129630802Y-66497518D01*
X129621000Y-66498000D01*
X128246000Y-66498000D01*
X128236198Y-66497518D01*
X128226491Y-66496079D01*
X128216972Y-66493694D01*
X128207732Y-66490388D01*
X128198860Y-66486192D01*
X128190443Y-66481147D01*
X128182561Y-66475301D01*
X128175289Y-66468711D01*
X128168699Y-66461439D01*
X128162853Y-66453557D01*
X128157808Y-66445140D01*
X128153612Y-66436268D01*
X128150306Y-66427028D01*
X128147921Y-66417509D01*
X128146482Y-66407802D01*
X128146000Y-66398000D01*
X128146000Y-66198000D01*
X128146482Y-66188198D01*
X128147921Y-66178491D01*
X128150306Y-66168972D01*
X128153612Y-66159732D01*
X128157808Y-66150860D01*
X128162853Y-66142443D01*
X128168699Y-66134561D01*
X128175289Y-66127289D01*
X128182561Y-66120699D01*
X128190443Y-66114853D01*
X128198860Y-66109808D01*
X128207732Y-66105612D01*
X128216972Y-66102306D01*
X128226491Y-66099921D01*
X128236198Y-66098482D01*
X128246000Y-66098000D01*
X129621000Y-66098000D01*
X129630802Y-66098482D01*
X129630802Y-66098482D01*
G37*
D30*
X128933500Y-66298000D03*
D16*
G36*
X129630802Y-66598482D02*
G01*
X129640509Y-66599921D01*
X129650028Y-66602306D01*
X129659268Y-66605612D01*
X129668140Y-66609808D01*
X129676557Y-66614853D01*
X129684439Y-66620699D01*
X129691711Y-66627289D01*
X129698301Y-66634561D01*
X129704147Y-66642443D01*
X129709192Y-66650860D01*
X129713388Y-66659732D01*
X129716694Y-66668972D01*
X129719079Y-66678491D01*
X129720518Y-66688198D01*
X129721000Y-66698000D01*
X129721000Y-66898000D01*
X129720518Y-66907802D01*
X129719079Y-66917509D01*
X129716694Y-66927028D01*
X129713388Y-66936268D01*
X129709192Y-66945140D01*
X129704147Y-66953557D01*
X129698301Y-66961439D01*
X129691711Y-66968711D01*
X129684439Y-66975301D01*
X129676557Y-66981147D01*
X129668140Y-66986192D01*
X129659268Y-66990388D01*
X129650028Y-66993694D01*
X129640509Y-66996079D01*
X129630802Y-66997518D01*
X129621000Y-66998000D01*
X128246000Y-66998000D01*
X128236198Y-66997518D01*
X128226491Y-66996079D01*
X128216972Y-66993694D01*
X128207732Y-66990388D01*
X128198860Y-66986192D01*
X128190443Y-66981147D01*
X128182561Y-66975301D01*
X128175289Y-66968711D01*
X128168699Y-66961439D01*
X128162853Y-66953557D01*
X128157808Y-66945140D01*
X128153612Y-66936268D01*
X128150306Y-66927028D01*
X128147921Y-66917509D01*
X128146482Y-66907802D01*
X128146000Y-66898000D01*
X128146000Y-66698000D01*
X128146482Y-66688198D01*
X128147921Y-66678491D01*
X128150306Y-66668972D01*
X128153612Y-66659732D01*
X128157808Y-66650860D01*
X128162853Y-66642443D01*
X128168699Y-66634561D01*
X128175289Y-66627289D01*
X128182561Y-66620699D01*
X128190443Y-66614853D01*
X128198860Y-66609808D01*
X128207732Y-66605612D01*
X128216972Y-66602306D01*
X128226491Y-66599921D01*
X128236198Y-66598482D01*
X128246000Y-66598000D01*
X129621000Y-66598000D01*
X129630802Y-66598482D01*
X129630802Y-66598482D01*
G37*
D30*
X128933500Y-66798000D03*
D16*
G36*
X129630802Y-67098482D02*
G01*
X129640509Y-67099921D01*
X129650028Y-67102306D01*
X129659268Y-67105612D01*
X129668140Y-67109808D01*
X129676557Y-67114853D01*
X129684439Y-67120699D01*
X129691711Y-67127289D01*
X129698301Y-67134561D01*
X129704147Y-67142443D01*
X129709192Y-67150860D01*
X129713388Y-67159732D01*
X129716694Y-67168972D01*
X129719079Y-67178491D01*
X129720518Y-67188198D01*
X129721000Y-67198000D01*
X129721000Y-67398000D01*
X129720518Y-67407802D01*
X129719079Y-67417509D01*
X129716694Y-67427028D01*
X129713388Y-67436268D01*
X129709192Y-67445140D01*
X129704147Y-67453557D01*
X129698301Y-67461439D01*
X129691711Y-67468711D01*
X129684439Y-67475301D01*
X129676557Y-67481147D01*
X129668140Y-67486192D01*
X129659268Y-67490388D01*
X129650028Y-67493694D01*
X129640509Y-67496079D01*
X129630802Y-67497518D01*
X129621000Y-67498000D01*
X128246000Y-67498000D01*
X128236198Y-67497518D01*
X128226491Y-67496079D01*
X128216972Y-67493694D01*
X128207732Y-67490388D01*
X128198860Y-67486192D01*
X128190443Y-67481147D01*
X128182561Y-67475301D01*
X128175289Y-67468711D01*
X128168699Y-67461439D01*
X128162853Y-67453557D01*
X128157808Y-67445140D01*
X128153612Y-67436268D01*
X128150306Y-67427028D01*
X128147921Y-67417509D01*
X128146482Y-67407802D01*
X128146000Y-67398000D01*
X128146000Y-67198000D01*
X128146482Y-67188198D01*
X128147921Y-67178491D01*
X128150306Y-67168972D01*
X128153612Y-67159732D01*
X128157808Y-67150860D01*
X128162853Y-67142443D01*
X128168699Y-67134561D01*
X128175289Y-67127289D01*
X128182561Y-67120699D01*
X128190443Y-67114853D01*
X128198860Y-67109808D01*
X128207732Y-67105612D01*
X128216972Y-67102306D01*
X128226491Y-67099921D01*
X128236198Y-67098482D01*
X128246000Y-67098000D01*
X129621000Y-67098000D01*
X129630802Y-67098482D01*
X129630802Y-67098482D01*
G37*
D30*
X128933500Y-67298000D03*
D16*
G36*
X129630802Y-67598482D02*
G01*
X129640509Y-67599921D01*
X129650028Y-67602306D01*
X129659268Y-67605612D01*
X129668140Y-67609808D01*
X129676557Y-67614853D01*
X129684439Y-67620699D01*
X129691711Y-67627289D01*
X129698301Y-67634561D01*
X129704147Y-67642443D01*
X129709192Y-67650860D01*
X129713388Y-67659732D01*
X129716694Y-67668972D01*
X129719079Y-67678491D01*
X129720518Y-67688198D01*
X129721000Y-67698000D01*
X129721000Y-67898000D01*
X129720518Y-67907802D01*
X129719079Y-67917509D01*
X129716694Y-67927028D01*
X129713388Y-67936268D01*
X129709192Y-67945140D01*
X129704147Y-67953557D01*
X129698301Y-67961439D01*
X129691711Y-67968711D01*
X129684439Y-67975301D01*
X129676557Y-67981147D01*
X129668140Y-67986192D01*
X129659268Y-67990388D01*
X129650028Y-67993694D01*
X129640509Y-67996079D01*
X129630802Y-67997518D01*
X129621000Y-67998000D01*
X128246000Y-67998000D01*
X128236198Y-67997518D01*
X128226491Y-67996079D01*
X128216972Y-67993694D01*
X128207732Y-67990388D01*
X128198860Y-67986192D01*
X128190443Y-67981147D01*
X128182561Y-67975301D01*
X128175289Y-67968711D01*
X128168699Y-67961439D01*
X128162853Y-67953557D01*
X128157808Y-67945140D01*
X128153612Y-67936268D01*
X128150306Y-67927028D01*
X128147921Y-67917509D01*
X128146482Y-67907802D01*
X128146000Y-67898000D01*
X128146000Y-67698000D01*
X128146482Y-67688198D01*
X128147921Y-67678491D01*
X128150306Y-67668972D01*
X128153612Y-67659732D01*
X128157808Y-67650860D01*
X128162853Y-67642443D01*
X128168699Y-67634561D01*
X128175289Y-67627289D01*
X128182561Y-67620699D01*
X128190443Y-67614853D01*
X128198860Y-67609808D01*
X128207732Y-67605612D01*
X128216972Y-67602306D01*
X128226491Y-67599921D01*
X128236198Y-67598482D01*
X128246000Y-67598000D01*
X129621000Y-67598000D01*
X129630802Y-67598482D01*
X129630802Y-67598482D01*
G37*
D30*
X128933500Y-67798000D03*
D16*
G36*
X129630802Y-68098482D02*
G01*
X129640509Y-68099921D01*
X129650028Y-68102306D01*
X129659268Y-68105612D01*
X129668140Y-68109808D01*
X129676557Y-68114853D01*
X129684439Y-68120699D01*
X129691711Y-68127289D01*
X129698301Y-68134561D01*
X129704147Y-68142443D01*
X129709192Y-68150860D01*
X129713388Y-68159732D01*
X129716694Y-68168972D01*
X129719079Y-68178491D01*
X129720518Y-68188198D01*
X129721000Y-68198000D01*
X129721000Y-68398000D01*
X129720518Y-68407802D01*
X129719079Y-68417509D01*
X129716694Y-68427028D01*
X129713388Y-68436268D01*
X129709192Y-68445140D01*
X129704147Y-68453557D01*
X129698301Y-68461439D01*
X129691711Y-68468711D01*
X129684439Y-68475301D01*
X129676557Y-68481147D01*
X129668140Y-68486192D01*
X129659268Y-68490388D01*
X129650028Y-68493694D01*
X129640509Y-68496079D01*
X129630802Y-68497518D01*
X129621000Y-68498000D01*
X128246000Y-68498000D01*
X128236198Y-68497518D01*
X128226491Y-68496079D01*
X128216972Y-68493694D01*
X128207732Y-68490388D01*
X128198860Y-68486192D01*
X128190443Y-68481147D01*
X128182561Y-68475301D01*
X128175289Y-68468711D01*
X128168699Y-68461439D01*
X128162853Y-68453557D01*
X128157808Y-68445140D01*
X128153612Y-68436268D01*
X128150306Y-68427028D01*
X128147921Y-68417509D01*
X128146482Y-68407802D01*
X128146000Y-68398000D01*
X128146000Y-68198000D01*
X128146482Y-68188198D01*
X128147921Y-68178491D01*
X128150306Y-68168972D01*
X128153612Y-68159732D01*
X128157808Y-68150860D01*
X128162853Y-68142443D01*
X128168699Y-68134561D01*
X128175289Y-68127289D01*
X128182561Y-68120699D01*
X128190443Y-68114853D01*
X128198860Y-68109808D01*
X128207732Y-68105612D01*
X128216972Y-68102306D01*
X128226491Y-68099921D01*
X128236198Y-68098482D01*
X128246000Y-68098000D01*
X129621000Y-68098000D01*
X129630802Y-68098482D01*
X129630802Y-68098482D01*
G37*
D30*
X128933500Y-68298000D03*
D16*
G36*
X129630802Y-68598482D02*
G01*
X129640509Y-68599921D01*
X129650028Y-68602306D01*
X129659268Y-68605612D01*
X129668140Y-68609808D01*
X129676557Y-68614853D01*
X129684439Y-68620699D01*
X129691711Y-68627289D01*
X129698301Y-68634561D01*
X129704147Y-68642443D01*
X129709192Y-68650860D01*
X129713388Y-68659732D01*
X129716694Y-68668972D01*
X129719079Y-68678491D01*
X129720518Y-68688198D01*
X129721000Y-68698000D01*
X129721000Y-68898000D01*
X129720518Y-68907802D01*
X129719079Y-68917509D01*
X129716694Y-68927028D01*
X129713388Y-68936268D01*
X129709192Y-68945140D01*
X129704147Y-68953557D01*
X129698301Y-68961439D01*
X129691711Y-68968711D01*
X129684439Y-68975301D01*
X129676557Y-68981147D01*
X129668140Y-68986192D01*
X129659268Y-68990388D01*
X129650028Y-68993694D01*
X129640509Y-68996079D01*
X129630802Y-68997518D01*
X129621000Y-68998000D01*
X128246000Y-68998000D01*
X128236198Y-68997518D01*
X128226491Y-68996079D01*
X128216972Y-68993694D01*
X128207732Y-68990388D01*
X128198860Y-68986192D01*
X128190443Y-68981147D01*
X128182561Y-68975301D01*
X128175289Y-68968711D01*
X128168699Y-68961439D01*
X128162853Y-68953557D01*
X128157808Y-68945140D01*
X128153612Y-68936268D01*
X128150306Y-68927028D01*
X128147921Y-68917509D01*
X128146482Y-68907802D01*
X128146000Y-68898000D01*
X128146000Y-68698000D01*
X128146482Y-68688198D01*
X128147921Y-68678491D01*
X128150306Y-68668972D01*
X128153612Y-68659732D01*
X128157808Y-68650860D01*
X128162853Y-68642443D01*
X128168699Y-68634561D01*
X128175289Y-68627289D01*
X128182561Y-68620699D01*
X128190443Y-68614853D01*
X128198860Y-68609808D01*
X128207732Y-68605612D01*
X128216972Y-68602306D01*
X128226491Y-68599921D01*
X128236198Y-68598482D01*
X128246000Y-68598000D01*
X129621000Y-68598000D01*
X129630802Y-68598482D01*
X129630802Y-68598482D01*
G37*
D30*
X128933500Y-68798000D03*
D16*
G36*
X129630802Y-69098482D02*
G01*
X129640509Y-69099921D01*
X129650028Y-69102306D01*
X129659268Y-69105612D01*
X129668140Y-69109808D01*
X129676557Y-69114853D01*
X129684439Y-69120699D01*
X129691711Y-69127289D01*
X129698301Y-69134561D01*
X129704147Y-69142443D01*
X129709192Y-69150860D01*
X129713388Y-69159732D01*
X129716694Y-69168972D01*
X129719079Y-69178491D01*
X129720518Y-69188198D01*
X129721000Y-69198000D01*
X129721000Y-69398000D01*
X129720518Y-69407802D01*
X129719079Y-69417509D01*
X129716694Y-69427028D01*
X129713388Y-69436268D01*
X129709192Y-69445140D01*
X129704147Y-69453557D01*
X129698301Y-69461439D01*
X129691711Y-69468711D01*
X129684439Y-69475301D01*
X129676557Y-69481147D01*
X129668140Y-69486192D01*
X129659268Y-69490388D01*
X129650028Y-69493694D01*
X129640509Y-69496079D01*
X129630802Y-69497518D01*
X129621000Y-69498000D01*
X128246000Y-69498000D01*
X128236198Y-69497518D01*
X128226491Y-69496079D01*
X128216972Y-69493694D01*
X128207732Y-69490388D01*
X128198860Y-69486192D01*
X128190443Y-69481147D01*
X128182561Y-69475301D01*
X128175289Y-69468711D01*
X128168699Y-69461439D01*
X128162853Y-69453557D01*
X128157808Y-69445140D01*
X128153612Y-69436268D01*
X128150306Y-69427028D01*
X128147921Y-69417509D01*
X128146482Y-69407802D01*
X128146000Y-69398000D01*
X128146000Y-69198000D01*
X128146482Y-69188198D01*
X128147921Y-69178491D01*
X128150306Y-69168972D01*
X128153612Y-69159732D01*
X128157808Y-69150860D01*
X128162853Y-69142443D01*
X128168699Y-69134561D01*
X128175289Y-69127289D01*
X128182561Y-69120699D01*
X128190443Y-69114853D01*
X128198860Y-69109808D01*
X128207732Y-69105612D01*
X128216972Y-69102306D01*
X128226491Y-69099921D01*
X128236198Y-69098482D01*
X128246000Y-69098000D01*
X129621000Y-69098000D01*
X129630802Y-69098482D01*
X129630802Y-69098482D01*
G37*
D30*
X128933500Y-69298000D03*
D16*
G36*
X130455802Y-69923482D02*
G01*
X130465509Y-69924921D01*
X130475028Y-69927306D01*
X130484268Y-69930612D01*
X130493140Y-69934808D01*
X130501557Y-69939853D01*
X130509439Y-69945699D01*
X130516711Y-69952289D01*
X130523301Y-69959561D01*
X130529147Y-69967443D01*
X130534192Y-69975860D01*
X130538388Y-69984732D01*
X130541694Y-69993972D01*
X130544079Y-70003491D01*
X130545518Y-70013198D01*
X130546000Y-70023000D01*
X130546000Y-71398000D01*
X130545518Y-71407802D01*
X130544079Y-71417509D01*
X130541694Y-71427028D01*
X130538388Y-71436268D01*
X130534192Y-71445140D01*
X130529147Y-71453557D01*
X130523301Y-71461439D01*
X130516711Y-71468711D01*
X130509439Y-71475301D01*
X130501557Y-71481147D01*
X130493140Y-71486192D01*
X130484268Y-71490388D01*
X130475028Y-71493694D01*
X130465509Y-71496079D01*
X130455802Y-71497518D01*
X130446000Y-71498000D01*
X130246000Y-71498000D01*
X130236198Y-71497518D01*
X130226491Y-71496079D01*
X130216972Y-71493694D01*
X130207732Y-71490388D01*
X130198860Y-71486192D01*
X130190443Y-71481147D01*
X130182561Y-71475301D01*
X130175289Y-71468711D01*
X130168699Y-71461439D01*
X130162853Y-71453557D01*
X130157808Y-71445140D01*
X130153612Y-71436268D01*
X130150306Y-71427028D01*
X130147921Y-71417509D01*
X130146482Y-71407802D01*
X130146000Y-71398000D01*
X130146000Y-70023000D01*
X130146482Y-70013198D01*
X130147921Y-70003491D01*
X130150306Y-69993972D01*
X130153612Y-69984732D01*
X130157808Y-69975860D01*
X130162853Y-69967443D01*
X130168699Y-69959561D01*
X130175289Y-69952289D01*
X130182561Y-69945699D01*
X130190443Y-69939853D01*
X130198860Y-69934808D01*
X130207732Y-69930612D01*
X130216972Y-69927306D01*
X130226491Y-69924921D01*
X130236198Y-69923482D01*
X130246000Y-69923000D01*
X130446000Y-69923000D01*
X130455802Y-69923482D01*
X130455802Y-69923482D01*
G37*
D30*
X130346000Y-70710500D03*
D16*
G36*
X130955802Y-69923482D02*
G01*
X130965509Y-69924921D01*
X130975028Y-69927306D01*
X130984268Y-69930612D01*
X130993140Y-69934808D01*
X131001557Y-69939853D01*
X131009439Y-69945699D01*
X131016711Y-69952289D01*
X131023301Y-69959561D01*
X131029147Y-69967443D01*
X131034192Y-69975860D01*
X131038388Y-69984732D01*
X131041694Y-69993972D01*
X131044079Y-70003491D01*
X131045518Y-70013198D01*
X131046000Y-70023000D01*
X131046000Y-71398000D01*
X131045518Y-71407802D01*
X131044079Y-71417509D01*
X131041694Y-71427028D01*
X131038388Y-71436268D01*
X131034192Y-71445140D01*
X131029147Y-71453557D01*
X131023301Y-71461439D01*
X131016711Y-71468711D01*
X131009439Y-71475301D01*
X131001557Y-71481147D01*
X130993140Y-71486192D01*
X130984268Y-71490388D01*
X130975028Y-71493694D01*
X130965509Y-71496079D01*
X130955802Y-71497518D01*
X130946000Y-71498000D01*
X130746000Y-71498000D01*
X130736198Y-71497518D01*
X130726491Y-71496079D01*
X130716972Y-71493694D01*
X130707732Y-71490388D01*
X130698860Y-71486192D01*
X130690443Y-71481147D01*
X130682561Y-71475301D01*
X130675289Y-71468711D01*
X130668699Y-71461439D01*
X130662853Y-71453557D01*
X130657808Y-71445140D01*
X130653612Y-71436268D01*
X130650306Y-71427028D01*
X130647921Y-71417509D01*
X130646482Y-71407802D01*
X130646000Y-71398000D01*
X130646000Y-70023000D01*
X130646482Y-70013198D01*
X130647921Y-70003491D01*
X130650306Y-69993972D01*
X130653612Y-69984732D01*
X130657808Y-69975860D01*
X130662853Y-69967443D01*
X130668699Y-69959561D01*
X130675289Y-69952289D01*
X130682561Y-69945699D01*
X130690443Y-69939853D01*
X130698860Y-69934808D01*
X130707732Y-69930612D01*
X130716972Y-69927306D01*
X130726491Y-69924921D01*
X130736198Y-69923482D01*
X130746000Y-69923000D01*
X130946000Y-69923000D01*
X130955802Y-69923482D01*
X130955802Y-69923482D01*
G37*
D30*
X130846000Y-70710500D03*
D16*
G36*
X131455802Y-69923482D02*
G01*
X131465509Y-69924921D01*
X131475028Y-69927306D01*
X131484268Y-69930612D01*
X131493140Y-69934808D01*
X131501557Y-69939853D01*
X131509439Y-69945699D01*
X131516711Y-69952289D01*
X131523301Y-69959561D01*
X131529147Y-69967443D01*
X131534192Y-69975860D01*
X131538388Y-69984732D01*
X131541694Y-69993972D01*
X131544079Y-70003491D01*
X131545518Y-70013198D01*
X131546000Y-70023000D01*
X131546000Y-71398000D01*
X131545518Y-71407802D01*
X131544079Y-71417509D01*
X131541694Y-71427028D01*
X131538388Y-71436268D01*
X131534192Y-71445140D01*
X131529147Y-71453557D01*
X131523301Y-71461439D01*
X131516711Y-71468711D01*
X131509439Y-71475301D01*
X131501557Y-71481147D01*
X131493140Y-71486192D01*
X131484268Y-71490388D01*
X131475028Y-71493694D01*
X131465509Y-71496079D01*
X131455802Y-71497518D01*
X131446000Y-71498000D01*
X131246000Y-71498000D01*
X131236198Y-71497518D01*
X131226491Y-71496079D01*
X131216972Y-71493694D01*
X131207732Y-71490388D01*
X131198860Y-71486192D01*
X131190443Y-71481147D01*
X131182561Y-71475301D01*
X131175289Y-71468711D01*
X131168699Y-71461439D01*
X131162853Y-71453557D01*
X131157808Y-71445140D01*
X131153612Y-71436268D01*
X131150306Y-71427028D01*
X131147921Y-71417509D01*
X131146482Y-71407802D01*
X131146000Y-71398000D01*
X131146000Y-70023000D01*
X131146482Y-70013198D01*
X131147921Y-70003491D01*
X131150306Y-69993972D01*
X131153612Y-69984732D01*
X131157808Y-69975860D01*
X131162853Y-69967443D01*
X131168699Y-69959561D01*
X131175289Y-69952289D01*
X131182561Y-69945699D01*
X131190443Y-69939853D01*
X131198860Y-69934808D01*
X131207732Y-69930612D01*
X131216972Y-69927306D01*
X131226491Y-69924921D01*
X131236198Y-69923482D01*
X131246000Y-69923000D01*
X131446000Y-69923000D01*
X131455802Y-69923482D01*
X131455802Y-69923482D01*
G37*
D30*
X131346000Y-70710500D03*
D16*
G36*
X131955802Y-69923482D02*
G01*
X131965509Y-69924921D01*
X131975028Y-69927306D01*
X131984268Y-69930612D01*
X131993140Y-69934808D01*
X132001557Y-69939853D01*
X132009439Y-69945699D01*
X132016711Y-69952289D01*
X132023301Y-69959561D01*
X132029147Y-69967443D01*
X132034192Y-69975860D01*
X132038388Y-69984732D01*
X132041694Y-69993972D01*
X132044079Y-70003491D01*
X132045518Y-70013198D01*
X132046000Y-70023000D01*
X132046000Y-71398000D01*
X132045518Y-71407802D01*
X132044079Y-71417509D01*
X132041694Y-71427028D01*
X132038388Y-71436268D01*
X132034192Y-71445140D01*
X132029147Y-71453557D01*
X132023301Y-71461439D01*
X132016711Y-71468711D01*
X132009439Y-71475301D01*
X132001557Y-71481147D01*
X131993140Y-71486192D01*
X131984268Y-71490388D01*
X131975028Y-71493694D01*
X131965509Y-71496079D01*
X131955802Y-71497518D01*
X131946000Y-71498000D01*
X131746000Y-71498000D01*
X131736198Y-71497518D01*
X131726491Y-71496079D01*
X131716972Y-71493694D01*
X131707732Y-71490388D01*
X131698860Y-71486192D01*
X131690443Y-71481147D01*
X131682561Y-71475301D01*
X131675289Y-71468711D01*
X131668699Y-71461439D01*
X131662853Y-71453557D01*
X131657808Y-71445140D01*
X131653612Y-71436268D01*
X131650306Y-71427028D01*
X131647921Y-71417509D01*
X131646482Y-71407802D01*
X131646000Y-71398000D01*
X131646000Y-70023000D01*
X131646482Y-70013198D01*
X131647921Y-70003491D01*
X131650306Y-69993972D01*
X131653612Y-69984732D01*
X131657808Y-69975860D01*
X131662853Y-69967443D01*
X131668699Y-69959561D01*
X131675289Y-69952289D01*
X131682561Y-69945699D01*
X131690443Y-69939853D01*
X131698860Y-69934808D01*
X131707732Y-69930612D01*
X131716972Y-69927306D01*
X131726491Y-69924921D01*
X131736198Y-69923482D01*
X131746000Y-69923000D01*
X131946000Y-69923000D01*
X131955802Y-69923482D01*
X131955802Y-69923482D01*
G37*
D30*
X131846000Y-70710500D03*
D16*
G36*
X132455802Y-69923482D02*
G01*
X132465509Y-69924921D01*
X132475028Y-69927306D01*
X132484268Y-69930612D01*
X132493140Y-69934808D01*
X132501557Y-69939853D01*
X132509439Y-69945699D01*
X132516711Y-69952289D01*
X132523301Y-69959561D01*
X132529147Y-69967443D01*
X132534192Y-69975860D01*
X132538388Y-69984732D01*
X132541694Y-69993972D01*
X132544079Y-70003491D01*
X132545518Y-70013198D01*
X132546000Y-70023000D01*
X132546000Y-71398000D01*
X132545518Y-71407802D01*
X132544079Y-71417509D01*
X132541694Y-71427028D01*
X132538388Y-71436268D01*
X132534192Y-71445140D01*
X132529147Y-71453557D01*
X132523301Y-71461439D01*
X132516711Y-71468711D01*
X132509439Y-71475301D01*
X132501557Y-71481147D01*
X132493140Y-71486192D01*
X132484268Y-71490388D01*
X132475028Y-71493694D01*
X132465509Y-71496079D01*
X132455802Y-71497518D01*
X132446000Y-71498000D01*
X132246000Y-71498000D01*
X132236198Y-71497518D01*
X132226491Y-71496079D01*
X132216972Y-71493694D01*
X132207732Y-71490388D01*
X132198860Y-71486192D01*
X132190443Y-71481147D01*
X132182561Y-71475301D01*
X132175289Y-71468711D01*
X132168699Y-71461439D01*
X132162853Y-71453557D01*
X132157808Y-71445140D01*
X132153612Y-71436268D01*
X132150306Y-71427028D01*
X132147921Y-71417509D01*
X132146482Y-71407802D01*
X132146000Y-71398000D01*
X132146000Y-70023000D01*
X132146482Y-70013198D01*
X132147921Y-70003491D01*
X132150306Y-69993972D01*
X132153612Y-69984732D01*
X132157808Y-69975860D01*
X132162853Y-69967443D01*
X132168699Y-69959561D01*
X132175289Y-69952289D01*
X132182561Y-69945699D01*
X132190443Y-69939853D01*
X132198860Y-69934808D01*
X132207732Y-69930612D01*
X132216972Y-69927306D01*
X132226491Y-69924921D01*
X132236198Y-69923482D01*
X132246000Y-69923000D01*
X132446000Y-69923000D01*
X132455802Y-69923482D01*
X132455802Y-69923482D01*
G37*
D30*
X132346000Y-70710500D03*
D16*
G36*
X132955802Y-69923482D02*
G01*
X132965509Y-69924921D01*
X132975028Y-69927306D01*
X132984268Y-69930612D01*
X132993140Y-69934808D01*
X133001557Y-69939853D01*
X133009439Y-69945699D01*
X133016711Y-69952289D01*
X133023301Y-69959561D01*
X133029147Y-69967443D01*
X133034192Y-69975860D01*
X133038388Y-69984732D01*
X133041694Y-69993972D01*
X133044079Y-70003491D01*
X133045518Y-70013198D01*
X133046000Y-70023000D01*
X133046000Y-71398000D01*
X133045518Y-71407802D01*
X133044079Y-71417509D01*
X133041694Y-71427028D01*
X133038388Y-71436268D01*
X133034192Y-71445140D01*
X133029147Y-71453557D01*
X133023301Y-71461439D01*
X133016711Y-71468711D01*
X133009439Y-71475301D01*
X133001557Y-71481147D01*
X132993140Y-71486192D01*
X132984268Y-71490388D01*
X132975028Y-71493694D01*
X132965509Y-71496079D01*
X132955802Y-71497518D01*
X132946000Y-71498000D01*
X132746000Y-71498000D01*
X132736198Y-71497518D01*
X132726491Y-71496079D01*
X132716972Y-71493694D01*
X132707732Y-71490388D01*
X132698860Y-71486192D01*
X132690443Y-71481147D01*
X132682561Y-71475301D01*
X132675289Y-71468711D01*
X132668699Y-71461439D01*
X132662853Y-71453557D01*
X132657808Y-71445140D01*
X132653612Y-71436268D01*
X132650306Y-71427028D01*
X132647921Y-71417509D01*
X132646482Y-71407802D01*
X132646000Y-71398000D01*
X132646000Y-70023000D01*
X132646482Y-70013198D01*
X132647921Y-70003491D01*
X132650306Y-69993972D01*
X132653612Y-69984732D01*
X132657808Y-69975860D01*
X132662853Y-69967443D01*
X132668699Y-69959561D01*
X132675289Y-69952289D01*
X132682561Y-69945699D01*
X132690443Y-69939853D01*
X132698860Y-69934808D01*
X132707732Y-69930612D01*
X132716972Y-69927306D01*
X132726491Y-69924921D01*
X132736198Y-69923482D01*
X132746000Y-69923000D01*
X132946000Y-69923000D01*
X132955802Y-69923482D01*
X132955802Y-69923482D01*
G37*
D30*
X132846000Y-70710500D03*
D16*
G36*
X133455802Y-69923482D02*
G01*
X133465509Y-69924921D01*
X133475028Y-69927306D01*
X133484268Y-69930612D01*
X133493140Y-69934808D01*
X133501557Y-69939853D01*
X133509439Y-69945699D01*
X133516711Y-69952289D01*
X133523301Y-69959561D01*
X133529147Y-69967443D01*
X133534192Y-69975860D01*
X133538388Y-69984732D01*
X133541694Y-69993972D01*
X133544079Y-70003491D01*
X133545518Y-70013198D01*
X133546000Y-70023000D01*
X133546000Y-71398000D01*
X133545518Y-71407802D01*
X133544079Y-71417509D01*
X133541694Y-71427028D01*
X133538388Y-71436268D01*
X133534192Y-71445140D01*
X133529147Y-71453557D01*
X133523301Y-71461439D01*
X133516711Y-71468711D01*
X133509439Y-71475301D01*
X133501557Y-71481147D01*
X133493140Y-71486192D01*
X133484268Y-71490388D01*
X133475028Y-71493694D01*
X133465509Y-71496079D01*
X133455802Y-71497518D01*
X133446000Y-71498000D01*
X133246000Y-71498000D01*
X133236198Y-71497518D01*
X133226491Y-71496079D01*
X133216972Y-71493694D01*
X133207732Y-71490388D01*
X133198860Y-71486192D01*
X133190443Y-71481147D01*
X133182561Y-71475301D01*
X133175289Y-71468711D01*
X133168699Y-71461439D01*
X133162853Y-71453557D01*
X133157808Y-71445140D01*
X133153612Y-71436268D01*
X133150306Y-71427028D01*
X133147921Y-71417509D01*
X133146482Y-71407802D01*
X133146000Y-71398000D01*
X133146000Y-70023000D01*
X133146482Y-70013198D01*
X133147921Y-70003491D01*
X133150306Y-69993972D01*
X133153612Y-69984732D01*
X133157808Y-69975860D01*
X133162853Y-69967443D01*
X133168699Y-69959561D01*
X133175289Y-69952289D01*
X133182561Y-69945699D01*
X133190443Y-69939853D01*
X133198860Y-69934808D01*
X133207732Y-69930612D01*
X133216972Y-69927306D01*
X133226491Y-69924921D01*
X133236198Y-69923482D01*
X133246000Y-69923000D01*
X133446000Y-69923000D01*
X133455802Y-69923482D01*
X133455802Y-69923482D01*
G37*
D30*
X133346000Y-70710500D03*
D16*
G36*
X133955802Y-69923482D02*
G01*
X133965509Y-69924921D01*
X133975028Y-69927306D01*
X133984268Y-69930612D01*
X133993140Y-69934808D01*
X134001557Y-69939853D01*
X134009439Y-69945699D01*
X134016711Y-69952289D01*
X134023301Y-69959561D01*
X134029147Y-69967443D01*
X134034192Y-69975860D01*
X134038388Y-69984732D01*
X134041694Y-69993972D01*
X134044079Y-70003491D01*
X134045518Y-70013198D01*
X134046000Y-70023000D01*
X134046000Y-71398000D01*
X134045518Y-71407802D01*
X134044079Y-71417509D01*
X134041694Y-71427028D01*
X134038388Y-71436268D01*
X134034192Y-71445140D01*
X134029147Y-71453557D01*
X134023301Y-71461439D01*
X134016711Y-71468711D01*
X134009439Y-71475301D01*
X134001557Y-71481147D01*
X133993140Y-71486192D01*
X133984268Y-71490388D01*
X133975028Y-71493694D01*
X133965509Y-71496079D01*
X133955802Y-71497518D01*
X133946000Y-71498000D01*
X133746000Y-71498000D01*
X133736198Y-71497518D01*
X133726491Y-71496079D01*
X133716972Y-71493694D01*
X133707732Y-71490388D01*
X133698860Y-71486192D01*
X133690443Y-71481147D01*
X133682561Y-71475301D01*
X133675289Y-71468711D01*
X133668699Y-71461439D01*
X133662853Y-71453557D01*
X133657808Y-71445140D01*
X133653612Y-71436268D01*
X133650306Y-71427028D01*
X133647921Y-71417509D01*
X133646482Y-71407802D01*
X133646000Y-71398000D01*
X133646000Y-70023000D01*
X133646482Y-70013198D01*
X133647921Y-70003491D01*
X133650306Y-69993972D01*
X133653612Y-69984732D01*
X133657808Y-69975860D01*
X133662853Y-69967443D01*
X133668699Y-69959561D01*
X133675289Y-69952289D01*
X133682561Y-69945699D01*
X133690443Y-69939853D01*
X133698860Y-69934808D01*
X133707732Y-69930612D01*
X133716972Y-69927306D01*
X133726491Y-69924921D01*
X133736198Y-69923482D01*
X133746000Y-69923000D01*
X133946000Y-69923000D01*
X133955802Y-69923482D01*
X133955802Y-69923482D01*
G37*
D30*
X133846000Y-70710500D03*
D16*
G36*
X134455802Y-69923482D02*
G01*
X134465509Y-69924921D01*
X134475028Y-69927306D01*
X134484268Y-69930612D01*
X134493140Y-69934808D01*
X134501557Y-69939853D01*
X134509439Y-69945699D01*
X134516711Y-69952289D01*
X134523301Y-69959561D01*
X134529147Y-69967443D01*
X134534192Y-69975860D01*
X134538388Y-69984732D01*
X134541694Y-69993972D01*
X134544079Y-70003491D01*
X134545518Y-70013198D01*
X134546000Y-70023000D01*
X134546000Y-71398000D01*
X134545518Y-71407802D01*
X134544079Y-71417509D01*
X134541694Y-71427028D01*
X134538388Y-71436268D01*
X134534192Y-71445140D01*
X134529147Y-71453557D01*
X134523301Y-71461439D01*
X134516711Y-71468711D01*
X134509439Y-71475301D01*
X134501557Y-71481147D01*
X134493140Y-71486192D01*
X134484268Y-71490388D01*
X134475028Y-71493694D01*
X134465509Y-71496079D01*
X134455802Y-71497518D01*
X134446000Y-71498000D01*
X134246000Y-71498000D01*
X134236198Y-71497518D01*
X134226491Y-71496079D01*
X134216972Y-71493694D01*
X134207732Y-71490388D01*
X134198860Y-71486192D01*
X134190443Y-71481147D01*
X134182561Y-71475301D01*
X134175289Y-71468711D01*
X134168699Y-71461439D01*
X134162853Y-71453557D01*
X134157808Y-71445140D01*
X134153612Y-71436268D01*
X134150306Y-71427028D01*
X134147921Y-71417509D01*
X134146482Y-71407802D01*
X134146000Y-71398000D01*
X134146000Y-70023000D01*
X134146482Y-70013198D01*
X134147921Y-70003491D01*
X134150306Y-69993972D01*
X134153612Y-69984732D01*
X134157808Y-69975860D01*
X134162853Y-69967443D01*
X134168699Y-69959561D01*
X134175289Y-69952289D01*
X134182561Y-69945699D01*
X134190443Y-69939853D01*
X134198860Y-69934808D01*
X134207732Y-69930612D01*
X134216972Y-69927306D01*
X134226491Y-69924921D01*
X134236198Y-69923482D01*
X134246000Y-69923000D01*
X134446000Y-69923000D01*
X134455802Y-69923482D01*
X134455802Y-69923482D01*
G37*
D30*
X134346000Y-70710500D03*
D16*
G36*
X134955802Y-69923482D02*
G01*
X134965509Y-69924921D01*
X134975028Y-69927306D01*
X134984268Y-69930612D01*
X134993140Y-69934808D01*
X135001557Y-69939853D01*
X135009439Y-69945699D01*
X135016711Y-69952289D01*
X135023301Y-69959561D01*
X135029147Y-69967443D01*
X135034192Y-69975860D01*
X135038388Y-69984732D01*
X135041694Y-69993972D01*
X135044079Y-70003491D01*
X135045518Y-70013198D01*
X135046000Y-70023000D01*
X135046000Y-71398000D01*
X135045518Y-71407802D01*
X135044079Y-71417509D01*
X135041694Y-71427028D01*
X135038388Y-71436268D01*
X135034192Y-71445140D01*
X135029147Y-71453557D01*
X135023301Y-71461439D01*
X135016711Y-71468711D01*
X135009439Y-71475301D01*
X135001557Y-71481147D01*
X134993140Y-71486192D01*
X134984268Y-71490388D01*
X134975028Y-71493694D01*
X134965509Y-71496079D01*
X134955802Y-71497518D01*
X134946000Y-71498000D01*
X134746000Y-71498000D01*
X134736198Y-71497518D01*
X134726491Y-71496079D01*
X134716972Y-71493694D01*
X134707732Y-71490388D01*
X134698860Y-71486192D01*
X134690443Y-71481147D01*
X134682561Y-71475301D01*
X134675289Y-71468711D01*
X134668699Y-71461439D01*
X134662853Y-71453557D01*
X134657808Y-71445140D01*
X134653612Y-71436268D01*
X134650306Y-71427028D01*
X134647921Y-71417509D01*
X134646482Y-71407802D01*
X134646000Y-71398000D01*
X134646000Y-70023000D01*
X134646482Y-70013198D01*
X134647921Y-70003491D01*
X134650306Y-69993972D01*
X134653612Y-69984732D01*
X134657808Y-69975860D01*
X134662853Y-69967443D01*
X134668699Y-69959561D01*
X134675289Y-69952289D01*
X134682561Y-69945699D01*
X134690443Y-69939853D01*
X134698860Y-69934808D01*
X134707732Y-69930612D01*
X134716972Y-69927306D01*
X134726491Y-69924921D01*
X134736198Y-69923482D01*
X134746000Y-69923000D01*
X134946000Y-69923000D01*
X134955802Y-69923482D01*
X134955802Y-69923482D01*
G37*
D30*
X134846000Y-70710500D03*
D16*
G36*
X135455802Y-69923482D02*
G01*
X135465509Y-69924921D01*
X135475028Y-69927306D01*
X135484268Y-69930612D01*
X135493140Y-69934808D01*
X135501557Y-69939853D01*
X135509439Y-69945699D01*
X135516711Y-69952289D01*
X135523301Y-69959561D01*
X135529147Y-69967443D01*
X135534192Y-69975860D01*
X135538388Y-69984732D01*
X135541694Y-69993972D01*
X135544079Y-70003491D01*
X135545518Y-70013198D01*
X135546000Y-70023000D01*
X135546000Y-71398000D01*
X135545518Y-71407802D01*
X135544079Y-71417509D01*
X135541694Y-71427028D01*
X135538388Y-71436268D01*
X135534192Y-71445140D01*
X135529147Y-71453557D01*
X135523301Y-71461439D01*
X135516711Y-71468711D01*
X135509439Y-71475301D01*
X135501557Y-71481147D01*
X135493140Y-71486192D01*
X135484268Y-71490388D01*
X135475028Y-71493694D01*
X135465509Y-71496079D01*
X135455802Y-71497518D01*
X135446000Y-71498000D01*
X135246000Y-71498000D01*
X135236198Y-71497518D01*
X135226491Y-71496079D01*
X135216972Y-71493694D01*
X135207732Y-71490388D01*
X135198860Y-71486192D01*
X135190443Y-71481147D01*
X135182561Y-71475301D01*
X135175289Y-71468711D01*
X135168699Y-71461439D01*
X135162853Y-71453557D01*
X135157808Y-71445140D01*
X135153612Y-71436268D01*
X135150306Y-71427028D01*
X135147921Y-71417509D01*
X135146482Y-71407802D01*
X135146000Y-71398000D01*
X135146000Y-70023000D01*
X135146482Y-70013198D01*
X135147921Y-70003491D01*
X135150306Y-69993972D01*
X135153612Y-69984732D01*
X135157808Y-69975860D01*
X135162853Y-69967443D01*
X135168699Y-69959561D01*
X135175289Y-69952289D01*
X135182561Y-69945699D01*
X135190443Y-69939853D01*
X135198860Y-69934808D01*
X135207732Y-69930612D01*
X135216972Y-69927306D01*
X135226491Y-69924921D01*
X135236198Y-69923482D01*
X135246000Y-69923000D01*
X135446000Y-69923000D01*
X135455802Y-69923482D01*
X135455802Y-69923482D01*
G37*
D30*
X135346000Y-70710500D03*
D16*
G36*
X135955802Y-69923482D02*
G01*
X135965509Y-69924921D01*
X135975028Y-69927306D01*
X135984268Y-69930612D01*
X135993140Y-69934808D01*
X136001557Y-69939853D01*
X136009439Y-69945699D01*
X136016711Y-69952289D01*
X136023301Y-69959561D01*
X136029147Y-69967443D01*
X136034192Y-69975860D01*
X136038388Y-69984732D01*
X136041694Y-69993972D01*
X136044079Y-70003491D01*
X136045518Y-70013198D01*
X136046000Y-70023000D01*
X136046000Y-71398000D01*
X136045518Y-71407802D01*
X136044079Y-71417509D01*
X136041694Y-71427028D01*
X136038388Y-71436268D01*
X136034192Y-71445140D01*
X136029147Y-71453557D01*
X136023301Y-71461439D01*
X136016711Y-71468711D01*
X136009439Y-71475301D01*
X136001557Y-71481147D01*
X135993140Y-71486192D01*
X135984268Y-71490388D01*
X135975028Y-71493694D01*
X135965509Y-71496079D01*
X135955802Y-71497518D01*
X135946000Y-71498000D01*
X135746000Y-71498000D01*
X135736198Y-71497518D01*
X135726491Y-71496079D01*
X135716972Y-71493694D01*
X135707732Y-71490388D01*
X135698860Y-71486192D01*
X135690443Y-71481147D01*
X135682561Y-71475301D01*
X135675289Y-71468711D01*
X135668699Y-71461439D01*
X135662853Y-71453557D01*
X135657808Y-71445140D01*
X135653612Y-71436268D01*
X135650306Y-71427028D01*
X135647921Y-71417509D01*
X135646482Y-71407802D01*
X135646000Y-71398000D01*
X135646000Y-70023000D01*
X135646482Y-70013198D01*
X135647921Y-70003491D01*
X135650306Y-69993972D01*
X135653612Y-69984732D01*
X135657808Y-69975860D01*
X135662853Y-69967443D01*
X135668699Y-69959561D01*
X135675289Y-69952289D01*
X135682561Y-69945699D01*
X135690443Y-69939853D01*
X135698860Y-69934808D01*
X135707732Y-69930612D01*
X135716972Y-69927306D01*
X135726491Y-69924921D01*
X135736198Y-69923482D01*
X135746000Y-69923000D01*
X135946000Y-69923000D01*
X135955802Y-69923482D01*
X135955802Y-69923482D01*
G37*
D30*
X135846000Y-70710500D03*
%TD*%
D31*
%TO.C,Y1*%
X146812000Y-63314000D03*
X146812000Y-71814000D03*
%TD*%
D13*
%TO.C,J3*%
X105840000Y-74260000D03*
D12*
X105840000Y-76800000D03*
X105840000Y-79340000D03*
X105840000Y-81880000D03*
%TD*%
%TO.C,J4*%
X105830000Y-66750000D03*
X105830000Y-64210000D03*
X105830000Y-61670000D03*
D13*
X105830000Y-59130000D03*
%TD*%
%TO.C,J5*%
X105840000Y-90200000D03*
D12*
X105840000Y-92740000D03*
X105840000Y-95280000D03*
X105840000Y-97820000D03*
%TD*%
D25*
%TO.C,R10*%
X136144000Y-79502000D03*
X136144000Y-77602000D03*
%TD*%
D32*
%TO.C,TH1*%
X138430000Y-79370000D03*
D33*
X138430000Y-77470000D03*
%TD*%
M02*
