M48
INCH,TZ
T1C0.0157
T2C0.0276
T3C0.0394
%
G90
G05
T1
X42591Y-36752
X42961Y-24866
X43669Y-30079
X46600Y-40500
X46600Y-44000
X48621Y-28889
X49098Y-28886
X49100Y-40900
X49100Y-45900
X49106Y-25189
X49400Y-24600
X49400Y-27331
X50028Y-26193
X50110Y-25622
X51578Y-26700
X51600Y-27200
X51800Y-25700
X52000Y-26300
X52000Y-43400
X52500Y-25200
X52600Y-27200
X52800Y-42400
X53300Y-25800
X54000Y-28500
X54165Y-23642
X54202Y-24194
X54700Y-26000
X54700Y-26900
X54800Y-29400
X55200Y-25600
X55200Y-27400
X55700Y-23600
X56100Y-24806
X56700Y-22300
T2
X54500Y-30500
X54500Y-31248
T3
X41669Y-35512
X41669Y-36512
X41669Y-37512
X41669Y-38512
X57339Y-45150
X57339Y-46150
X41665Y-23280
X41665Y-24280
X41665Y-25280
X41665Y-26280
X55300Y-33100
X56300Y-33100
X57300Y-33100
X58300Y-33100
X41669Y-29236
X41669Y-30236
X41669Y-31236
X41669Y-32236
X47194Y-22434
X48194Y-22434
X49194Y-22434
X49194Y-47442
X50194Y-22434
X50194Y-47442
X51194Y-22434
X51194Y-47442
X52194Y-22434
X52194Y-47442
X53194Y-22434
X53194Y-47442
X54194Y-22434
X55194Y-22434
T0
M30
