%TF.GenerationSoftware,KiCad,Pcbnew,(5.1.2)-2*%
%TF.CreationDate,2020-09-07T08:08:20+07:00*%
%TF.ProjectId,ai-hw-elec,61692d68-772d-4656-9c65-632e6b696361,rev?*%
%TF.SameCoordinates,Original*%
%TF.FileFunction,Legend,Top*%
%TF.FilePolarity,Positive*%
%FSLAX46Y46*%
G04 Gerber Fmt 4.6, Leading zero omitted, Abs format (unit mm)*
G04 Created by KiCad (PCBNEW (5.1.2)-2) date 2020-09-07 08:08:20*
%MOMM*%
%LPD*%
G04 APERTURE LIST*
%ADD10C,0.300000*%
%ADD11C,0.120000*%
%ADD12C,0.100000*%
%ADD13C,0.150000*%
G04 APERTURE END LIST*
D10*
X108045428Y-62400571D02*
X108045428Y-61400571D01*
X108045428Y-61686285D02*
X108116857Y-61543428D01*
X108188285Y-61472000D01*
X108331142Y-61400571D01*
X108474000Y-61400571D01*
X108831142Y-62400571D02*
X109616857Y-61400571D01*
X108831142Y-61400571D02*
X109616857Y-62400571D01*
X110974000Y-62400571D02*
X110116857Y-62400571D01*
X110545428Y-62400571D02*
X110545428Y-60900571D01*
X110402571Y-61114857D01*
X110259714Y-61257714D01*
X110116857Y-61329142D01*
X107866857Y-63940571D02*
X108438285Y-63940571D01*
X108081142Y-63440571D02*
X108081142Y-64726285D01*
X108152571Y-64869142D01*
X108295428Y-64940571D01*
X108438285Y-64940571D01*
X108795428Y-64940571D02*
X109581142Y-63940571D01*
X108795428Y-63940571D02*
X109581142Y-64940571D01*
X110938285Y-64940571D02*
X110081142Y-64940571D01*
X110509714Y-64940571D02*
X110509714Y-63440571D01*
X110366857Y-63654857D01*
X110224000Y-63797714D01*
X110081142Y-63869142D01*
X108045428Y-77640571D02*
X108045428Y-76640571D01*
X108045428Y-76926285D02*
X108116857Y-76783428D01*
X108188285Y-76712000D01*
X108331142Y-76640571D01*
X108474000Y-76640571D01*
X108831142Y-77640571D02*
X109616857Y-76640571D01*
X108831142Y-76640571D02*
X109616857Y-77640571D01*
X110116857Y-76283428D02*
X110188285Y-76212000D01*
X110331142Y-76140571D01*
X110688285Y-76140571D01*
X110831142Y-76212000D01*
X110902571Y-76283428D01*
X110974000Y-76426285D01*
X110974000Y-76569142D01*
X110902571Y-76783428D01*
X110045428Y-77640571D01*
X110974000Y-77640571D01*
X107866857Y-79180571D02*
X108438285Y-79180571D01*
X108081142Y-78680571D02*
X108081142Y-79966285D01*
X108152571Y-80109142D01*
X108295428Y-80180571D01*
X108438285Y-80180571D01*
X108795428Y-80180571D02*
X109581142Y-79180571D01*
X108795428Y-79180571D02*
X109581142Y-80180571D01*
X110081142Y-78823428D02*
X110152571Y-78752000D01*
X110295428Y-78680571D01*
X110652571Y-78680571D01*
X110795428Y-78752000D01*
X110866857Y-78823428D01*
X110938285Y-78966285D01*
X110938285Y-79109142D01*
X110866857Y-79323428D01*
X110009714Y-80180571D01*
X110938285Y-80180571D01*
X107942285Y-89094571D02*
X108870857Y-89094571D01*
X108370857Y-89666000D01*
X108585142Y-89666000D01*
X108728000Y-89737428D01*
X108799428Y-89808857D01*
X108870857Y-89951714D01*
X108870857Y-90308857D01*
X108799428Y-90451714D01*
X108728000Y-90523142D01*
X108585142Y-90594571D01*
X108156571Y-90594571D01*
X108013714Y-90523142D01*
X107942285Y-90451714D01*
X109370857Y-89594571D02*
X109728000Y-90594571D01*
X110085142Y-89594571D01*
X110513714Y-89094571D02*
X111442285Y-89094571D01*
X110942285Y-89666000D01*
X111156571Y-89666000D01*
X111299428Y-89737428D01*
X111370857Y-89808857D01*
X111442285Y-89951714D01*
X111442285Y-90308857D01*
X111370857Y-90451714D01*
X111299428Y-90523142D01*
X111156571Y-90594571D01*
X110728000Y-90594571D01*
X110585142Y-90523142D01*
X110513714Y-90451714D01*
X107335142Y-93317142D02*
X107478000Y-93388571D01*
X107763714Y-93388571D01*
X107906571Y-93317142D01*
X107978000Y-93174285D01*
X107978000Y-93102857D01*
X107906571Y-92960000D01*
X107763714Y-92888571D01*
X107549428Y-92888571D01*
X107406571Y-92817142D01*
X107335142Y-92674285D01*
X107335142Y-92602857D01*
X107406571Y-92460000D01*
X107549428Y-92388571D01*
X107763714Y-92388571D01*
X107906571Y-92460000D01*
X109263714Y-93388571D02*
X109263714Y-91888571D01*
X109263714Y-93317142D02*
X109120857Y-93388571D01*
X108835142Y-93388571D01*
X108692285Y-93317142D01*
X108620857Y-93245714D01*
X108549428Y-93102857D01*
X108549428Y-92674285D01*
X108620857Y-92531428D01*
X108692285Y-92460000D01*
X108835142Y-92388571D01*
X109120857Y-92388571D01*
X109263714Y-92460000D01*
X110620857Y-93388571D02*
X110620857Y-92602857D01*
X110549428Y-92460000D01*
X110406571Y-92388571D01*
X110120857Y-92388571D01*
X109978000Y-92460000D01*
X110620857Y-93317142D02*
X110478000Y-93388571D01*
X110120857Y-93388571D01*
X109978000Y-93317142D01*
X109906571Y-93174285D01*
X109906571Y-93031428D01*
X109978000Y-92888571D01*
X110120857Y-92817142D01*
X110478000Y-92817142D01*
X110620857Y-92745714D01*
X112120857Y-93388571D02*
X111263714Y-93388571D01*
X111692285Y-93388571D02*
X111692285Y-91888571D01*
X111549428Y-92102857D01*
X111406571Y-92245714D01*
X111263714Y-92317142D01*
X107688285Y-58106571D02*
X108616857Y-58106571D01*
X108116857Y-58678000D01*
X108331142Y-58678000D01*
X108474000Y-58749428D01*
X108545428Y-58820857D01*
X108616857Y-58963714D01*
X108616857Y-59320857D01*
X108545428Y-59463714D01*
X108474000Y-59535142D01*
X108331142Y-59606571D01*
X107902571Y-59606571D01*
X107759714Y-59535142D01*
X107688285Y-59463714D01*
X109116857Y-58606571D02*
X109474000Y-59606571D01*
X109831142Y-58606571D01*
X110259714Y-58106571D02*
X111188285Y-58106571D01*
X110688285Y-58678000D01*
X110902571Y-58678000D01*
X111045428Y-58749428D01*
X111116857Y-58820857D01*
X111188285Y-58963714D01*
X111188285Y-59320857D01*
X111116857Y-59463714D01*
X111045428Y-59535142D01*
X110902571Y-59606571D01*
X110474000Y-59606571D01*
X110331142Y-59535142D01*
X110259714Y-59463714D01*
X107656571Y-95857142D02*
X107799428Y-95928571D01*
X108085142Y-95928571D01*
X108228000Y-95857142D01*
X108299428Y-95714285D01*
X108299428Y-95642857D01*
X108228000Y-95500000D01*
X108085142Y-95428571D01*
X107870857Y-95428571D01*
X107728000Y-95357142D01*
X107656571Y-95214285D01*
X107656571Y-95142857D01*
X107728000Y-95000000D01*
X107870857Y-94928571D01*
X108085142Y-94928571D01*
X108228000Y-95000000D01*
X109585142Y-95857142D02*
X109442285Y-95928571D01*
X109156571Y-95928571D01*
X109013714Y-95857142D01*
X108942285Y-95785714D01*
X108870857Y-95642857D01*
X108870857Y-95214285D01*
X108942285Y-95071428D01*
X109013714Y-95000000D01*
X109156571Y-94928571D01*
X109442285Y-94928571D01*
X109585142Y-95000000D01*
X110442285Y-95928571D02*
X110299428Y-95857142D01*
X110228000Y-95714285D01*
X110228000Y-94428571D01*
X111799428Y-95928571D02*
X110942285Y-95928571D01*
X111370857Y-95928571D02*
X111370857Y-94428571D01*
X111228000Y-94642857D01*
X111085142Y-94785714D01*
X110942285Y-94857142D01*
X108438285Y-81720571D02*
X108438285Y-82934857D01*
X108366857Y-83077714D01*
X108295428Y-83149142D01*
X108152571Y-83220571D01*
X107938285Y-83220571D01*
X107795428Y-83149142D01*
X108438285Y-82649142D02*
X108295428Y-82720571D01*
X108009714Y-82720571D01*
X107866857Y-82649142D01*
X107795428Y-82577714D01*
X107724000Y-82434857D01*
X107724000Y-82006285D01*
X107795428Y-81863428D01*
X107866857Y-81792000D01*
X108009714Y-81720571D01*
X108295428Y-81720571D01*
X108438285Y-81792000D01*
X109152571Y-81720571D02*
X109152571Y-82720571D01*
X109152571Y-81863428D02*
X109224000Y-81792000D01*
X109366857Y-81720571D01*
X109581142Y-81720571D01*
X109724000Y-81792000D01*
X109795428Y-81934857D01*
X109795428Y-82720571D01*
X111152571Y-82720571D02*
X111152571Y-81220571D01*
X111152571Y-82649142D02*
X111009714Y-82720571D01*
X110724000Y-82720571D01*
X110581142Y-82649142D01*
X110509714Y-82577714D01*
X110438285Y-82434857D01*
X110438285Y-82006285D01*
X110509714Y-81863428D01*
X110581142Y-81792000D01*
X110724000Y-81720571D01*
X111009714Y-81720571D01*
X111152571Y-81792000D01*
X108438285Y-66480571D02*
X108438285Y-67694857D01*
X108366857Y-67837714D01*
X108295428Y-67909142D01*
X108152571Y-67980571D01*
X107938285Y-67980571D01*
X107795428Y-67909142D01*
X108438285Y-67409142D02*
X108295428Y-67480571D01*
X108009714Y-67480571D01*
X107866857Y-67409142D01*
X107795428Y-67337714D01*
X107724000Y-67194857D01*
X107724000Y-66766285D01*
X107795428Y-66623428D01*
X107866857Y-66552000D01*
X108009714Y-66480571D01*
X108295428Y-66480571D01*
X108438285Y-66552000D01*
X109152571Y-66480571D02*
X109152571Y-67480571D01*
X109152571Y-66623428D02*
X109224000Y-66552000D01*
X109366857Y-66480571D01*
X109581142Y-66480571D01*
X109724000Y-66552000D01*
X109795428Y-66694857D01*
X109795428Y-67480571D01*
X111152571Y-67480571D02*
X111152571Y-65980571D01*
X111152571Y-67409142D02*
X111009714Y-67480571D01*
X110724000Y-67480571D01*
X110581142Y-67409142D01*
X110509714Y-67337714D01*
X110438285Y-67194857D01*
X110438285Y-66766285D01*
X110509714Y-66623428D01*
X110581142Y-66552000D01*
X110724000Y-66480571D01*
X111009714Y-66480571D01*
X111152571Y-66552000D01*
X108692285Y-97468571D02*
X108692285Y-98682857D01*
X108620857Y-98825714D01*
X108549428Y-98897142D01*
X108406571Y-98968571D01*
X108192285Y-98968571D01*
X108049428Y-98897142D01*
X108692285Y-98397142D02*
X108549428Y-98468571D01*
X108263714Y-98468571D01*
X108120857Y-98397142D01*
X108049428Y-98325714D01*
X107978000Y-98182857D01*
X107978000Y-97754285D01*
X108049428Y-97611428D01*
X108120857Y-97540000D01*
X108263714Y-97468571D01*
X108549428Y-97468571D01*
X108692285Y-97540000D01*
X109406571Y-97468571D02*
X109406571Y-98468571D01*
X109406571Y-97611428D02*
X109478000Y-97540000D01*
X109620857Y-97468571D01*
X109835142Y-97468571D01*
X109978000Y-97540000D01*
X110049428Y-97682857D01*
X110049428Y-98468571D01*
X111406571Y-98468571D02*
X111406571Y-96968571D01*
X111406571Y-98397142D02*
X111263714Y-98468571D01*
X110978000Y-98468571D01*
X110835142Y-98397142D01*
X110763714Y-98325714D01*
X110692285Y-98182857D01*
X110692285Y-97754285D01*
X110763714Y-97611428D01*
X110835142Y-97540000D01*
X110978000Y-97468571D01*
X111263714Y-97468571D01*
X111406571Y-97540000D01*
X138842857Y-117772571D02*
X137985714Y-117772571D01*
X138414285Y-117772571D02*
X138414285Y-116272571D01*
X138271428Y-116486857D01*
X138128571Y-116629714D01*
X137985714Y-116701142D01*
X139414285Y-116415428D02*
X139485714Y-116344000D01*
X139628571Y-116272571D01*
X139985714Y-116272571D01*
X140128571Y-116344000D01*
X140200000Y-116415428D01*
X140271428Y-116558285D01*
X140271428Y-116701142D01*
X140200000Y-116915428D01*
X139342857Y-117772571D01*
X140271428Y-117772571D01*
X140771428Y-116772571D02*
X141128571Y-117772571D01*
X141485714Y-116772571D01*
X138918285Y-113978571D02*
X138918285Y-115192857D01*
X138846857Y-115335714D01*
X138775428Y-115407142D01*
X138632571Y-115478571D01*
X138418285Y-115478571D01*
X138275428Y-115407142D01*
X138918285Y-114907142D02*
X138775428Y-114978571D01*
X138489714Y-114978571D01*
X138346857Y-114907142D01*
X138275428Y-114835714D01*
X138204000Y-114692857D01*
X138204000Y-114264285D01*
X138275428Y-114121428D01*
X138346857Y-114050000D01*
X138489714Y-113978571D01*
X138775428Y-113978571D01*
X138918285Y-114050000D01*
X139632571Y-113978571D02*
X139632571Y-114978571D01*
X139632571Y-114121428D02*
X139704000Y-114050000D01*
X139846857Y-113978571D01*
X140061142Y-113978571D01*
X140204000Y-114050000D01*
X140275428Y-114192857D01*
X140275428Y-114978571D01*
X141632571Y-114978571D02*
X141632571Y-113478571D01*
X141632571Y-114907142D02*
X141489714Y-114978571D01*
X141204000Y-114978571D01*
X141061142Y-114907142D01*
X140989714Y-114835714D01*
X140918285Y-114692857D01*
X140918285Y-114264285D01*
X140989714Y-114121428D01*
X141061142Y-114050000D01*
X141204000Y-113978571D01*
X141489714Y-113978571D01*
X141632571Y-114050000D01*
X142648857Y-86840571D02*
X142577428Y-86983428D01*
X142577428Y-87269142D01*
X142648857Y-87412000D01*
X142791714Y-87483428D01*
X142863142Y-87483428D01*
X143006000Y-87412000D01*
X143077428Y-87269142D01*
X143077428Y-87054857D01*
X143148857Y-86912000D01*
X143291714Y-86840571D01*
X143363142Y-86840571D01*
X143506000Y-86912000D01*
X143577428Y-87054857D01*
X143577428Y-87269142D01*
X143506000Y-87412000D01*
X143577428Y-87983428D02*
X142577428Y-88269142D01*
X143291714Y-88554857D01*
X142577428Y-88840571D01*
X143577428Y-89126285D01*
X142577428Y-90340571D02*
X144077428Y-90340571D01*
X142648857Y-90340571D02*
X142577428Y-90197714D01*
X142577428Y-89912000D01*
X142648857Y-89769142D01*
X142720285Y-89697714D01*
X142863142Y-89626285D01*
X143291714Y-89626285D01*
X143434571Y-89697714D01*
X143506000Y-89769142D01*
X143577428Y-89912000D01*
X143577428Y-90197714D01*
X143506000Y-90340571D01*
X142577428Y-91054857D02*
X143577428Y-91054857D01*
X144077428Y-91054857D02*
X144006000Y-90983428D01*
X143934571Y-91054857D01*
X144006000Y-91126285D01*
X144077428Y-91054857D01*
X143934571Y-91054857D01*
X142577428Y-91983428D02*
X142648857Y-91840571D01*
X142720285Y-91769142D01*
X142863142Y-91697714D01*
X143291714Y-91697714D01*
X143434571Y-91769142D01*
X143506000Y-91840571D01*
X143577428Y-91983428D01*
X143577428Y-92197714D01*
X143506000Y-92340571D01*
X143434571Y-92412000D01*
X143291714Y-92483428D01*
X142863142Y-92483428D01*
X142720285Y-92412000D01*
X142648857Y-92340571D01*
X142577428Y-92197714D01*
X142577428Y-91983428D01*
X144863428Y-86780857D02*
X145863428Y-86780857D01*
X145577714Y-86780857D02*
X145720571Y-86852285D01*
X145792000Y-86923714D01*
X145863428Y-87066571D01*
X145863428Y-87209428D01*
X144934857Y-88280857D02*
X144863428Y-88138000D01*
X144863428Y-87852285D01*
X144934857Y-87709428D01*
X145077714Y-87638000D01*
X145649142Y-87638000D01*
X145792000Y-87709428D01*
X145863428Y-87852285D01*
X145863428Y-88138000D01*
X145792000Y-88280857D01*
X145649142Y-88352285D01*
X145506285Y-88352285D01*
X145363428Y-87638000D01*
X144934857Y-88923714D02*
X144863428Y-89066571D01*
X144863428Y-89352285D01*
X144934857Y-89495142D01*
X145077714Y-89566571D01*
X145149142Y-89566571D01*
X145292000Y-89495142D01*
X145363428Y-89352285D01*
X145363428Y-89138000D01*
X145434857Y-88995142D01*
X145577714Y-88923714D01*
X145649142Y-88923714D01*
X145792000Y-88995142D01*
X145863428Y-89138000D01*
X145863428Y-89352285D01*
X145792000Y-89495142D01*
X140108857Y-86912000D02*
X140037428Y-87054857D01*
X140037428Y-87340571D01*
X140108857Y-87483428D01*
X140251714Y-87554857D01*
X140323142Y-87554857D01*
X140466000Y-87483428D01*
X140537428Y-87340571D01*
X140537428Y-87126285D01*
X140608857Y-86983428D01*
X140751714Y-86912000D01*
X140823142Y-86912000D01*
X140966000Y-86983428D01*
X141037428Y-87126285D01*
X141037428Y-87340571D01*
X140966000Y-87483428D01*
X141037428Y-88054857D02*
X140037428Y-88340571D01*
X140751714Y-88626285D01*
X140037428Y-88912000D01*
X141037428Y-89197714D01*
X140108857Y-90412000D02*
X140037428Y-90269142D01*
X140037428Y-89983428D01*
X140108857Y-89840571D01*
X140180285Y-89769142D01*
X140323142Y-89697714D01*
X140751714Y-89697714D01*
X140894571Y-89769142D01*
X140966000Y-89840571D01*
X141037428Y-89983428D01*
X141037428Y-90269142D01*
X140966000Y-90412000D01*
X140037428Y-91269142D02*
X140108857Y-91126285D01*
X140251714Y-91054857D01*
X141537428Y-91054857D01*
X140037428Y-91840571D02*
X141537428Y-91840571D01*
X140608857Y-91983428D02*
X140037428Y-92412000D01*
X141037428Y-92412000D02*
X140466000Y-91840571D01*
X148403428Y-87102285D02*
X147189142Y-87102285D01*
X147046285Y-87030857D01*
X146974857Y-86959428D01*
X146903428Y-86816571D01*
X146903428Y-86602285D01*
X146974857Y-86459428D01*
X147474857Y-87102285D02*
X147403428Y-86959428D01*
X147403428Y-86673714D01*
X147474857Y-86530857D01*
X147546285Y-86459428D01*
X147689142Y-86388000D01*
X148117714Y-86388000D01*
X148260571Y-86459428D01*
X148332000Y-86530857D01*
X148403428Y-86673714D01*
X148403428Y-86959428D01*
X148332000Y-87102285D01*
X148403428Y-87816571D02*
X147403428Y-87816571D01*
X148260571Y-87816571D02*
X148332000Y-87888000D01*
X148403428Y-88030857D01*
X148403428Y-88245142D01*
X148332000Y-88388000D01*
X148189142Y-88459428D01*
X147403428Y-88459428D01*
X147403428Y-89816571D02*
X148903428Y-89816571D01*
X147474857Y-89816571D02*
X147403428Y-89673714D01*
X147403428Y-89388000D01*
X147474857Y-89245142D01*
X147546285Y-89173714D01*
X147689142Y-89102285D01*
X148117714Y-89102285D01*
X148260571Y-89173714D01*
X148332000Y-89245142D01*
X148403428Y-89388000D01*
X148403428Y-89673714D01*
X148332000Y-89816571D01*
X107688285Y-73346571D02*
X108616857Y-73346571D01*
X108116857Y-73918000D01*
X108331142Y-73918000D01*
X108474000Y-73989428D01*
X108545428Y-74060857D01*
X108616857Y-74203714D01*
X108616857Y-74560857D01*
X108545428Y-74703714D01*
X108474000Y-74775142D01*
X108331142Y-74846571D01*
X107902571Y-74846571D01*
X107759714Y-74775142D01*
X107688285Y-74703714D01*
X109116857Y-73846571D02*
X109474000Y-74846571D01*
X109831142Y-73846571D01*
X110259714Y-73346571D02*
X111188285Y-73346571D01*
X110688285Y-73918000D01*
X110902571Y-73918000D01*
X111045428Y-73989428D01*
X111116857Y-74060857D01*
X111188285Y-74203714D01*
X111188285Y-74560857D01*
X111116857Y-74703714D01*
X111045428Y-74775142D01*
X110902571Y-74846571D01*
X110474000Y-74846571D01*
X110331142Y-74775142D01*
X110259714Y-74703714D01*
D11*
%TO.C,J2*%
X148434000Y-118540800D02*
X142338000Y-118540800D01*
X148434000Y-113206800D02*
X148434000Y-118540800D01*
X142338000Y-113206800D02*
X142338000Y-118540800D01*
X148434000Y-113206800D02*
X142338000Y-113206800D01*
%TO.C,C1*%
X113546000Y-99148000D02*
X114546000Y-99148000D01*
X114546000Y-97448000D02*
X113546000Y-97448000D01*
%TO.C,C2*%
X119372000Y-85510000D02*
X118372000Y-85510000D01*
X118372000Y-87210000D02*
X119372000Y-87210000D01*
%TO.C,C3*%
X133596000Y-106846000D02*
X132596000Y-106846000D01*
X132596000Y-108546000D02*
X133596000Y-108546000D01*
%TO.C,C4*%
X119642000Y-115761000D02*
X118642000Y-115761000D01*
X118642000Y-117461000D02*
X119642000Y-117461000D01*
%TO.C,C5*%
X141644000Y-69858000D02*
X141644000Y-70858000D01*
X143344000Y-70858000D02*
X143344000Y-69858000D01*
%TO.C,C6*%
X141644000Y-63508000D02*
X141644000Y-64508000D01*
X143344000Y-64508000D02*
X143344000Y-63508000D01*
%TO.C,C7*%
X145708000Y-57142000D02*
X145708000Y-58142000D01*
X147408000Y-58142000D02*
X147408000Y-57142000D01*
%TO.C,C8*%
X135294000Y-74176000D02*
X135294000Y-75176000D01*
X136994000Y-75176000D02*
X136994000Y-74176000D01*
%TO.C,C9*%
X139358000Y-63492000D02*
X139358000Y-64492000D01*
X141058000Y-64492000D02*
X141058000Y-63492000D01*
%TO.C,C10*%
X124626000Y-63000000D02*
X124626000Y-64000000D01*
X126326000Y-64000000D02*
X126326000Y-63000000D01*
%TO.C,CP1*%
X131205500Y-111171000D02*
X135290500Y-111171000D01*
X131205500Y-109301000D02*
X131205500Y-111171000D01*
X135290500Y-109301000D02*
X131205500Y-109301000D01*
%TO.C,CP2*%
X117526000Y-84501000D02*
X121611000Y-84501000D01*
X121611000Y-84501000D02*
X121611000Y-82631000D01*
X121611000Y-82631000D02*
X117526000Y-82631000D01*
%TO.C,CP3*%
X117403000Y-99233000D02*
X121488000Y-99233000D01*
X117403000Y-97363000D02*
X117403000Y-99233000D01*
X121488000Y-97363000D02*
X117403000Y-97363000D01*
%TO.C,D1*%
X123092000Y-102236000D02*
X123092000Y-105536000D01*
X123092000Y-105536000D02*
X128492000Y-105536000D01*
X123092000Y-102236000D02*
X128492000Y-102236000D01*
D12*
%TO.C,J1*%
X139192000Y-84709000D02*
X139192000Y-82804000D01*
X139192000Y-82804000D02*
X149352000Y-82804000D01*
X149352000Y-82804000D02*
X149352000Y-85344000D01*
X149352000Y-85344000D02*
X139827000Y-85344000D01*
X139827000Y-85344000D02*
X139192000Y-84709000D01*
D11*
%TO.C,L1*%
X115814000Y-108642000D02*
X115814000Y-101742000D01*
X120914000Y-108642000D02*
X120914000Y-101742000D01*
%TO.C,L2*%
X124596000Y-68672000D02*
X124596000Y-67472000D01*
X126356000Y-67472000D02*
X126356000Y-68672000D01*
%TO.C,Led1*%
X115592000Y-87060000D02*
X112792000Y-87060000D01*
X115592000Y-85660000D02*
X112792000Y-85660000D01*
X115592000Y-87060000D02*
X115592000Y-85660000D01*
%TO.C,R1*%
X119942000Y-112640000D02*
X118742000Y-112640000D01*
X118742000Y-110880000D02*
X119942000Y-110880000D01*
%TO.C,R2*%
X119942000Y-114926000D02*
X118742000Y-114926000D01*
X118742000Y-113166000D02*
X119942000Y-113166000D01*
%TO.C,R3*%
X128362000Y-114926000D02*
X127162000Y-114926000D01*
X127162000Y-113166000D02*
X128362000Y-113166000D01*
%TO.C,R4*%
X115916000Y-117466000D02*
X114716000Y-117466000D01*
X114716000Y-115706000D02*
X115916000Y-115706000D01*
%TO.C,R5*%
X113192000Y-82940000D02*
X114392000Y-82940000D01*
X114392000Y-84700000D02*
X113192000Y-84700000D01*
%TO.C,R6*%
X124298000Y-117466000D02*
X123098000Y-117466000D01*
X123098000Y-115706000D02*
X124298000Y-115706000D01*
%TO.C,R7*%
X124298000Y-114926000D02*
X123098000Y-114926000D01*
X123098000Y-113166000D02*
X124298000Y-113166000D01*
%TO.C,R8*%
X144898000Y-57058000D02*
X144898000Y-58258000D01*
X143138000Y-58258000D02*
X143138000Y-57058000D01*
%TO.C,R9*%
X134738000Y-74076000D02*
X134738000Y-75276000D01*
X132978000Y-75276000D02*
X132978000Y-74076000D01*
%TO.C,SW1*%
X147242000Y-76186000D02*
X146792000Y-75736000D01*
X143842000Y-76186000D02*
X144292000Y-75736000D01*
X143842000Y-80786000D02*
X144292000Y-81236000D01*
X147242000Y-80786000D02*
X146792000Y-81236000D01*
X142792000Y-79486000D02*
X142792000Y-77486000D01*
X146792000Y-75736000D02*
X144292000Y-75736000D01*
X148292000Y-79486000D02*
X148292000Y-77486000D01*
X146792000Y-81236000D02*
X144292000Y-81236000D01*
%TO.C,U1*%
X118750000Y-94850000D02*
X118750000Y-93590000D01*
X118750000Y-88030000D02*
X118750000Y-89290000D01*
X114990000Y-94850000D02*
X118750000Y-94850000D01*
X112740000Y-88030000D02*
X118750000Y-88030000D01*
D13*
%TO.C,U2*%
X123909000Y-106899000D02*
X123909000Y-106949000D01*
X128059000Y-106899000D02*
X128059000Y-107044000D01*
X128059000Y-112049000D02*
X128059000Y-111904000D01*
X123909000Y-112049000D02*
X123909000Y-111904000D01*
X123909000Y-106899000D02*
X128059000Y-106899000D01*
X123909000Y-112049000D02*
X128059000Y-112049000D01*
X123909000Y-106949000D02*
X122509000Y-106949000D01*
D11*
%TO.C,U3*%
X129936000Y-62938000D02*
X129486000Y-62938000D01*
X129486000Y-62938000D02*
X129486000Y-63388000D01*
X136256000Y-62938000D02*
X136706000Y-62938000D01*
X136706000Y-62938000D02*
X136706000Y-63388000D01*
X129936000Y-70158000D02*
X129486000Y-70158000D01*
X129486000Y-70158000D02*
X129486000Y-69708000D01*
X136256000Y-70158000D02*
X136706000Y-70158000D01*
X136706000Y-70158000D02*
X136706000Y-69708000D01*
X136706000Y-69708000D02*
X137996000Y-69708000D01*
%TO.C,Y1*%
X149362000Y-74264000D02*
X149362000Y-61664000D01*
X144262000Y-74264000D02*
X149362000Y-74264000D01*
X144262000Y-61664000D02*
X144262000Y-74264000D01*
%TO.C,J3*%
X104440000Y-75530000D02*
X104440000Y-83210000D01*
X104440000Y-83210000D02*
X107240000Y-83210000D01*
X107240000Y-83210000D02*
X107240000Y-75530000D01*
X107240000Y-75530000D02*
X104440000Y-75530000D01*
X104440000Y-74260000D02*
X104440000Y-72930000D01*
X104440000Y-72930000D02*
X105840000Y-72930000D01*
%TO.C,J4*%
X104430000Y-57800000D02*
X105830000Y-57800000D01*
X104430000Y-59130000D02*
X104430000Y-57800000D01*
X107230000Y-60400000D02*
X104430000Y-60400000D01*
X107230000Y-68080000D02*
X107230000Y-60400000D01*
X104430000Y-68080000D02*
X107230000Y-68080000D01*
X104430000Y-60400000D02*
X104430000Y-68080000D01*
%TO.C,J5*%
X104440000Y-91470000D02*
X104440000Y-99150000D01*
X104440000Y-99150000D02*
X107240000Y-99150000D01*
X107240000Y-99150000D02*
X107240000Y-91470000D01*
X107240000Y-91470000D02*
X104440000Y-91470000D01*
X104440000Y-90200000D02*
X104440000Y-88870000D01*
X104440000Y-88870000D02*
X105840000Y-88870000D01*
%TO.C,R10*%
X135264000Y-79152000D02*
X135264000Y-77952000D01*
X137024000Y-77952000D02*
X137024000Y-79152000D01*
%TO.C,TH1*%
X139179359Y-79049905D02*
G75*
G02X137730000Y-78952867I-749359J-320095D01*
G01*
%TO.C,J2*%
D13*
X145306666Y-119567980D02*
X145306666Y-120282266D01*
X145259047Y-120425123D01*
X145163809Y-120520361D01*
X145020952Y-120567980D01*
X144925714Y-120567980D01*
X145735238Y-119663219D02*
X145782857Y-119615600D01*
X145878095Y-119567980D01*
X146116190Y-119567980D01*
X146211428Y-119615600D01*
X146259047Y-119663219D01*
X146306666Y-119758457D01*
X146306666Y-119853695D01*
X146259047Y-119996552D01*
X145687619Y-120567980D01*
X146306666Y-120567980D01*
%TO.C,C1*%
X113879333Y-100155142D02*
X113831714Y-100202761D01*
X113688857Y-100250380D01*
X113593619Y-100250380D01*
X113450761Y-100202761D01*
X113355523Y-100107523D01*
X113307904Y-100012285D01*
X113260285Y-99821809D01*
X113260285Y-99678952D01*
X113307904Y-99488476D01*
X113355523Y-99393238D01*
X113450761Y-99298000D01*
X113593619Y-99250380D01*
X113688857Y-99250380D01*
X113831714Y-99298000D01*
X113879333Y-99345619D01*
X114831714Y-100250380D02*
X114260285Y-100250380D01*
X114546000Y-100250380D02*
X114546000Y-99250380D01*
X114450761Y-99393238D01*
X114355523Y-99488476D01*
X114260285Y-99536095D01*
%TO.C,C2*%
X121499333Y-86717142D02*
X121451714Y-86764761D01*
X121308857Y-86812380D01*
X121213619Y-86812380D01*
X121070761Y-86764761D01*
X120975523Y-86669523D01*
X120927904Y-86574285D01*
X120880285Y-86383809D01*
X120880285Y-86240952D01*
X120927904Y-86050476D01*
X120975523Y-85955238D01*
X121070761Y-85860000D01*
X121213619Y-85812380D01*
X121308857Y-85812380D01*
X121451714Y-85860000D01*
X121499333Y-85907619D01*
X121880285Y-85907619D02*
X121927904Y-85860000D01*
X122023142Y-85812380D01*
X122261238Y-85812380D01*
X122356476Y-85860000D01*
X122404095Y-85907619D01*
X122451714Y-86002857D01*
X122451714Y-86098095D01*
X122404095Y-86240952D01*
X121832666Y-86812380D01*
X122451714Y-86812380D01*
%TO.C,C3*%
X135723333Y-108053142D02*
X135675714Y-108100761D01*
X135532857Y-108148380D01*
X135437619Y-108148380D01*
X135294761Y-108100761D01*
X135199523Y-108005523D01*
X135151904Y-107910285D01*
X135104285Y-107719809D01*
X135104285Y-107576952D01*
X135151904Y-107386476D01*
X135199523Y-107291238D01*
X135294761Y-107196000D01*
X135437619Y-107148380D01*
X135532857Y-107148380D01*
X135675714Y-107196000D01*
X135723333Y-107243619D01*
X136056666Y-107148380D02*
X136675714Y-107148380D01*
X136342380Y-107529333D01*
X136485238Y-107529333D01*
X136580476Y-107576952D01*
X136628095Y-107624571D01*
X136675714Y-107719809D01*
X136675714Y-107957904D01*
X136628095Y-108053142D01*
X136580476Y-108100761D01*
X136485238Y-108148380D01*
X136199523Y-108148380D01*
X136104285Y-108100761D01*
X136056666Y-108053142D01*
%TO.C,C4*%
X118975333Y-118468142D02*
X118927714Y-118515761D01*
X118784857Y-118563380D01*
X118689619Y-118563380D01*
X118546761Y-118515761D01*
X118451523Y-118420523D01*
X118403904Y-118325285D01*
X118356285Y-118134809D01*
X118356285Y-117991952D01*
X118403904Y-117801476D01*
X118451523Y-117706238D01*
X118546761Y-117611000D01*
X118689619Y-117563380D01*
X118784857Y-117563380D01*
X118927714Y-117611000D01*
X118975333Y-117658619D01*
X119832476Y-117896714D02*
X119832476Y-118563380D01*
X119594380Y-117515761D02*
X119356285Y-118230047D01*
X119975333Y-118230047D01*
%TO.C,C5*%
X142327333Y-73255142D02*
X142279714Y-73302761D01*
X142136857Y-73350380D01*
X142041619Y-73350380D01*
X141898761Y-73302761D01*
X141803523Y-73207523D01*
X141755904Y-73112285D01*
X141708285Y-72921809D01*
X141708285Y-72778952D01*
X141755904Y-72588476D01*
X141803523Y-72493238D01*
X141898761Y-72398000D01*
X142041619Y-72350380D01*
X142136857Y-72350380D01*
X142279714Y-72398000D01*
X142327333Y-72445619D01*
X143232095Y-72350380D02*
X142755904Y-72350380D01*
X142708285Y-72826571D01*
X142755904Y-72778952D01*
X142851142Y-72731333D01*
X143089238Y-72731333D01*
X143184476Y-72778952D01*
X143232095Y-72826571D01*
X143279714Y-72921809D01*
X143279714Y-73159904D01*
X143232095Y-73255142D01*
X143184476Y-73302761D01*
X143089238Y-73350380D01*
X142851142Y-73350380D01*
X142755904Y-73302761D01*
X142708285Y-73255142D01*
%TO.C,C6*%
X142327333Y-62079142D02*
X142279714Y-62126761D01*
X142136857Y-62174380D01*
X142041619Y-62174380D01*
X141898761Y-62126761D01*
X141803523Y-62031523D01*
X141755904Y-61936285D01*
X141708285Y-61745809D01*
X141708285Y-61602952D01*
X141755904Y-61412476D01*
X141803523Y-61317238D01*
X141898761Y-61222000D01*
X142041619Y-61174380D01*
X142136857Y-61174380D01*
X142279714Y-61222000D01*
X142327333Y-61269619D01*
X143184476Y-61174380D02*
X142994000Y-61174380D01*
X142898761Y-61222000D01*
X142851142Y-61269619D01*
X142755904Y-61412476D01*
X142708285Y-61602952D01*
X142708285Y-61983904D01*
X142755904Y-62079142D01*
X142803523Y-62126761D01*
X142898761Y-62174380D01*
X143089238Y-62174380D01*
X143184476Y-62126761D01*
X143232095Y-62079142D01*
X143279714Y-61983904D01*
X143279714Y-61745809D01*
X143232095Y-61650571D01*
X143184476Y-61602952D01*
X143089238Y-61555333D01*
X142898761Y-61555333D01*
X142803523Y-61602952D01*
X142755904Y-61650571D01*
X142708285Y-61745809D01*
%TO.C,C7*%
X146645333Y-60301142D02*
X146597714Y-60348761D01*
X146454857Y-60396380D01*
X146359619Y-60396380D01*
X146216761Y-60348761D01*
X146121523Y-60253523D01*
X146073904Y-60158285D01*
X146026285Y-59967809D01*
X146026285Y-59824952D01*
X146073904Y-59634476D01*
X146121523Y-59539238D01*
X146216761Y-59444000D01*
X146359619Y-59396380D01*
X146454857Y-59396380D01*
X146597714Y-59444000D01*
X146645333Y-59491619D01*
X146978666Y-59396380D02*
X147645333Y-59396380D01*
X147216761Y-60396380D01*
%TO.C,C8*%
X135977333Y-72747142D02*
X135929714Y-72794761D01*
X135786857Y-72842380D01*
X135691619Y-72842380D01*
X135548761Y-72794761D01*
X135453523Y-72699523D01*
X135405904Y-72604285D01*
X135358285Y-72413809D01*
X135358285Y-72270952D01*
X135405904Y-72080476D01*
X135453523Y-71985238D01*
X135548761Y-71890000D01*
X135691619Y-71842380D01*
X135786857Y-71842380D01*
X135929714Y-71890000D01*
X135977333Y-71937619D01*
X136548761Y-72270952D02*
X136453523Y-72223333D01*
X136405904Y-72175714D01*
X136358285Y-72080476D01*
X136358285Y-72032857D01*
X136405904Y-71937619D01*
X136453523Y-71890000D01*
X136548761Y-71842380D01*
X136739238Y-71842380D01*
X136834476Y-71890000D01*
X136882095Y-71937619D01*
X136929714Y-72032857D01*
X136929714Y-72080476D01*
X136882095Y-72175714D01*
X136834476Y-72223333D01*
X136739238Y-72270952D01*
X136548761Y-72270952D01*
X136453523Y-72318571D01*
X136405904Y-72366190D01*
X136358285Y-72461428D01*
X136358285Y-72651904D01*
X136405904Y-72747142D01*
X136453523Y-72794761D01*
X136548761Y-72842380D01*
X136739238Y-72842380D01*
X136834476Y-72794761D01*
X136882095Y-72747142D01*
X136929714Y-72651904D01*
X136929714Y-72461428D01*
X136882095Y-72366190D01*
X136834476Y-72318571D01*
X136739238Y-72270952D01*
%TO.C,C9*%
X140041333Y-62079142D02*
X139993714Y-62126761D01*
X139850857Y-62174380D01*
X139755619Y-62174380D01*
X139612761Y-62126761D01*
X139517523Y-62031523D01*
X139469904Y-61936285D01*
X139422285Y-61745809D01*
X139422285Y-61602952D01*
X139469904Y-61412476D01*
X139517523Y-61317238D01*
X139612761Y-61222000D01*
X139755619Y-61174380D01*
X139850857Y-61174380D01*
X139993714Y-61222000D01*
X140041333Y-61269619D01*
X140517523Y-62174380D02*
X140708000Y-62174380D01*
X140803238Y-62126761D01*
X140850857Y-62079142D01*
X140946095Y-61936285D01*
X140993714Y-61745809D01*
X140993714Y-61364857D01*
X140946095Y-61269619D01*
X140898476Y-61222000D01*
X140803238Y-61174380D01*
X140612761Y-61174380D01*
X140517523Y-61222000D01*
X140469904Y-61269619D01*
X140422285Y-61364857D01*
X140422285Y-61602952D01*
X140469904Y-61698190D01*
X140517523Y-61745809D01*
X140612761Y-61793428D01*
X140803238Y-61793428D01*
X140898476Y-61745809D01*
X140946095Y-61698190D01*
X140993714Y-61602952D01*
%TO.C,C10*%
X124833142Y-61571142D02*
X124785523Y-61618761D01*
X124642666Y-61666380D01*
X124547428Y-61666380D01*
X124404571Y-61618761D01*
X124309333Y-61523523D01*
X124261714Y-61428285D01*
X124214095Y-61237809D01*
X124214095Y-61094952D01*
X124261714Y-60904476D01*
X124309333Y-60809238D01*
X124404571Y-60714000D01*
X124547428Y-60666380D01*
X124642666Y-60666380D01*
X124785523Y-60714000D01*
X124833142Y-60761619D01*
X125785523Y-61666380D02*
X125214095Y-61666380D01*
X125499809Y-61666380D02*
X125499809Y-60666380D01*
X125404571Y-60809238D01*
X125309333Y-60904476D01*
X125214095Y-60952095D01*
X126404571Y-60666380D02*
X126499809Y-60666380D01*
X126595047Y-60714000D01*
X126642666Y-60761619D01*
X126690285Y-60856857D01*
X126737904Y-61047333D01*
X126737904Y-61285428D01*
X126690285Y-61475904D01*
X126642666Y-61571142D01*
X126595047Y-61618761D01*
X126499809Y-61666380D01*
X126404571Y-61666380D01*
X126309333Y-61618761D01*
X126261714Y-61571142D01*
X126214095Y-61475904D01*
X126166476Y-61285428D01*
X126166476Y-61047333D01*
X126214095Y-60856857D01*
X126261714Y-60761619D01*
X126309333Y-60714000D01*
X126404571Y-60666380D01*
%TO.C,CP1*%
X137001333Y-110593142D02*
X136953714Y-110640761D01*
X136810857Y-110688380D01*
X136715619Y-110688380D01*
X136572761Y-110640761D01*
X136477523Y-110545523D01*
X136429904Y-110450285D01*
X136382285Y-110259809D01*
X136382285Y-110116952D01*
X136429904Y-109926476D01*
X136477523Y-109831238D01*
X136572761Y-109736000D01*
X136715619Y-109688380D01*
X136810857Y-109688380D01*
X136953714Y-109736000D01*
X137001333Y-109783619D01*
X137429904Y-110688380D02*
X137429904Y-109688380D01*
X137810857Y-109688380D01*
X137906095Y-109736000D01*
X137953714Y-109783619D01*
X138001333Y-109878857D01*
X138001333Y-110021714D01*
X137953714Y-110116952D01*
X137906095Y-110164571D01*
X137810857Y-110212190D01*
X137429904Y-110212190D01*
X138953714Y-110688380D02*
X138382285Y-110688380D01*
X138668000Y-110688380D02*
X138668000Y-109688380D01*
X138572761Y-109831238D01*
X138477523Y-109926476D01*
X138382285Y-109974095D01*
%TO.C,CP2*%
X118459333Y-82145142D02*
X118411714Y-82192761D01*
X118268857Y-82240380D01*
X118173619Y-82240380D01*
X118030761Y-82192761D01*
X117935523Y-82097523D01*
X117887904Y-82002285D01*
X117840285Y-81811809D01*
X117840285Y-81668952D01*
X117887904Y-81478476D01*
X117935523Y-81383238D01*
X118030761Y-81288000D01*
X118173619Y-81240380D01*
X118268857Y-81240380D01*
X118411714Y-81288000D01*
X118459333Y-81335619D01*
X118887904Y-82240380D02*
X118887904Y-81240380D01*
X119268857Y-81240380D01*
X119364095Y-81288000D01*
X119411714Y-81335619D01*
X119459333Y-81430857D01*
X119459333Y-81573714D01*
X119411714Y-81668952D01*
X119364095Y-81716571D01*
X119268857Y-81764190D01*
X118887904Y-81764190D01*
X119840285Y-81335619D02*
X119887904Y-81288000D01*
X119983142Y-81240380D01*
X120221238Y-81240380D01*
X120316476Y-81288000D01*
X120364095Y-81335619D01*
X120411714Y-81430857D01*
X120411714Y-81526095D01*
X120364095Y-81668952D01*
X119792666Y-82240380D01*
X120411714Y-82240380D01*
%TO.C,CP3*%
X119221333Y-96905142D02*
X119173714Y-96952761D01*
X119030857Y-97000380D01*
X118935619Y-97000380D01*
X118792761Y-96952761D01*
X118697523Y-96857523D01*
X118649904Y-96762285D01*
X118602285Y-96571809D01*
X118602285Y-96428952D01*
X118649904Y-96238476D01*
X118697523Y-96143238D01*
X118792761Y-96048000D01*
X118935619Y-96000380D01*
X119030857Y-96000380D01*
X119173714Y-96048000D01*
X119221333Y-96095619D01*
X119649904Y-97000380D02*
X119649904Y-96000380D01*
X120030857Y-96000380D01*
X120126095Y-96048000D01*
X120173714Y-96095619D01*
X120221333Y-96190857D01*
X120221333Y-96333714D01*
X120173714Y-96428952D01*
X120126095Y-96476571D01*
X120030857Y-96524190D01*
X119649904Y-96524190D01*
X120554666Y-96000380D02*
X121173714Y-96000380D01*
X120840380Y-96381333D01*
X120983238Y-96381333D01*
X121078476Y-96428952D01*
X121126095Y-96476571D01*
X121173714Y-96571809D01*
X121173714Y-96809904D01*
X121126095Y-96905142D01*
X121078476Y-96952761D01*
X120983238Y-97000380D01*
X120697523Y-97000380D01*
X120602285Y-96952761D01*
X120554666Y-96905142D01*
%TO.C,D1*%
X121435904Y-104084380D02*
X121435904Y-103084380D01*
X121674000Y-103084380D01*
X121816857Y-103132000D01*
X121912095Y-103227238D01*
X121959714Y-103322476D01*
X122007333Y-103512952D01*
X122007333Y-103655809D01*
X121959714Y-103846285D01*
X121912095Y-103941523D01*
X121816857Y-104036761D01*
X121674000Y-104084380D01*
X121435904Y-104084380D01*
X122959714Y-104084380D02*
X122388285Y-104084380D01*
X122674000Y-104084380D02*
X122674000Y-103084380D01*
X122578761Y-103227238D01*
X122483523Y-103322476D01*
X122388285Y-103370095D01*
%TO.C,J1*%
D11*
X137748666Y-84307333D02*
X138248666Y-84307333D01*
X138348666Y-84340666D01*
X138415333Y-84407333D01*
X138448666Y-84507333D01*
X138448666Y-84574000D01*
X138448666Y-83607333D02*
X138448666Y-84007333D01*
X138448666Y-83807333D02*
X137748666Y-83807333D01*
X137848666Y-83874000D01*
X137915333Y-83940666D01*
X137948666Y-84007333D01*
%TO.C,L1*%
D13*
X114133333Y-105608380D02*
X113657142Y-105608380D01*
X113657142Y-104608380D01*
X114990476Y-105608380D02*
X114419047Y-105608380D01*
X114704761Y-105608380D02*
X114704761Y-104608380D01*
X114609523Y-104751238D01*
X114514285Y-104846476D01*
X114419047Y-104894095D01*
%TO.C,L2*%
X125309333Y-71572380D02*
X124833142Y-71572380D01*
X124833142Y-70572380D01*
X125595047Y-70667619D02*
X125642666Y-70620000D01*
X125737904Y-70572380D01*
X125976000Y-70572380D01*
X126071238Y-70620000D01*
X126118857Y-70667619D01*
X126166476Y-70762857D01*
X126166476Y-70858095D01*
X126118857Y-71000952D01*
X125547428Y-71572380D01*
X126166476Y-71572380D01*
%TO.C,Led1*%
X109188380Y-86812380D02*
X108712190Y-86812380D01*
X108712190Y-85812380D01*
X109902666Y-86764761D02*
X109807428Y-86812380D01*
X109616952Y-86812380D01*
X109521714Y-86764761D01*
X109474095Y-86669523D01*
X109474095Y-86288571D01*
X109521714Y-86193333D01*
X109616952Y-86145714D01*
X109807428Y-86145714D01*
X109902666Y-86193333D01*
X109950285Y-86288571D01*
X109950285Y-86383809D01*
X109474095Y-86479047D01*
X110807428Y-86812380D02*
X110807428Y-85812380D01*
X110807428Y-86764761D02*
X110712190Y-86812380D01*
X110521714Y-86812380D01*
X110426476Y-86764761D01*
X110378857Y-86717142D01*
X110331238Y-86621904D01*
X110331238Y-86336190D01*
X110378857Y-86240952D01*
X110426476Y-86193333D01*
X110521714Y-86145714D01*
X110712190Y-86145714D01*
X110807428Y-86193333D01*
X111807428Y-86812380D02*
X111236000Y-86812380D01*
X111521714Y-86812380D02*
X111521714Y-85812380D01*
X111426476Y-85955238D01*
X111331238Y-86050476D01*
X111236000Y-86098095D01*
%TO.C,R1*%
X119175333Y-110562380D02*
X118842000Y-110086190D01*
X118603904Y-110562380D02*
X118603904Y-109562380D01*
X118984857Y-109562380D01*
X119080095Y-109610000D01*
X119127714Y-109657619D01*
X119175333Y-109752857D01*
X119175333Y-109895714D01*
X119127714Y-109990952D01*
X119080095Y-110038571D01*
X118984857Y-110086190D01*
X118603904Y-110086190D01*
X120127714Y-110562380D02*
X119556285Y-110562380D01*
X119842000Y-110562380D02*
X119842000Y-109562380D01*
X119746761Y-109705238D01*
X119651523Y-109800476D01*
X119556285Y-109848095D01*
%TO.C,R2*%
X116673333Y-114498380D02*
X116340000Y-114022190D01*
X116101904Y-114498380D02*
X116101904Y-113498380D01*
X116482857Y-113498380D01*
X116578095Y-113546000D01*
X116625714Y-113593619D01*
X116673333Y-113688857D01*
X116673333Y-113831714D01*
X116625714Y-113926952D01*
X116578095Y-113974571D01*
X116482857Y-114022190D01*
X116101904Y-114022190D01*
X117054285Y-113593619D02*
X117101904Y-113546000D01*
X117197142Y-113498380D01*
X117435238Y-113498380D01*
X117530476Y-113546000D01*
X117578095Y-113593619D01*
X117625714Y-113688857D01*
X117625714Y-113784095D01*
X117578095Y-113926952D01*
X117006666Y-114498380D01*
X117625714Y-114498380D01*
%TO.C,R3*%
X130135333Y-114752380D02*
X129802000Y-114276190D01*
X129563904Y-114752380D02*
X129563904Y-113752380D01*
X129944857Y-113752380D01*
X130040095Y-113800000D01*
X130087714Y-113847619D01*
X130135333Y-113942857D01*
X130135333Y-114085714D01*
X130087714Y-114180952D01*
X130040095Y-114228571D01*
X129944857Y-114276190D01*
X129563904Y-114276190D01*
X130468666Y-113752380D02*
X131087714Y-113752380D01*
X130754380Y-114133333D01*
X130897238Y-114133333D01*
X130992476Y-114180952D01*
X131040095Y-114228571D01*
X131087714Y-114323809D01*
X131087714Y-114561904D01*
X131040095Y-114657142D01*
X130992476Y-114704761D01*
X130897238Y-114752380D01*
X130611523Y-114752380D01*
X130516285Y-114704761D01*
X130468666Y-114657142D01*
%TO.C,R4*%
X115149333Y-118688380D02*
X114816000Y-118212190D01*
X114577904Y-118688380D02*
X114577904Y-117688380D01*
X114958857Y-117688380D01*
X115054095Y-117736000D01*
X115101714Y-117783619D01*
X115149333Y-117878857D01*
X115149333Y-118021714D01*
X115101714Y-118116952D01*
X115054095Y-118164571D01*
X114958857Y-118212190D01*
X114577904Y-118212190D01*
X116006476Y-118021714D02*
X116006476Y-118688380D01*
X115768380Y-117640761D02*
X115530285Y-118355047D01*
X116149333Y-118355047D01*
%TO.C,R5*%
X113371333Y-82494380D02*
X113038000Y-82018190D01*
X112799904Y-82494380D02*
X112799904Y-81494380D01*
X113180857Y-81494380D01*
X113276095Y-81542000D01*
X113323714Y-81589619D01*
X113371333Y-81684857D01*
X113371333Y-81827714D01*
X113323714Y-81922952D01*
X113276095Y-81970571D01*
X113180857Y-82018190D01*
X112799904Y-82018190D01*
X114276095Y-81494380D02*
X113799904Y-81494380D01*
X113752285Y-81970571D01*
X113799904Y-81922952D01*
X113895142Y-81875333D01*
X114133238Y-81875333D01*
X114228476Y-81922952D01*
X114276095Y-81970571D01*
X114323714Y-82065809D01*
X114323714Y-82303904D01*
X114276095Y-82399142D01*
X114228476Y-82446761D01*
X114133238Y-82494380D01*
X113895142Y-82494380D01*
X113799904Y-82446761D01*
X113752285Y-82399142D01*
%TO.C,R6*%
X123531333Y-118688380D02*
X123198000Y-118212190D01*
X122959904Y-118688380D02*
X122959904Y-117688380D01*
X123340857Y-117688380D01*
X123436095Y-117736000D01*
X123483714Y-117783619D01*
X123531333Y-117878857D01*
X123531333Y-118021714D01*
X123483714Y-118116952D01*
X123436095Y-118164571D01*
X123340857Y-118212190D01*
X122959904Y-118212190D01*
X124388476Y-117688380D02*
X124198000Y-117688380D01*
X124102761Y-117736000D01*
X124055142Y-117783619D01*
X123959904Y-117926476D01*
X123912285Y-118116952D01*
X123912285Y-118497904D01*
X123959904Y-118593142D01*
X124007523Y-118640761D01*
X124102761Y-118688380D01*
X124293238Y-118688380D01*
X124388476Y-118640761D01*
X124436095Y-118593142D01*
X124483714Y-118497904D01*
X124483714Y-118259809D01*
X124436095Y-118164571D01*
X124388476Y-118116952D01*
X124293238Y-118069333D01*
X124102761Y-118069333D01*
X124007523Y-118116952D01*
X123959904Y-118164571D01*
X123912285Y-118259809D01*
%TO.C,R7*%
X121499333Y-114498380D02*
X121166000Y-114022190D01*
X120927904Y-114498380D02*
X120927904Y-113498380D01*
X121308857Y-113498380D01*
X121404095Y-113546000D01*
X121451714Y-113593619D01*
X121499333Y-113688857D01*
X121499333Y-113831714D01*
X121451714Y-113926952D01*
X121404095Y-113974571D01*
X121308857Y-114022190D01*
X120927904Y-114022190D01*
X121832666Y-113498380D02*
X122499333Y-113498380D01*
X122070761Y-114498380D01*
%TO.C,R8*%
X143851333Y-60396380D02*
X143518000Y-59920190D01*
X143279904Y-60396380D02*
X143279904Y-59396380D01*
X143660857Y-59396380D01*
X143756095Y-59444000D01*
X143803714Y-59491619D01*
X143851333Y-59586857D01*
X143851333Y-59729714D01*
X143803714Y-59824952D01*
X143756095Y-59872571D01*
X143660857Y-59920190D01*
X143279904Y-59920190D01*
X144422761Y-59824952D02*
X144327523Y-59777333D01*
X144279904Y-59729714D01*
X144232285Y-59634476D01*
X144232285Y-59586857D01*
X144279904Y-59491619D01*
X144327523Y-59444000D01*
X144422761Y-59396380D01*
X144613238Y-59396380D01*
X144708476Y-59444000D01*
X144756095Y-59491619D01*
X144803714Y-59586857D01*
X144803714Y-59634476D01*
X144756095Y-59729714D01*
X144708476Y-59777333D01*
X144613238Y-59824952D01*
X144422761Y-59824952D01*
X144327523Y-59872571D01*
X144279904Y-59920190D01*
X144232285Y-60015428D01*
X144232285Y-60205904D01*
X144279904Y-60301142D01*
X144327523Y-60348761D01*
X144422761Y-60396380D01*
X144613238Y-60396380D01*
X144708476Y-60348761D01*
X144756095Y-60301142D01*
X144803714Y-60205904D01*
X144803714Y-60015428D01*
X144756095Y-59920190D01*
X144708476Y-59872571D01*
X144613238Y-59824952D01*
%TO.C,R9*%
X133691333Y-72842380D02*
X133358000Y-72366190D01*
X133119904Y-72842380D02*
X133119904Y-71842380D01*
X133500857Y-71842380D01*
X133596095Y-71890000D01*
X133643714Y-71937619D01*
X133691333Y-72032857D01*
X133691333Y-72175714D01*
X133643714Y-72270952D01*
X133596095Y-72318571D01*
X133500857Y-72366190D01*
X133119904Y-72366190D01*
X134167523Y-72842380D02*
X134358000Y-72842380D01*
X134453238Y-72794761D01*
X134500857Y-72747142D01*
X134596095Y-72604285D01*
X134643714Y-72413809D01*
X134643714Y-72032857D01*
X134596095Y-71937619D01*
X134548476Y-71890000D01*
X134453238Y-71842380D01*
X134262761Y-71842380D01*
X134167523Y-71890000D01*
X134119904Y-71937619D01*
X134072285Y-72032857D01*
X134072285Y-72270952D01*
X134119904Y-72366190D01*
X134167523Y-72413809D01*
X134262761Y-72461428D01*
X134453238Y-72461428D01*
X134548476Y-72413809D01*
X134596095Y-72366190D01*
X134643714Y-72270952D01*
%TO.C,SW1*%
X144208666Y-82640761D02*
X144351523Y-82688380D01*
X144589619Y-82688380D01*
X144684857Y-82640761D01*
X144732476Y-82593142D01*
X144780095Y-82497904D01*
X144780095Y-82402666D01*
X144732476Y-82307428D01*
X144684857Y-82259809D01*
X144589619Y-82212190D01*
X144399142Y-82164571D01*
X144303904Y-82116952D01*
X144256285Y-82069333D01*
X144208666Y-81974095D01*
X144208666Y-81878857D01*
X144256285Y-81783619D01*
X144303904Y-81736000D01*
X144399142Y-81688380D01*
X144637238Y-81688380D01*
X144780095Y-81736000D01*
X145113428Y-81688380D02*
X145351523Y-82688380D01*
X145542000Y-81974095D01*
X145732476Y-82688380D01*
X145970571Y-81688380D01*
X146875333Y-82688380D02*
X146303904Y-82688380D01*
X146589619Y-82688380D02*
X146589619Y-81688380D01*
X146494380Y-81831238D01*
X146399142Y-81926476D01*
X146303904Y-81974095D01*
%TO.C,U1*%
X110236095Y-87590380D02*
X110236095Y-88399904D01*
X110283714Y-88495142D01*
X110331333Y-88542761D01*
X110426571Y-88590380D01*
X110617047Y-88590380D01*
X110712285Y-88542761D01*
X110759904Y-88495142D01*
X110807523Y-88399904D01*
X110807523Y-87590380D01*
X111807523Y-88590380D02*
X111236095Y-88590380D01*
X111521809Y-88590380D02*
X111521809Y-87590380D01*
X111426571Y-87733238D01*
X111331333Y-87828476D01*
X111236095Y-87876095D01*
%TO.C,U2*%
X121666095Y-105624380D02*
X121666095Y-106433904D01*
X121713714Y-106529142D01*
X121761333Y-106576761D01*
X121856571Y-106624380D01*
X122047047Y-106624380D01*
X122142285Y-106576761D01*
X122189904Y-106529142D01*
X122237523Y-106433904D01*
X122237523Y-105624380D01*
X122666095Y-105719619D02*
X122713714Y-105672000D01*
X122808952Y-105624380D01*
X123047047Y-105624380D01*
X123142285Y-105672000D01*
X123189904Y-105719619D01*
X123237523Y-105814857D01*
X123237523Y-105910095D01*
X123189904Y-106052952D01*
X122618476Y-106624380D01*
X123237523Y-106624380D01*
%TO.C,U3*%
X137668095Y-69810380D02*
X137668095Y-70619904D01*
X137715714Y-70715142D01*
X137763333Y-70762761D01*
X137858571Y-70810380D01*
X138049047Y-70810380D01*
X138144285Y-70762761D01*
X138191904Y-70715142D01*
X138239523Y-70619904D01*
X138239523Y-69810380D01*
X138620476Y-69810380D02*
X139239523Y-69810380D01*
X138906190Y-70191333D01*
X139049047Y-70191333D01*
X139144285Y-70238952D01*
X139191904Y-70286571D01*
X139239523Y-70381809D01*
X139239523Y-70619904D01*
X139191904Y-70715142D01*
X139144285Y-70762761D01*
X139049047Y-70810380D01*
X138763333Y-70810380D01*
X138668095Y-70762761D01*
X138620476Y-70715142D01*
%TO.C,Y1*%
X143238190Y-68040190D02*
X143714380Y-68040190D01*
X142714380Y-68373523D02*
X143238190Y-68040190D01*
X142714380Y-67706857D01*
X143714380Y-66849714D02*
X143714380Y-67421142D01*
X143714380Y-67135428D02*
X142714380Y-67135428D01*
X142857238Y-67230666D01*
X142952476Y-67325904D01*
X143000095Y-67421142D01*
%TO.C,J3*%
X105506666Y-71382380D02*
X105506666Y-72096666D01*
X105459047Y-72239523D01*
X105363809Y-72334761D01*
X105220952Y-72382380D01*
X105125714Y-72382380D01*
X105887619Y-71382380D02*
X106506666Y-71382380D01*
X106173333Y-71763333D01*
X106316190Y-71763333D01*
X106411428Y-71810952D01*
X106459047Y-71858571D01*
X106506666Y-71953809D01*
X106506666Y-72191904D01*
X106459047Y-72287142D01*
X106411428Y-72334761D01*
X106316190Y-72382380D01*
X106030476Y-72382380D01*
X105935238Y-72334761D01*
X105887619Y-72287142D01*
%TO.C,J4*%
X105496666Y-56252380D02*
X105496666Y-56966666D01*
X105449047Y-57109523D01*
X105353809Y-57204761D01*
X105210952Y-57252380D01*
X105115714Y-57252380D01*
X106401428Y-56585714D02*
X106401428Y-57252380D01*
X106163333Y-56204761D02*
X105925238Y-56919047D01*
X106544285Y-56919047D01*
%TO.C,J5*%
X105506666Y-87322380D02*
X105506666Y-88036666D01*
X105459047Y-88179523D01*
X105363809Y-88274761D01*
X105220952Y-88322380D01*
X105125714Y-88322380D01*
X106459047Y-87322380D02*
X105982857Y-87322380D01*
X105935238Y-87798571D01*
X105982857Y-87750952D01*
X106078095Y-87703333D01*
X106316190Y-87703333D01*
X106411428Y-87750952D01*
X106459047Y-87798571D01*
X106506666Y-87893809D01*
X106506666Y-88131904D01*
X106459047Y-88227142D01*
X106411428Y-88274761D01*
X106316190Y-88322380D01*
X106078095Y-88322380D01*
X105982857Y-88274761D01*
X105935238Y-88227142D01*
%TO.C,R10*%
X134993142Y-81478380D02*
X134659809Y-81002190D01*
X134421714Y-81478380D02*
X134421714Y-80478380D01*
X134802666Y-80478380D01*
X134897904Y-80526000D01*
X134945523Y-80573619D01*
X134993142Y-80668857D01*
X134993142Y-80811714D01*
X134945523Y-80906952D01*
X134897904Y-80954571D01*
X134802666Y-81002190D01*
X134421714Y-81002190D01*
X135945523Y-81478380D02*
X135374095Y-81478380D01*
X135659809Y-81478380D02*
X135659809Y-80478380D01*
X135564571Y-80621238D01*
X135469333Y-80716476D01*
X135374095Y-80764095D01*
X136564571Y-80478380D02*
X136659809Y-80478380D01*
X136755047Y-80526000D01*
X136802666Y-80573619D01*
X136850285Y-80668857D01*
X136897904Y-80859333D01*
X136897904Y-81097428D01*
X136850285Y-81287904D01*
X136802666Y-81383142D01*
X136755047Y-81430761D01*
X136659809Y-81478380D01*
X136564571Y-81478380D01*
X136469333Y-81430761D01*
X136421714Y-81383142D01*
X136374095Y-81287904D01*
X136326476Y-81097428D01*
X136326476Y-80859333D01*
X136374095Y-80668857D01*
X136421714Y-80573619D01*
X136469333Y-80526000D01*
X136564571Y-80478380D01*
%TO.C,TH1*%
X137398285Y-80478380D02*
X137969714Y-80478380D01*
X137684000Y-81478380D02*
X137684000Y-80478380D01*
X138303047Y-81478380D02*
X138303047Y-80478380D01*
X138303047Y-80954571D02*
X138874476Y-80954571D01*
X138874476Y-81478380D02*
X138874476Y-80478380D01*
X139874476Y-81478380D02*
X139303047Y-81478380D01*
X139588761Y-81478380D02*
X139588761Y-80478380D01*
X139493523Y-80621238D01*
X139398285Y-80716476D01*
X139303047Y-80764095D01*
%TD*%
M02*
